{
	"asset":{
		"generator":"Khronos glTF Blender I/O v4.5.48",
		"version":"2.0"
	},
	"scene":0,
	"scenes":[
		{
			"name":"Scene",
			"nodes":[
				6
			]
		}
	],
	"nodes":[
		{
			"mesh":0,
			"name":"mesh_1369279795-0_0_0_gbuffer"
		},
		{
			"children":[
				0
			],
			"name":"pattern_2629351142_0_barrel"
		},
		{
			"mesh":1,
			"name":"mesh_2406425245-0_0_0_gbuffer"
		},
		{
			"mesh":2,
			"name":"mesh_2406425245-0_0_1_transparents"
		},
		{
			"children":[
				2,
				3
			],
			"name":"pattern_31800304_0_frame"
		},
		{
			"children":[
				1,
				4
			],
			"name":"item_4_1141818699",
			"scale":[
				150,
				150,
				150
			]
		},
		{
			"children":[
				5
			],
			"name":"content",
			"scale":[
				0.021840931847691536,
				0.021840931847691536,
				0.021840931847691536
			]
		}
	],
	"materials":[
		{
			"doubleSided":true,
			"name":"mat_1141818699_1",
			"normalTexture":{
				"index":0
			},
			"pbrMetallicRoughness":{
				"baseColorTexture":{
					"index":1
				},
				"metallicFactor":0
			}
		},
		{
			"doubleSided":true,
			"name":"mat_1141818699_0",
			"normalTexture":{
				"index":2
			},
			"pbrMetallicRoughness":{
				"baseColorTexture":{
					"index":3
				},
				"metallicFactor":0
			}
		},
		{
			"doubleSided":true,
			"name":"mat_1141818699_0.001",
			"normalTexture":{
				"index":4
			},
			"pbrMetallicRoughness":{
				"baseColorTexture":{
					"index":5
				},
				"metallicFactor":0
			}
		}
	],
	"meshes":[
		{
			"name":"Mesh_2.001",
			"primitives":[
				{
					"attributes":{
						"POSITION":0,
						"NORMAL":1,
						"TEXCOORD_0":2,
						"TANGENT":3,
						"COLOR_0":4,
						"COLOR_1":5
					},
					"indices":6,
					"material":0
				}
			]
		},
		{
			"name":"Mesh_0.001",
			"primitives":[
				{
					"attributes":{
						"POSITION":7,
						"NORMAL":8,
						"TEXCOORD_0":9,
						"TANGENT":10,
						"COLOR_0":11,
						"COLOR_1":12
					},
					"indices":13,
					"material":1
				}
			]
		},
		{
			"name":"Mesh_1.001",
			"primitives":[
				{
					"attributes":{
						"POSITION":14,
						"NORMAL":15,
						"TEXCOORD_0":16,
						"TANGENT":17,
						"COLOR_0":18,
						"COLOR_1":19
					},
					"indices":20,
					"material":2
				}
			]
		}
	],
	"textures":[
		{
			"sampler":0,
			"source":0
		},
		{
			"sampler":0,
			"source":1
		},
		{
			"sampler":0,
			"source":2
		},
		{
			"sampler":0,
			"source":3
		},
		{
			"sampler":0,
			"source":2
		},
		{
			"sampler":0,
			"source":3
		}
	],
	"images":[
		{
			"mimeType":"image/png",
			"name":"Image_3",
			"uri":"Image_3.png"
		},
		{
			"mimeType":"image/png",
			"name":"Image_2",
			"uri":"Image_2.png"
		},
		{
			"mimeType":"image/png",
			"name":"Image_1",
			"uri":"Image_1.png"
		},
		{
			"mimeType":"image/png",
			"name":"Image_0",
			"uri":"Image_0.png"
		}
	],
	"accessors":[
		{
			"bufferView":0,
			"componentType":5126,
			"count":7704,
			"max":[
				0.06704831123352051,
				0.5137349963188171,
				0.17853698134422302
			],
			"min":[
				-0.06704831123352051,
				-0.1853809952735901,
				-0.16533496975898743
			],
			"type":"VEC3"
		},
		{
			"bufferView":1,
			"componentType":5126,
			"count":7704,
			"type":"VEC3"
		},
		{
			"bufferView":2,
			"componentType":5126,
			"count":7704,
			"type":"VEC2"
		},
		{
			"bufferView":3,
			"componentType":5126,
			"count":7704,
			"type":"VEC4"
		},
		{
			"bufferView":4,
			"componentType":5121,
			"count":7704,
			"normalized":true,
			"type":"VEC4"
		},
		{
			"bufferView":5,
			"componentType":5123,
			"count":7704,
			"normalized":true,
			"type":"VEC4"
		},
		{
			"bufferView":6,
			"componentType":5123,
			"count":20865,
			"type":"SCALAR"
		},
		{
			"bufferView":7,
			"componentType":5126,
			"count":13094,
			"max":[
				0.052344366908073425,
				1.130836009979248,
				0.2636203467845917
			],
			"min":[
				-0.05236636847257614,
				0.21466600894927979,
				-0.23398633301258087
			],
			"type":"VEC3"
		},
		{
			"bufferView":8,
			"componentType":5126,
			"count":13094,
			"type":"VEC3"
		},
		{
			"bufferView":9,
			"componentType":5126,
			"count":13094,
			"type":"VEC2"
		},
		{
			"bufferView":10,
			"componentType":5126,
			"count":13094,
			"type":"VEC4"
		},
		{
			"bufferView":11,
			"componentType":5121,
			"count":13094,
			"normalized":true,
			"type":"VEC4"
		},
		{
			"bufferView":12,
			"componentType":5123,
			"count":13094,
			"normalized":true,
			"type":"VEC4"
		},
		{
			"bufferView":13,
			"componentType":5123,
			"count":41193,
			"type":"SCALAR"
		},
		{
			"bufferView":14,
			"componentType":5126,
			"count":2481,
			"max":[
				0.04289383813738823,
				1.130836009979248,
				0.2636203467845917
			],
			"min":[
				-0.042091015726327896,
				0.21466600894927979,
				-0.21358941495418549
			],
			"type":"VEC3"
		},
		{
			"bufferView":15,
			"componentType":5126,
			"count":2481,
			"type":"VEC3"
		},
		{
			"bufferView":16,
			"componentType":5126,
			"count":2481,
			"type":"VEC2"
		},
		{
			"bufferView":17,
			"componentType":5126,
			"count":2481,
			"type":"VEC4"
		},
		{
			"bufferView":18,
			"componentType":5121,
			"count":2481,
			"normalized":true,
			"type":"VEC4"
		},
		{
			"bufferView":19,
			"componentType":5123,
			"count":2481,
			"normalized":true,
			"type":"VEC4"
		},
		{
			"bufferView":20,
			"componentType":5123,
			"count":11406,
			"type":"SCALAR"
		}
	],
	"bufferViews":[
		{
			"buffer":0,
			"byteLength":92448,
			"byteOffset":0,
			"target":34962
		},
		{
			"buffer":0,
			"byteLength":92448,
			"byteOffset":92448,
			"target":34962
		},
		{
			"buffer":0,
			"byteLength":61632,
			"byteOffset":184896,
			"target":34962
		},
		{
			"buffer":0,
			"byteLength":123264,
			"byteOffset":246528,
			"target":34962
		},
		{
			"buffer":0,
			"byteLength":30816,
			"byteOffset":369792,
			"target":34962
		},
		{
			"buffer":0,
			"byteLength":61632,
			"byteOffset":400608,
			"target":34962
		},
		{
			"buffer":0,
			"byteLength":41730,
			"byteOffset":462240,
			"target":34963
		},
		{
			"buffer":0,
			"byteLength":157128,
			"byteOffset":503972,
			"target":34962
		},
		{
			"buffer":0,
			"byteLength":157128,
			"byteOffset":661100,
			"target":34962
		},
		{
			"buffer":0,
			"byteLength":104752,
			"byteOffset":818228,
			"target":34962
		},
		{
			"buffer":0,
			"byteLength":209504,
			"byteOffset":922980,
			"target":34962
		},
		{
			"buffer":0,
			"byteLength":52376,
			"byteOffset":1132484,
			"target":34962
		},
		{
			"buffer":0,
			"byteLength":104752,
			"byteOffset":1184860,
			"target":34962
		},
		{
			"buffer":0,
			"byteLength":82386,
			"byteOffset":1289612,
			"target":34963
		},
		{
			"buffer":0,
			"byteLength":29772,
			"byteOffset":1372000,
			"target":34962
		},
		{
			"buffer":0,
			"byteLength":29772,
			"byteOffset":1401772,
			"target":34962
		},
		{
			"buffer":0,
			"byteLength":19848,
			"byteOffset":1431544,
			"target":34962
		},
		{
			"buffer":0,
			"byteLength":39696,
			"byteOffset":1451392,
			"target":34962
		},
		{
			"buffer":0,
			"byteLength":9924,
			"byteOffset":1491088,
			"target":34962
		},
		{
			"buffer":0,
			"byteLength":19848,
			"byteOffset":1501012,
			"target":34962
		},
		{
			"buffer":0,
			"byteLength":22812,
			"byteOffset":1520860,
			"target":34963
		}
	],
	"samplers":[
		{
			"magFilter":9729,
			"minFilter":9987
		}
	],
	"buffers":[
		{
			"byteLength":1543672,
			"uri":"lament.bin"
		}
	]
}
