{
	"asset":{
		"generator":"Khronos glTF Blender I/O v4.5.47",
		"version":"2.0"
	},
	"extensionsUsed":[
		"KHR_materials_specular",
		"KHR_materials_ior"
	],
	"scene":0,
	"scenes":[
		{
			"name":"Scene",
			"nodes":[
				0
			]
		}
	],
	"nodes":[
		{
			"mesh":0,
			"name":"Object_2",
			"rotation":[
				-0.7058470249176025,
				0,
				0,
				0.7083643674850464
			],
			"scale":[
				0.14244872331619263,
				0.14244873821735382,
				0.14244873821735382
			]
		}
	],
	"materials":[
		{
			"doubleSided":true,
			"extensions":{
				"KHR_materials_specular":{
					"specularColorTexture":{
						"index":0
					}
				},
				"KHR_materials_ior":{
					"ior":1000
				}
			},
			"name":"Material__26",
			"normalTexture":{
				"index":1
			},
			"occlusionTexture":{
				"index":2
			},
			"pbrMetallicRoughness":{
				"baseColorTexture":{
					"index":3
				},
				"metallicFactor":0,
				"metallicRoughnessTexture":{
					"index":2
				}
			}
		}
	],
	"meshes":[
		{
			"name":"Object_0",
			"primitives":[
				{
					"attributes":{
						"POSITION":0,
						"NORMAL":1,
						"TEXCOORD_0":2
					},
					"indices":3,
					"material":0
				}
			]
		}
	],
	"textures":[
		{
			"sampler":0,
			"source":0
		},
		{
			"sampler":0,
			"source":1
		},
		{
			"sampler":0,
			"source":2
		},
		{
			"sampler":0,
			"source":3
		}
	],
	"images":[
		{
			"mimeType":"image/png",
			"name":"Material__26_specularGlossiness",
			"uri":"textures/Material__26_specularGlossiness.png"
		},
		{
			"mimeType":"image/jpeg",
			"name":"Material__26_normal",
			"uri":"textures/Material__26_normal.jpg"
		},
		{
			"mimeType":"image/png",
			"name":"Material__26_occlusion-Material__26_specularGlossiness.png",
			"uri":"textures/Material__26_occlusion-Material__26_specularGlossiness.png.png"
		},
		{
			"mimeType":"image/jpeg",
			"name":"Material__26_diffuse",
			"uri":"textures/Material__26_diffuse.jpg"
		}
	],
	"accessors":[
		{
			"bufferView":0,
			"componentType":5126,
			"count":1944,
			"max":[
				9.297224044799805,
				1.447464942932129,
				14.835992813110352
			],
			"min":[
				-9.934067726135254,
				-1.5900969505310059,
				0.23566100001335144
			],
			"type":"VEC3"
		},
		{
			"bufferView":1,
			"componentType":5126,
			"count":1944,
			"type":"VEC3"
		},
		{
			"bufferView":2,
			"componentType":5126,
			"count":1944,
			"type":"VEC2"
		},
		{
			"bufferView":3,
			"componentType":5123,
			"count":4284,
			"type":"SCALAR"
		}
	],
	"bufferViews":[
		{
			"buffer":0,
			"byteLength":23328,
			"byteOffset":0,
			"target":34962
		},
		{
			"buffer":0,
			"byteLength":23328,
			"byteOffset":23328,
			"target":34962
		},
		{
			"buffer":0,
			"byteLength":15552,
			"byteOffset":46656,
			"target":34962
		},
		{
			"buffer":0,
			"byteLength":8568,
			"byteOffset":62208,
			"target":34963
		}
	],
	"samplers":[
		{
			"magFilter":9729,
			"minFilter":9987
		}
	],
	"buffers":[
		{
			"byteLength":70776,
			"uri":"scene.bin"
		}
	]
}
