{
	"asset":{
		"generator":"Khronos glTF Blender I/O v4.5.48",
		"version":"2.0"
	},
	"extensionsUsed":[
		"KHR_materials_clearcoat",
		"KHR_materials_emissive_strength",
		"KHR_materials_specular",
		"KHR_materials_ior"
	],
	"scene":0,
	"scenes":[
		{
			"name":"Scene",
			"nodes":[
				16
			]
		}
	],
	"nodes":[
		{
			"name":"Hammer",
			"rotation":[
				0,
				-2.384189770054945e-07,
				0,
				1
			],
			"translation":[
				-4.532822117653268e-09,
				0.12497300654649734,
				0.019012002274394035
			]
		},
		{
			"name":"Magazine",
			"scale":[
				0.9999999403953552,
				1,
				0.9999999403953552
			],
			"translation":[
				0,
				7.450580596923828e-09,
				-7.450580596923828e-09
			]
		},
		{
			"children":[
				1
			],
			"name":"Cylinder",
			"scale":[
				0.9999999403953552,
				1,
				0.9999999403953552
			],
			"translation":[
				0,
				0.026561006903648376,
				-0.04394301027059555
			]
		},
		{
			"children":[
				2
			],
			"name":"CraneExtend",
			"scale":[
				1,
				0.9999999403953552,
				1
			],
			"translation":[
				0,
				0.01125500351190567,
				-0.007854998111724854
			]
		},
		{
			"children":[
				3
			],
			"name":"CraneRotate",
			"rotation":[
				0,
				-1.1920948850274726e-07,
				0,
				1
			],
			"translation":[
				-3.592377950667469e-08,
				0.08052700012922287,
				0.1506749987602234
			]
		},
		{
			"name":"MagRelease",
			"rotation":[
				0,
				-2.384189770054945e-07,
				0,
				1
			],
			"translation":[
				-1.1645575170859956e-08,
				0.09440699964761734,
				0.04884500056505203
			]
		},
		{
			"name":"Trigger",
			"rotation":[
				0,
				-3.5762798233918147e-07,
				0,
				1
			],
			"translation":[
				-1.697209484063933e-08,
				0.0696989968419075,
				0.07118600606918335
			]
		},
		{
			"children":[
				0,
				4,
				5,
				6
			],
			"name":"Pedestal",
			"rotation":[
				0,
				1.1920950271360198e-07,
				0,
				1
			]
		},
		{
			"mesh":0,
			"name":"Barrel",
			"skin":0
		},
		{
			"mesh":1,
			"name":"Barrel Decals",
			"skin":0
		},
		{
			"mesh":2,
			"name":"Cylinder",
			"skin":0
		},
		{
			"mesh":3,
			"name":"Grip",
			"skin":0
		},
		{
			"mesh":4,
			"name":"Hammer Orb 1",
			"skin":0
		},
		{
			"mesh":5,
			"name":"Hammer Orb 2",
			"skin":0
		},
		{
			"mesh":6,
			"name":"Reticle",
			"skin":0
		},
		{
			"mesh":7,
			"name":"Sights",
			"skin":0
		},
		{
			"children":[
				8,
				9,
				10,
				11,
				12,
				13,
				14,
				15,
				7
			],
			"name":"Armature",
			"scale":[
				2.8179233074188232,
				2.8179233074188232,
				2.8179233074188232
			]
		}
	],
	"materials":[
		{
			"doubleSided":true,
			"extensions":{
				"KHR_materials_clearcoat":{
					"clearcoatRoughnessFactor":0
				},
				"KHR_materials_specular":{
					"specularTexture":{
						"index":0
					}
				},
				"KHR_materials_ior":{
					"ior":0
				}
			},
			"name":"Barrel",
			"normalTexture":{
				"index":1
			},
			"pbrMetallicRoughness":{
				"baseColorTexture":{
					"index":2
				},
				"metallicRoughnessTexture":{
					"index":3
				}
			}
		},
		{
			"doubleSided":true,
			"extensions":{
				"KHR_materials_clearcoat":{
					"clearcoatRoughnessFactor":0
				},
				"KHR_materials_specular":{
					"specularTexture":{
						"index":4
					}
				},
				"KHR_materials_ior":{
					"ior":0
				}
			},
			"name":"Cylinder",
			"normalTexture":{
				"index":5
			},
			"pbrMetallicRoughness":{
				"baseColorTexture":{
					"index":6
				},
				"metallicRoughnessTexture":{
					"index":7
				}
			}
		},
		{
			"doubleSided":true,
			"extensions":{
				"KHR_materials_clearcoat":{
					"clearcoatRoughnessFactor":0
				},
				"KHR_materials_specular":{
					"specularTexture":{
						"index":8
					}
				},
				"KHR_materials_ior":{
					"ior":0
				}
			},
			"name":"Grip",
			"normalTexture":{
				"index":9
			},
			"pbrMetallicRoughness":{
				"baseColorTexture":{
					"index":10
				},
				"metallicRoughnessTexture":{
					"index":11
				}
			}
		},
		{
			"doubleSided":true,
			"emissiveFactor":[
				1,
				1,
				1
			],
			"name":"Hammer Orb 1",
			"pbrMetallicRoughness":{
				"baseColorFactor":[
					0,
					0,
					0,
					1
				]
			}
		},
		{
			"doubleSided":true,
			"emissiveFactor":[
				0.5,
				0.5,
				0.5
			],
			"name":"Hammer Orb 2",
			"pbrMetallicRoughness":{
				"baseColorFactor":[
					0,
					0,
					0,
					1
				]
			}
		},
		{
			"doubleSided":true,
			"emissiveFactor":[
				1,
				1,
				1
			],
			"emissiveTexture":{
				"index":12
			},
			"extensions":{
				"KHR_materials_emissive_strength":{
					"emissiveStrength":5
				}
			},
			"name":"Reticle",
			"pbrMetallicRoughness":{
				"baseColorFactor":[
					0,
					0,
					0,
					1
				]
			}
		},
		{
			"doubleSided":true,
			"extensions":{
				"KHR_materials_clearcoat":{
					"clearcoatRoughnessFactor":0
				},
				"KHR_materials_specular":{
					"specularTexture":{
						"index":13
					}
				},
				"KHR_materials_ior":{
					"ior":0
				}
			},
			"name":"Sights",
			"normalTexture":{
				"index":14
			},
			"pbrMetallicRoughness":{
				"baseColorTexture":{
					"index":15
				},
				"metallicRoughnessTexture":{
					"index":16
				}
			}
		}
	],
	"meshes":[
		{
			"name":"Midnight-Coup.00.000",
			"primitives":[
				{
					"attributes":{
						"POSITION":0,
						"NORMAL":1,
						"TEXCOORD_0":2,
						"TEXCOORD_1":3,
						"TEXCOORD_2":4,
						"TANGENT":5,
						"COLOR_0":6,
						"COLOR_1":7,
						"JOINTS_0":8,
						"WEIGHTS_0":9
					},
					"indices":10,
					"material":0
				}
			]
		},
		{
			"name":"Midnight-Coup.00.001",
			"primitives":[
				{
					"attributes":{
						"POSITION":12,
						"NORMAL":13,
						"TEXCOORD_0":14,
						"TEXCOORD_1":15,
						"TEXCOORD_2":16,
						"TANGENT":17,
						"COLOR_0":18,
						"COLOR_1":19,
						"JOINTS_0":20,
						"WEIGHTS_0":21
					},
					"indices":22,
					"material":0
				}
			]
		},
		{
			"name":"Midnight-Coup.02.000",
			"primitives":[
				{
					"attributes":{
						"POSITION":23,
						"NORMAL":24,
						"TEXCOORD_0":25,
						"TEXCOORD_1":26,
						"TEXCOORD_2":27,
						"TANGENT":28,
						"COLOR_0":29,
						"COLOR_1":30,
						"JOINTS_0":31,
						"WEIGHTS_0":32
					},
					"indices":33,
					"material":1
				}
			]
		},
		{
			"name":"Midnight-Coup.01.000",
			"primitives":[
				{
					"attributes":{
						"POSITION":34,
						"NORMAL":35,
						"TEXCOORD_0":36,
						"TEXCOORD_1":37,
						"TEXCOORD_2":38,
						"TANGENT":39,
						"COLOR_0":40,
						"COLOR_1":41,
						"JOINTS_0":42,
						"WEIGHTS_0":43
					},
					"indices":44,
					"material":2
				}
			]
		},
		{
			"name":"Midnight-Coup.01.001",
			"primitives":[
				{
					"attributes":{
						"POSITION":45,
						"NORMAL":46,
						"TEXCOORD_0":47,
						"TEXCOORD_1":48,
						"TEXCOORD_2":49,
						"TANGENT":50,
						"COLOR_0":51,
						"COLOR_1":52,
						"JOINTS_0":53,
						"WEIGHTS_0":54
					},
					"indices":55,
					"material":3
				}
			]
		},
		{
			"name":"Midnight-Coup.01.002",
			"primitives":[
				{
					"attributes":{
						"POSITION":56,
						"NORMAL":57,
						"TEXCOORD_0":58,
						"TEXCOORD_1":59,
						"TEXCOORD_2":60,
						"TANGENT":61,
						"COLOR_0":62,
						"COLOR_1":63,
						"JOINTS_0":64,
						"WEIGHTS_0":65
					},
					"indices":66,
					"material":4
				}
			]
		},
		{
			"name":"Midnight-Coup.04.000",
			"primitives":[
				{
					"attributes":{
						"POSITION":67,
						"NORMAL":68,
						"TEXCOORD_0":69,
						"TEXCOORD_1":70,
						"TEXCOORD_2":71,
						"TANGENT":72,
						"COLOR_0":73,
						"COLOR_1":74,
						"COLOR_2":75,
						"JOINTS_0":76,
						"WEIGHTS_0":77
					},
					"indices":78,
					"material":5
				}
			]
		},
		{
			"name":"Midnight-Coup.03.000",
			"primitives":[
				{
					"attributes":{
						"POSITION":79,
						"NORMAL":80,
						"TEXCOORD_0":81,
						"TEXCOORD_1":82,
						"TEXCOORD_2":83,
						"TANGENT":84,
						"COLOR_0":85,
						"COLOR_1":86,
						"JOINTS_0":87,
						"WEIGHTS_0":88
					},
					"indices":89,
					"material":6
				}
			]
		}
	],
	"textures":[
		{
			"sampler":0,
			"source":0
		},
		{
			"sampler":0,
			"source":0
		},
		{
			"sampler":0,
			"source":0
		},
		{
			"sampler":0,
			"source":1
		},
		{
			"sampler":0,
			"source":2
		},
		{
			"sampler":0,
			"source":2
		},
		{
			"sampler":0,
			"source":2
		},
		{
			"sampler":0,
			"source":3
		},
		{
			"sampler":0,
			"source":4
		},
		{
			"sampler":0,
			"source":4
		},
		{
			"sampler":0,
			"source":4
		},
		{
			"sampler":0,
			"source":5
		},
		{
			"sampler":0,
			"source":6
		},
		{
			"sampler":0,
			"source":7
		},
		{
			"sampler":0,
			"source":7
		},
		{
			"sampler":0,
			"source":7
		},
		{
			"sampler":0,
			"source":8
		}
	],
	"images":[
		{
			"mimeType":"image/png",
			"name":"a0b2eb80_GStack",
			"uri":"a0b2eb80_GStack.png"
		},
		{
			"mimeType":"image/png",
			"name":"a0b2eb80_GStack",
			"uri":"a0b2eb80_GStack-3.png"
		},
		{
			"mimeType":"image/png",
			"name":"20d0ea80_GStack",
			"uri":"20d0ea80_GStack.png"
		},
		{
			"mimeType":"image/png",
			"name":"20d0ea80_GStack",
			"uri":"20d0ea80_GStack-3.png"
		},
		{
			"mimeType":"image/png",
			"name":"17aaeb80_GStack",
			"uri":"17aaeb80_GStack.png"
		},
		{
			"mimeType":"image/png",
			"name":"17aaeb80_GStack",
			"uri":"17aaeb80_GStack-3.png"
		},
		{
			"mimeType":"image/png",
			"name":"2b38eb80_Diffuse",
			"uri":"2b38eb80_Diffuse.png"
		},
		{
			"mimeType":"image/png",
			"name":"abc8eb80_GStack",
			"uri":"abc8eb80_GStack.png"
		},
		{
			"mimeType":"image/png",
			"name":"abc8eb80_GStack",
			"uri":"abc8eb80_GStack-3.png"
		}
	],
	"skins":[
		{
			"inverseBindMatrices":11,
			"joints":[
				7,
				0,
				4,
				3,
				2,
				1,
				5,
				6
			],
			"name":"Armature"
		}
	],
	"accessors":[
		{
			"bufferView":0,
			"componentType":5126,
			"count":4029,
			"max":[
				0.061106666922569275,
				0.46891650557518005,
				1.4902982711791992
			],
			"min":[
				-0.061106666922569275,
				0.06307358294725418,
				0.12074801325798035
			],
			"type":"VEC3"
		},
		{
			"bufferView":1,
			"componentType":5126,
			"count":4029,
			"type":"VEC3"
		},
		{
			"bufferView":2,
			"componentType":5126,
			"count":4029,
			"type":"VEC2"
		},
		{
			"bufferView":3,
			"componentType":5126,
			"count":4029,
			"type":"VEC2"
		},
		{
			"bufferView":4,
			"componentType":5126,
			"count":4029,
			"type":"VEC2"
		},
		{
			"bufferView":5,
			"componentType":5126,
			"count":4029,
			"type":"VEC4"
		},
		{
			"bufferView":6,
			"componentType":5121,
			"count":4029,
			"normalized":true,
			"type":"VEC4"
		},
		{
			"bufferView":7,
			"componentType":5123,
			"count":4029,
			"normalized":true,
			"type":"VEC4"
		},
		{
			"bufferView":8,
			"componentType":5121,
			"count":4029,
			"type":"VEC4"
		},
		{
			"bufferView":9,
			"componentType":5126,
			"count":4029,
			"type":"VEC4"
		},
		{
			"bufferView":10,
			"componentType":5123,
			"count":9546,
			"type":"SCALAR"
		},
		{
			"bufferView":11,
			"componentType":5126,
			"count":8,
			"type":"MAT4"
		},
		{
			"bufferView":12,
			"componentType":5126,
			"count":2396,
			"max":[
				0.061627984046936035,
				0.45357856154441833,
				1.2690263986587524
			],
			"min":[
				-0.061627984046936035,
				0.13792888820171356,
				0.5009732246398926
			],
			"type":"VEC3"
		},
		{
			"bufferView":13,
			"componentType":5126,
			"count":2396,
			"type":"VEC3"
		},
		{
			"bufferView":14,
			"componentType":5126,
			"count":2396,
			"type":"VEC2"
		},
		{
			"bufferView":15,
			"componentType":5126,
			"count":2396,
			"type":"VEC2"
		},
		{
			"bufferView":16,
			"componentType":5126,
			"count":2396,
			"type":"VEC2"
		},
		{
			"bufferView":17,
			"componentType":5126,
			"count":2396,
			"type":"VEC4"
		},
		{
			"bufferView":18,
			"componentType":5121,
			"count":2396,
			"normalized":true,
			"type":"VEC4"
		},
		{
			"bufferView":19,
			"componentType":5123,
			"count":2396,
			"normalized":true,
			"type":"VEC4"
		},
		{
			"bufferView":20,
			"componentType":5121,
			"count":2396,
			"type":"VEC4"
		},
		{
			"bufferView":21,
			"componentType":5126,
			"count":2396,
			"type":"VEC4"
		},
		{
			"bufferView":22,
			"componentType":5123,
			"count":4062,
			"type":"SCALAR"
		},
		{
			"bufferView":23,
			"componentType":5126,
			"count":4371,
			"max":[
				0.07987967133522034,
				0.41310471296310425,
				0.4014047086238861
			],
			"min":[
				-0.07987967133522034,
				0.2144242525100708,
				0.16520075500011444
			],
			"type":"VEC3"
		},
		{
			"bufferView":24,
			"componentType":5126,
			"count":4371,
			"type":"VEC3"
		},
		{
			"bufferView":25,
			"componentType":5126,
			"count":4371,
			"type":"VEC2"
		},
		{
			"bufferView":26,
			"componentType":5126,
			"count":4371,
			"type":"VEC2"
		},
		{
			"bufferView":27,
			"componentType":5126,
			"count":4371,
			"type":"VEC2"
		},
		{
			"bufferView":28,
			"componentType":5126,
			"count":4371,
			"type":"VEC4"
		},
		{
			"bufferView":29,
			"componentType":5121,
			"count":4371,
			"normalized":true,
			"type":"VEC4"
		},
		{
			"bufferView":30,
			"componentType":5123,
			"count":4371,
			"normalized":true,
			"type":"VEC4"
		},
		{
			"bufferView":31,
			"componentType":5121,
			"count":4371,
			"type":"VEC4"
		},
		{
			"bufferView":32,
			"componentType":5126,
			"count":4371,
			"type":"VEC4"
		},
		{
			"bufferView":33,
			"componentType":5123,
			"count":10362,
			"type":"SCALAR"
		},
		{
			"bufferView":34,
			"componentType":5126,
			"count":2293,
			"max":[
				0.08049116283655167,
				0.43960729241371155,
				0.4015878736972809
			],
			"min":[
				-0.08049116283655167,
				-0.13607187569141388,
				-0.15216785669326782
			],
			"type":"VEC3"
		},
		{
			"bufferView":35,
			"componentType":5126,
			"count":2293,
			"type":"VEC3"
		},
		{
			"bufferView":36,
			"componentType":5126,
			"count":2293,
			"type":"VEC2"
		},
		{
			"bufferView":37,
			"componentType":5126,
			"count":2293,
			"type":"VEC2"
		},
		{
			"bufferView":38,
			"componentType":5126,
			"count":2293,
			"type":"VEC2"
		},
		{
			"bufferView":39,
			"componentType":5126,
			"count":2293,
			"type":"VEC4"
		},
		{
			"bufferView":40,
			"componentType":5121,
			"count":2293,
			"normalized":true,
			"type":"VEC4"
		},
		{
			"bufferView":41,
			"componentType":5123,
			"count":2293,
			"normalized":true,
			"type":"VEC4"
		},
		{
			"bufferView":42,
			"componentType":5121,
			"count":2293,
			"type":"VEC4"
		},
		{
			"bufferView":43,
			"componentType":5126,
			"count":2293,
			"type":"VEC4"
		},
		{
			"bufferView":44,
			"componentType":5123,
			"count":6546,
			"type":"SCALAR"
		},
		{
			"bufferView":45,
			"componentType":5126,
			"count":172,
			"max":[
				0.014644746668636799,
				0.4214063286781311,
				0.05440846458077431
			],
			"min":[
				-0.014644746668636799,
				0.39253953099250793,
				0.02899361401796341
			],
			"type":"VEC3"
		},
		{
			"bufferView":46,
			"componentType":5126,
			"count":172,
			"type":"VEC3"
		},
		{
			"bufferView":47,
			"componentType":5126,
			"count":172,
			"type":"VEC2"
		},
		{
			"bufferView":48,
			"componentType":5126,
			"count":172,
			"type":"VEC2"
		},
		{
			"bufferView":49,
			"componentType":5126,
			"count":172,
			"type":"VEC2"
		},
		{
			"bufferView":50,
			"componentType":5126,
			"count":172,
			"type":"VEC4"
		},
		{
			"bufferView":51,
			"componentType":5121,
			"count":172,
			"normalized":true,
			"type":"VEC4"
		},
		{
			"bufferView":52,
			"componentType":5123,
			"count":172,
			"normalized":true,
			"type":"VEC4"
		},
		{
			"bufferView":53,
			"componentType":5121,
			"count":172,
			"type":"VEC4"
		},
		{
			"bufferView":54,
			"componentType":5126,
			"count":172,
			"type":"VEC4"
		},
		{
			"bufferView":55,
			"componentType":5123,
			"count":852,
			"type":"SCALAR"
		},
		{
			"bufferView":56,
			"componentType":5126,
			"count":159,
			"max":[
				0.014222059398889542,
				0.4209836721420288,
				0.05403931438922882
			],
			"min":[
				-0.014222059398889542,
				0.3929537832736969,
				0.029362760484218597
			],
			"type":"VEC3"
		},
		{
			"bufferView":57,
			"componentType":5126,
			"count":159,
			"type":"VEC3"
		},
		{
			"bufferView":58,
			"componentType":5126,
			"count":159,
			"type":"VEC2"
		},
		{
			"bufferView":59,
			"componentType":5126,
			"count":159,
			"type":"VEC2"
		},
		{
			"bufferView":60,
			"componentType":5126,
			"count":159,
			"type":"VEC2"
		},
		{
			"bufferView":61,
			"componentType":5126,
			"count":159,
			"type":"VEC4"
		},
		{
			"bufferView":62,
			"componentType":5121,
			"count":159,
			"normalized":true,
			"type":"VEC4"
		},
		{
			"bufferView":63,
			"componentType":5123,
			"count":159,
			"normalized":true,
			"type":"VEC4"
		},
		{
			"bufferView":64,
			"componentType":5121,
			"count":159,
			"type":"VEC4"
		},
		{
			"bufferView":65,
			"componentType":5126,
			"count":159,
			"type":"VEC4"
		},
		{
			"bufferView":66,
			"componentType":5123,
			"count":852,
			"type":"SCALAR"
		},
		{
			"bufferView":67,
			"componentType":5126,
			"count":20,
			"max":[
				0.03914940729737282,
				0.512523889541626,
				0.2539343237876892
			],
			"min":[
				-0.03914940729737282,
				0.48042774200439453,
				0.23152059316635132
			],
			"type":"VEC3"
		},
		{
			"bufferView":68,
			"componentType":5126,
			"count":20,
			"type":"VEC3"
		},
		{
			"bufferView":69,
			"componentType":5126,
			"count":20,
			"type":"VEC2"
		},
		{
			"bufferView":70,
			"componentType":5126,
			"count":20,
			"type":"VEC2"
		},
		{
			"bufferView":71,
			"componentType":5126,
			"count":20,
			"type":"VEC2"
		},
		{
			"bufferView":72,
			"componentType":5126,
			"count":20,
			"type":"VEC4"
		},
		{
			"bufferView":73,
			"componentType":5121,
			"count":20,
			"normalized":true,
			"type":"VEC4"
		},
		{
			"bufferView":74,
			"componentType":5123,
			"count":20,
			"normalized":true,
			"type":"VEC4"
		},
		{
			"bufferView":75,
			"componentType":5123,
			"count":20,
			"normalized":true,
			"type":"VEC4"
		},
		{
			"bufferView":76,
			"componentType":5121,
			"count":20,
			"type":"VEC4"
		},
		{
			"bufferView":77,
			"componentType":5126,
			"count":20,
			"type":"VEC4"
		},
		{
			"bufferView":78,
			"componentType":5123,
			"count":36,
			"type":"SCALAR"
		},
		{
			"bufferView":79,
			"componentType":5126,
			"count":230,
			"max":[
				0.027367671951651573,
				0.4806785583496094,
				0.3350679874420166
			],
			"min":[
				-0.027367671951651573,
				0.4628354609012604,
				0.14856654405593872
			],
			"type":"VEC3"
		},
		{
			"bufferView":80,
			"componentType":5126,
			"count":230,
			"type":"VEC3"
		},
		{
			"bufferView":81,
			"componentType":5126,
			"count":230,
			"type":"VEC2"
		},
		{
			"bufferView":82,
			"componentType":5126,
			"count":230,
			"type":"VEC2"
		},
		{
			"bufferView":83,
			"componentType":5126,
			"count":230,
			"type":"VEC2"
		},
		{
			"bufferView":84,
			"componentType":5126,
			"count":230,
			"type":"VEC4"
		},
		{
			"bufferView":85,
			"componentType":5121,
			"count":230,
			"normalized":true,
			"type":"VEC4"
		},
		{
			"bufferView":86,
			"componentType":5123,
			"count":230,
			"normalized":true,
			"type":"VEC4"
		},
		{
			"bufferView":87,
			"componentType":5121,
			"count":230,
			"type":"VEC4"
		},
		{
			"bufferView":88,
			"componentType":5126,
			"count":230,
			"type":"VEC4"
		},
		{
			"bufferView":89,
			"componentType":5123,
			"count":534,
			"type":"SCALAR"
		}
	],
	"bufferViews":[
		{
			"buffer":0,
			"byteLength":48348,
			"byteOffset":0,
			"target":34962
		},
		{
			"buffer":0,
			"byteLength":48348,
			"byteOffset":48348,
			"target":34962
		},
		{
			"buffer":0,
			"byteLength":32232,
			"byteOffset":96696,
			"target":34962
		},
		{
			"buffer":0,
			"byteLength":32232,
			"byteOffset":128928,
			"target":34962
		},
		{
			"buffer":0,
			"byteLength":32232,
			"byteOffset":161160,
			"target":34962
		},
		{
			"buffer":0,
			"byteLength":64464,
			"byteOffset":193392,
			"target":34962
		},
		{
			"buffer":0,
			"byteLength":16116,
			"byteOffset":257856,
			"target":34962
		},
		{
			"buffer":0,
			"byteLength":32232,
			"byteOffset":273972,
			"target":34962
		},
		{
			"buffer":0,
			"byteLength":16116,
			"byteOffset":306204,
			"target":34962
		},
		{
			"buffer":0,
			"byteLength":64464,
			"byteOffset":322320,
			"target":34962
		},
		{
			"buffer":0,
			"byteLength":19092,
			"byteOffset":386784,
			"target":34963
		},
		{
			"buffer":0,
			"byteLength":512,
			"byteOffset":405876
		},
		{
			"buffer":0,
			"byteLength":28752,
			"byteOffset":406388,
			"target":34962
		},
		{
			"buffer":0,
			"byteLength":28752,
			"byteOffset":435140,
			"target":34962
		},
		{
			"buffer":0,
			"byteLength":19168,
			"byteOffset":463892,
			"target":34962
		},
		{
			"buffer":0,
			"byteLength":19168,
			"byteOffset":483060,
			"target":34962
		},
		{
			"buffer":0,
			"byteLength":19168,
			"byteOffset":502228,
			"target":34962
		},
		{
			"buffer":0,
			"byteLength":38336,
			"byteOffset":521396,
			"target":34962
		},
		{
			"buffer":0,
			"byteLength":9584,
			"byteOffset":559732,
			"target":34962
		},
		{
			"buffer":0,
			"byteLength":19168,
			"byteOffset":569316,
			"target":34962
		},
		{
			"buffer":0,
			"byteLength":9584,
			"byteOffset":588484,
			"target":34962
		},
		{
			"buffer":0,
			"byteLength":38336,
			"byteOffset":598068,
			"target":34962
		},
		{
			"buffer":0,
			"byteLength":8124,
			"byteOffset":636404,
			"target":34963
		},
		{
			"buffer":0,
			"byteLength":52452,
			"byteOffset":644528,
			"target":34962
		},
		{
			"buffer":0,
			"byteLength":52452,
			"byteOffset":696980,
			"target":34962
		},
		{
			"buffer":0,
			"byteLength":34968,
			"byteOffset":749432,
			"target":34962
		},
		{
			"buffer":0,
			"byteLength":34968,
			"byteOffset":784400,
			"target":34962
		},
		{
			"buffer":0,
			"byteLength":34968,
			"byteOffset":819368,
			"target":34962
		},
		{
			"buffer":0,
			"byteLength":69936,
			"byteOffset":854336,
			"target":34962
		},
		{
			"buffer":0,
			"byteLength":17484,
			"byteOffset":924272,
			"target":34962
		},
		{
			"buffer":0,
			"byteLength":34968,
			"byteOffset":941756,
			"target":34962
		},
		{
			"buffer":0,
			"byteLength":17484,
			"byteOffset":976724,
			"target":34962
		},
		{
			"buffer":0,
			"byteLength":69936,
			"byteOffset":994208,
			"target":34962
		},
		{
			"buffer":0,
			"byteLength":20724,
			"byteOffset":1064144,
			"target":34963
		},
		{
			"buffer":0,
			"byteLength":27516,
			"byteOffset":1084868,
			"target":34962
		},
		{
			"buffer":0,
			"byteLength":27516,
			"byteOffset":1112384,
			"target":34962
		},
		{
			"buffer":0,
			"byteLength":18344,
			"byteOffset":1139900,
			"target":34962
		},
		{
			"buffer":0,
			"byteLength":18344,
			"byteOffset":1158244,
			"target":34962
		},
		{
			"buffer":0,
			"byteLength":18344,
			"byteOffset":1176588,
			"target":34962
		},
		{
			"buffer":0,
			"byteLength":36688,
			"byteOffset":1194932,
			"target":34962
		},
		{
			"buffer":0,
			"byteLength":9172,
			"byteOffset":1231620,
			"target":34962
		},
		{
			"buffer":0,
			"byteLength":18344,
			"byteOffset":1240792,
			"target":34962
		},
		{
			"buffer":0,
			"byteLength":9172,
			"byteOffset":1259136,
			"target":34962
		},
		{
			"buffer":0,
			"byteLength":36688,
			"byteOffset":1268308,
			"target":34962
		},
		{
			"buffer":0,
			"byteLength":13092,
			"byteOffset":1304996,
			"target":34963
		},
		{
			"buffer":0,
			"byteLength":2064,
			"byteOffset":1318088,
			"target":34962
		},
		{
			"buffer":0,
			"byteLength":2064,
			"byteOffset":1320152,
			"target":34962
		},
		{
			"buffer":0,
			"byteLength":1376,
			"byteOffset":1322216,
			"target":34962
		},
		{
			"buffer":0,
			"byteLength":1376,
			"byteOffset":1323592,
			"target":34962
		},
		{
			"buffer":0,
			"byteLength":1376,
			"byteOffset":1324968,
			"target":34962
		},
		{
			"buffer":0,
			"byteLength":2752,
			"byteOffset":1326344,
			"target":34962
		},
		{
			"buffer":0,
			"byteLength":688,
			"byteOffset":1329096,
			"target":34962
		},
		{
			"buffer":0,
			"byteLength":1376,
			"byteOffset":1329784,
			"target":34962
		},
		{
			"buffer":0,
			"byteLength":688,
			"byteOffset":1331160,
			"target":34962
		},
		{
			"buffer":0,
			"byteLength":2752,
			"byteOffset":1331848,
			"target":34962
		},
		{
			"buffer":0,
			"byteLength":1704,
			"byteOffset":1334600,
			"target":34963
		},
		{
			"buffer":0,
			"byteLength":1908,
			"byteOffset":1336304,
			"target":34962
		},
		{
			"buffer":0,
			"byteLength":1908,
			"byteOffset":1338212,
			"target":34962
		},
		{
			"buffer":0,
			"byteLength":1272,
			"byteOffset":1340120,
			"target":34962
		},
		{
			"buffer":0,
			"byteLength":1272,
			"byteOffset":1341392,
			"target":34962
		},
		{
			"buffer":0,
			"byteLength":1272,
			"byteOffset":1342664,
			"target":34962
		},
		{
			"buffer":0,
			"byteLength":2544,
			"byteOffset":1343936,
			"target":34962
		},
		{
			"buffer":0,
			"byteLength":636,
			"byteOffset":1346480,
			"target":34962
		},
		{
			"buffer":0,
			"byteLength":1272,
			"byteOffset":1347116,
			"target":34962
		},
		{
			"buffer":0,
			"byteLength":636,
			"byteOffset":1348388,
			"target":34962
		},
		{
			"buffer":0,
			"byteLength":2544,
			"byteOffset":1349024,
			"target":34962
		},
		{
			"buffer":0,
			"byteLength":1704,
			"byteOffset":1351568,
			"target":34963
		},
		{
			"buffer":0,
			"byteLength":240,
			"byteOffset":1353272,
			"target":34962
		},
		{
			"buffer":0,
			"byteLength":240,
			"byteOffset":1353512,
			"target":34962
		},
		{
			"buffer":0,
			"byteLength":160,
			"byteOffset":1353752,
			"target":34962
		},
		{
			"buffer":0,
			"byteLength":160,
			"byteOffset":1353912,
			"target":34962
		},
		{
			"buffer":0,
			"byteLength":160,
			"byteOffset":1354072,
			"target":34962
		},
		{
			"buffer":0,
			"byteLength":320,
			"byteOffset":1354232,
			"target":34962
		},
		{
			"buffer":0,
			"byteLength":80,
			"byteOffset":1354552,
			"target":34962
		},
		{
			"buffer":0,
			"byteLength":160,
			"byteOffset":1354632,
			"target":34962
		},
		{
			"buffer":0,
			"byteLength":160,
			"byteOffset":1354792,
			"target":34962
		},
		{
			"buffer":0,
			"byteLength":80,
			"byteOffset":1354952,
			"target":34962
		},
		{
			"buffer":0,
			"byteLength":320,
			"byteOffset":1355032,
			"target":34962
		},
		{
			"buffer":0,
			"byteLength":72,
			"byteOffset":1355352,
			"target":34963
		},
		{
			"buffer":0,
			"byteLength":2760,
			"byteOffset":1355424,
			"target":34962
		},
		{
			"buffer":0,
			"byteLength":2760,
			"byteOffset":1358184,
			"target":34962
		},
		{
			"buffer":0,
			"byteLength":1840,
			"byteOffset":1360944,
			"target":34962
		},
		{
			"buffer":0,
			"byteLength":1840,
			"byteOffset":1362784,
			"target":34962
		},
		{
			"buffer":0,
			"byteLength":1840,
			"byteOffset":1364624,
			"target":34962
		},
		{
			"buffer":0,
			"byteLength":3680,
			"byteOffset":1366464,
			"target":34962
		},
		{
			"buffer":0,
			"byteLength":920,
			"byteOffset":1370144,
			"target":34962
		},
		{
			"buffer":0,
			"byteLength":1840,
			"byteOffset":1371064,
			"target":34962
		},
		{
			"buffer":0,
			"byteLength":920,
			"byteOffset":1372904,
			"target":34962
		},
		{
			"buffer":0,
			"byteLength":3680,
			"byteOffset":1373824,
			"target":34962
		},
		{
			"buffer":0,
			"byteLength":1068,
			"byteOffset":1377504,
			"target":34963
		}
	],
	"samplers":[
		{
			"magFilter":9729,
			"minFilter":9987
		}
	],
	"buffers":[
		{
			"byteLength":1378572,
			"uri":"midnight_coup.bin"
		}
	]
}
