{
	"asset":{
		"generator":"Khronos glTF Blender I/O v4.5.48",
		"version":"2.0"
	},
	"scene":0,
	"scenes":[
		{
			"name":"Scene",
			"nodes":[
				114
			]
		}
	],
	"nodes":[
		{
			"name":"b_l_toe",
			"rotation":[
				8.881785255792436e-16,
				-3.552713678800501e-15,
				2.4815414432286304e-24,
				1
			],
			"scale":[
				1,
				0.9999999403953552,
				1
			],
			"translation":[
				0.02484697662293911,
				-0.09466392546892166,
				0.14091496169567108
			]
		},
		{
			"children":[
				0
			],
			"name":"b_l_foot",
			"rotation":[
				8.881785255792436e-16,
				2.1266730598767936e-08,
				2.936491174563248e-23,
				1
			],
			"scale":[
				1,
				0.9999999403953552,
				1
			],
			"translation":[
				0.02585897035896778,
				-0.42731890082359314,
				-0.07258399575948715
			]
		},
		{
			"children":[
				1
			],
			"name":"b_l_calf",
			"rotation":[
				-2.144866506625931e-09,
				-2.2921504694295436e-08,
				4.916348301581165e-17,
				1
			],
			"scale":[
				1,
				0.9999999403953552,
				1
			],
			"translation":[
				0.034922000020742416,
				-0.45135796070098877,
				0.001570005202665925
			]
		},
		{
			"children":[
				2
			],
			"name":"b_l_thigh",
			"rotation":[
				2.0572188397238733e-09,
				2.2376616115593606e-08,
				4.60335506919192e-17,
				1
			],
			"scale":[
				1,
				0.9999999403953552,
				1
			],
			"translation":[
				0.11189998686313629,
				-0.03008711338043213,
				0.01830499991774559
			]
		},
		{
			"name":"b_r_toe",
			"rotation":[
				8.881785255792436e-16,
				1.2538179682270823e-23,
				9.305781891221561e-24,
				1
			],
			"scale":[
				1,
				0.9999999403953552,
				1
			],
			"translation":[
				-0.024846991524100304,
				-0.09466395527124405,
				0.14091593027114868
			]
		},
		{
			"children":[
				4
			],
			"name":"b_r_foot",
			"rotation":[
				8.881785255792436e-16,
				8.435746323698368e-09,
				3.5775561492918447e-23,
				1
			],
			"scale":[
				1,
				0.9999999403953552,
				1
			],
			"translation":[
				-0.025858966633677483,
				-0.42731890082359314,
				-0.07258399575948715
			]
		},
		{
			"children":[
				5
			],
			"name":"b_r_calf",
			"rotation":[
				-2.144866506625931e-09,
				-2.2921504694295436e-08,
				4.916348301581165e-17,
				1
			],
			"scale":[
				1,
				0.9999999403953552,
				1
			],
			"translation":[
				-0.03492199257016182,
				-0.45135796070098877,
				0.0015700026415288448
			]
		},
		{
			"children":[
				6
			],
			"name":"b_r_thigh",
			"rotation":[
				2.0572188397238733e-09,
				2.2376616115593606e-08,
				4.60335506919192e-17,
				1
			],
			"scale":[
				1,
				0.9999999403953552,
				1
			],
			"translation":[
				-0.11189998686313629,
				-0.03008711338043213,
				0.018304988741874695
			]
		},
		{
			"name":"b_l_grip",
			"rotation":[
				0,
				1.232595164407831e-32,
				-6.310887241768095e-30,
				1
			],
			"scale":[
				1,
				0.9999999403953552,
				1
			],
			"translation":[
				-0.010107964277267456,
				-0.08554993569850922,
				0.07637691497802734
			]
		},
		{
			"name":"b_l_index_3",
			"rotation":[
				0,
				1.232595164407831e-32,
				-5.293955920339377e-23,
				1
			],
			"translation":[
				-0.008274048566818237,
				-0.01802884042263031,
				0.019268929958343506
			]
		},
		{
			"children":[
				9
			],
			"name":"b_l_index_2",
			"rotation":[
				0,
				1.232595164407831e-32,
				5.293955920339377e-23,
				1
			],
			"scale":[
				1,
				0.9999998807907104,
				1
			],
			"translation":[
				0.003233969211578369,
				-0.017265185713768005,
				0.04035705327987671
			]
		},
		{
			"children":[
				10
			],
			"name":"b_l_index_1",
			"rotation":[
				0,
				1.232595164407831e-32,
				-6.310887241768095e-30,
				1
			],
			"scale":[
				1,
				0.9999999403953552,
				1
			],
			"translation":[
				0.01246306300163269,
				-0.03508983552455902,
				0.10092496871948242
			]
		},
		{
			"name":"b_l_middle_3",
			"rotation":[
				0,
				1.232595164407831e-32,
				-6.310887241768095e-30,
				1
			],
			"scale":[
				1,
				0.9999999403953552,
				1
			],
			"translation":[
				-0.014005929231643677,
				-0.02178417146205902,
				0.014713972806930542
			]
		},
		{
			"children":[
				12
			],
			"name":"b_l_middle_2",
			"rotation":[
				0,
				1.232595164407831e-32,
				-6.310887241768095e-30,
				1
			],
			"scale":[
				1,
				0.9999999403953552,
				1
			],
			"translation":[
				0.0030539631843566895,
				-0.028653964400291443,
				0.03963896632194519
			]
		},
		{
			"children":[
				13
			],
			"name":"b_l_middle_1",
			"rotation":[
				0,
				1.232595164407831e-32,
				-6.310887241768095e-30,
				1
			],
			"scale":[
				1,
				0.9999999403953552,
				1
			],
			"translation":[
				0.027340024709701538,
				-0.05035983398556709,
				0.08896598219871521
			]
		},
		{
			"name":"b_l_pinky_3",
			"rotation":[
				0,
				1.232595164407831e-32,
				-6.310887241768095e-30,
				1
			],
			"scale":[
				1,
				0.9999999403953552,
				1
			],
			"translation":[
				-0.016670048236846924,
				-0.013495313003659248,
				0.005919992923736572
			]
		},
		{
			"children":[
				15
			],
			"name":"b_l_pinky_2",
			"rotation":[
				0,
				1.232595164407831e-32,
				-6.310887241768095e-30,
				1
			],
			"scale":[
				1,
				0.9999999403953552,
				1
			],
			"translation":[
				-0.007261037826538086,
				-0.030634867027401924,
				0.02070397138595581
			]
		},
		{
			"children":[
				16
			],
			"name":"b_l_pinky_1",
			"rotation":[
				0,
				1.232595164407831e-32,
				-6.310887241768095e-30,
				1
			],
			"scale":[
				1,
				0.9999999403953552,
				1
			],
			"translation":[
				0.03530299663543701,
				-0.07847987115383148,
				0.057735949754714966
			]
		},
		{
			"name":"b_l_ring_3",
			"rotation":[
				0,
				1.232595164407831e-32,
				-6.310887241768095e-30,
				1
			],
			"scale":[
				1,
				0.9999999403953552,
				1
			],
			"translation":[
				-0.019611001014709473,
				-0.01927994377911091,
				0.008944064378738403
			]
		},
		{
			"children":[
				18
			],
			"name":"b_l_ring_2",
			"rotation":[
				0,
				1.232595164407831e-32,
				-6.310887241768095e-30,
				1
			],
			"scale":[
				1,
				0.9999999403953552,
				1
			],
			"translation":[
				-0.0016370117664337158,
				-0.03376387059688568,
				0.03197401762008667
			]
		},
		{
			"children":[
				19
			],
			"name":"b_l_ring_1",
			"rotation":[
				0,
				1.232595164407831e-32,
				-6.310887241768095e-30,
				1
			],
			"scale":[
				1,
				0.9999999403953552,
				1
			],
			"translation":[
				0.03208306431770325,
				-0.06502996385097504,
				0.07424396276473999
			]
		},
		{
			"name":"b_l_thumb_3",
			"rotation":[
				0,
				1.232595164407831e-32,
				-6.310887241768095e-30,
				1
			],
			"scale":[
				1,
				0.9999999403953552,
				1
			],
			"translation":[
				-0.009153038263320923,
				-0.015742050483822823,
				0.025844871997833252
			]
		},
		{
			"children":[
				21
			],
			"name":"b_l_thumb_2",
			"rotation":[
				7.975831824778595e-23,
				-8.429368847373553e-08,
				3.8463898483715787e-23,
				1
			],
			"scale":[
				1,
				0.9999999403953552,
				1
			],
			"translation":[
				-0.01772901602089405,
				-0.019028054550290108,
				0.044013023376464844
			]
		},
		{
			"children":[
				22
			],
			"name":"b_l_thumb_1",
			"rotation":[
				-1.4889251025954498e-22,
				8.429369557916289e-08,
				-6.310887241768095e-30,
				1
			],
			"scale":[
				1,
				0.9999999403953552,
				1
			],
			"translation":[
				-0.02559596300125122,
				-0.0007899889606051147,
				0.03152194619178772
			]
		},
		{
			"children":[
				8,
				11,
				14,
				17,
				20,
				23
			],
			"name":"b_l_hand",
			"rotation":[
				1.980709983924548e-23,
				-2.0931810951196894e-08,
				1.613001878934042e-23,
				1
			],
			"scale":[
				1,
				0.9999999403953552,
				1
			],
			"translation":[
				0.06755398213863373,
				-0.11792933195829391,
				0.21507593989372253
			]
		},
		{
			"name":"b_l_wrist_twist_fixup",
			"rotation":[
				1.980709983924548e-23,
				-2.0931810951196894e-08,
				1.613001878934042e-23,
				1
			],
			"scale":[
				1,
				0.9999999403953552,
				1
			],
			"translation":[
				0.06728796660900116,
				-0.11746608465909958,
				0.21422988176345825
			]
		},
		{
			"children":[
				24,
				25
			],
			"name":"b_l_forearm",
			"rotation":[
				1.4700208161855244e-08,
				-1.731237375679484e-09,
				-2.5449548269063782e-17,
				1
			],
			"scale":[
				1,
				0.9999999403953552,
				1
			],
			"translation":[
				0.13847999274730682,
				-0.21091794967651367,
				0.10347495973110199
			]
		},
		{
			"name":"b_l_shoulder_twist_fixup",
			"rotation":[
				-2.347867456009567e-09,
				1.479117037188656e-23,
				1.6543612251060553e-23,
				1
			],
			"scale":[
				1,
				0.9999999403953552,
				1
			],
			"translation":[
				0.0005079966504126787,
				-0.0007730723591521382,
				0.0003789999464061111
			]
		},
		{
			"children":[
				26,
				27
			],
			"name":"b_l_upperarm",
			"rotation":[
				3.4150788863485104e-09,
				-1.375171976292222e-09,
				-4.696304692880014e-18,
				1
			],
			"scale":[
				1,
				0.9999999403953552,
				1
			],
			"translation":[
				0.1441350132226944,
				-0.019820094108581543,
				-0.030527984723448753
			]
		},
		{
			"children":[
				28
			],
			"name":"b_l_clav",
			"rotation":[
				-1.5662007246675103e-09,
				9.633183140067558e-12,
				-1.5032353271926172e-20,
				1
			],
			"scale":[
				1,
				0.9999999403953552,
				1
			],
			"translation":[
				0.04160299152135849,
				0.21518802642822266,
				0.005960993468761444
			]
		},
		{
			"name":"b_l_lower_lip_corner",
			"rotation":[
				-1.776357262916724e-15,
				1.5203175607325647e-08,
				2.6469779601696886e-22,
				1
			],
			"scale":[
				1,
				0.9999999403953552,
				1
			],
			"translation":[
				0.016663992777466774,
				-0.02354205958545208,
				0.11917296797037125
			]
		},
		{
			"name":"b_r_lower_lip_corner",
			"rotation":[
				-1.776357262916724e-15,
				1.5203175607325647e-08,
				2.6469779601696886e-22,
				1
			],
			"scale":[
				1,
				0.9999999403953552,
				1
			],
			"translation":[
				-0.01666400209069252,
				-0.02354205958545208,
				0.11917296797037125
			]
		},
		{
			"children":[
				30,
				31
			],
			"name":"b_jaw",
			"rotation":[
				2.6584547896391086e-08,
				-8.549610797103924e-09,
				-1.5854836822088878e-15,
				1
			],
			"scale":[
				1,
				0.9999999403953552,
				1
			],
			"translation":[
				7.202951013418613e-10,
				0.0019301200518384576,
				-0.010715997777879238
			]
		},
		{
			"name":"b_l_brow_1",
			"rotation":[
				3.552713467042264e-15,
				-3.360839428978579e-08,
				0,
				1
			],
			"scale":[
				1,
				0.9999999403953552,
				1
			],
			"translation":[
				0.014919989742338657,
				0.07179615646600723,
				0.12245595455169678
			]
		},
		{
			"name":"b_l_eye",
			"rotation":[
				3.4213192634524603e-07,
				-3.3608390737072114e-08,
				-1.1498503599196176e-14,
				1
			],
			"scale":[
				1,
				0.9999998807907104,
				1
			],
			"translation":[
				0.033590979874134064,
				0.05505393445491791,
				0.09063196182250977
			]
		},
		{
			"name":"b_l_upper_eyelid",
			"rotation":[
				3.4213192634524603e-07,
				-3.3608390737072114e-08,
				-1.1498503599196176e-14,
				1
			],
			"scale":[
				1,
				0.9999998807907104,
				1
			],
			"translation":[
				0.033590979874134064,
				0.05555497109889984,
				0.09063196182250977
			]
		},
		{
			"name":"b_l_upper_lip_corner",
			"rotation":[
				3.421320116103743e-07,
				-3.360839428978579e-08,
				-1.1498503599196176e-14,
				1
			],
			"scale":[
				1,
				0.9999999403953552,
				1
			],
			"translation":[
				0.016834992915391922,
				-0.012843864969909191,
				0.10949098318815231
			]
		},
		{
			"name":"b_r_brow_1",
			"rotation":[
				3.552713467042264e-15,
				-3.360839428978579e-08,
				0,
				1
			],
			"scale":[
				1,
				0.9999999403953552,
				1
			],
			"translation":[
				-0.014920006506145,
				0.07179615646600723,
				0.12245595455169678
			]
		},
		{
			"name":"b_r_eye",
			"rotation":[
				3.4213192634524603e-07,
				-3.3608390737072114e-08,
				-1.1498503599196176e-14,
				1
			],
			"scale":[
				1,
				0.9999998807907104,
				1
			],
			"translation":[
				-0.03359099477529526,
				0.05505393445491791,
				0.09063196927309036
			]
		},
		{
			"name":"b_r_upper_eyelid",
			"rotation":[
				3.4213192634524603e-07,
				-3.3608390737072114e-08,
				-1.1498503599196176e-14,
				1
			],
			"scale":[
				1,
				0.9999998807907104,
				1
			],
			"translation":[
				-0.03359099477529526,
				0.05555497109889984,
				0.09063196927309036
			]
		},
		{
			"name":"b_r_upper_lip_corner",
			"rotation":[
				3.421320116103743e-07,
				-3.360839428978579e-08,
				-1.1498503599196176e-14,
				1
			],
			"scale":[
				1,
				0.9999999403953552,
				1
			],
			"translation":[
				-0.016835007816553116,
				-0.012843864969909191,
				0.10949099063873291
			]
		},
		{
			"children":[
				32,
				33,
				34,
				35,
				36,
				37,
				38,
				39,
				40
			],
			"name":"b_head",
			"rotation":[
				-8.553301000802094e-08,
				7.164802084957955e-09,
				1.936255484018181e-15,
				1
			],
			"scale":[
				1,
				0.9999999403953552,
				1
			],
			"translation":[
				-6.922403206210959e-10,
				0.048056840896606445,
				0.013088996522128582
			]
		},
		{
			"children":[
				41
			],
			"name":"b_neck_2",
			"rotation":[
				-8.881784197001252e-16,
				-1.853356579317733e-08,
				-1.1145152582062493e-15,
				1
			],
			"scale":[
				1,
				0.9999999403953552,
				1
			],
			"translation":[
				-1.1773223507205444e-09,
				0.048056840896606445,
				0.01308799721300602
			]
		},
		{
			"children":[
				42
			],
			"name":"b_neck_1",
			"rotation":[
				-8.881785255792436e-16,
				2.0948570877976636e-08,
				5.293955920339377e-23,
				1
			],
			"scale":[
				1,
				0.9999999403953552,
				1
			],
			"translation":[
				1.3475232041315621e-09,
				0.29130101203918457,
				-0.028040003031492233
			]
		},
		{
			"name":"b_r_grip",
			"rotation":[
				4.440891304407238e-16,
				1.4210854715202004e-14,
				0,
				1
			],
			"translation":[
				0.010107931680977345,
				-0.08554791659116745,
				0.0763770043849945
			]
		},
		{
			"name":"b_r_index_3",
			"rotation":[
				4.440891304407238e-16,
				1.6263643938075806e-23,
				1.0587911840678754e-22,
				1
			],
			"translation":[
				0.008272988721728325,
				-0.018028007820248604,
				0.01927003264427185
			]
		},
		{
			"children":[
				45
			],
			"name":"b_r_index_2",
			"rotation":[
				4.440890775011646e-16,
				8.429369557916289e-08,
				1.5881867761018131e-22,
				1
			],
			"translation":[
				-0.003233999013900757,
				-0.017264951020479202,
				0.04035601764917374
			]
		},
		{
			"children":[
				46
			],
			"name":"b_r_index_1",
			"rotation":[
				4.440892627896218e-16,
				-8.429368136830817e-08,
				-1.852884572118782e-22,
				1
			],
			"translation":[
				-0.012463069520890713,
				-0.035092223435640335,
				0.10092496871948242
			]
		},
		{
			"name":"b_r_middle_3",
			"rotation":[
				4.440892098500626e-16,
				0,
				-5.293955920339377e-23,
				1
			],
			"translation":[
				0.014005035161972046,
				-0.02178298309445381,
				0.014714010059833527
			]
		},
		{
			"children":[
				48
			],
			"name":"b_r_middle_2",
			"rotation":[
				4.440892098500626e-16,
				0,
				-2.6469779601696886e-23,
				1
			],
			"translation":[
				-0.003054022789001465,
				-0.028654087334871292,
				0.03963998705148697
			]
		},
		{
			"children":[
				49
			],
			"name":"b_r_middle_1",
			"rotation":[
				4.440892627896218e-16,
				-8.429368136830817e-08,
				-1.852884572118782e-22,
				1
			],
			"translation":[
				-0.027340028434991837,
				-0.05036388710141182,
				0.08896595239639282
			]
		},
		{
			"name":"b_r_pinky_3",
			"rotation":[
				1.0464551003508404e-08,
				1.6366888475629322e-23,
				-2.6469779601696886e-23,
				1
			],
			"translation":[
				0.016670018434524536,
				-0.013494838960468769,
				0.005919016432017088
			]
		},
		{
			"children":[
				51
			],
			"name":"b_r_pinky_2",
			"rotation":[
				4.440892098500626e-16,
				0,
				-2.6469779601696886e-23,
				1
			],
			"translation":[
				0.007261008024215698,
				-0.030634036287665367,
				0.020705051720142365
			]
		},
		{
			"children":[
				52
			],
			"name":"b_r_pinky_1",
			"rotation":[
				4.440892627896218e-16,
				-8.429368136830817e-08,
				-1.852884572118782e-22,
				1
			],
			"translation":[
				-0.03530305624008179,
				-0.07847999781370163,
				0.05773600563406944
			]
		},
		{
			"name":"b_r_ring_3",
			"rotation":[
				0,
				-4.235164736271502e-22,
				-1.5284181919448065e-30,
				1
			],
			"scale":[
				1,
				0.9999999403953552,
				1
			],
			"translation":[
				0.019610971212387085,
				-0.019280899316072464,
				0.008945055305957794
			]
		},
		{
			"children":[
				54
			],
			"name":"b_r_ring_2",
			"rotation":[
				-4.440892098500626e-16,
				-7.105426934084528e-15,
				2.823807758506582e-23,
				1
			],
			"scale":[
				1,
				0.9999999403953552,
				1
			],
			"translation":[
				0.0016370117664337158,
				-0.03376292064785957,
				0.03197396546602249
			]
		},
		{
			"children":[
				55
			],
			"name":"b_r_ring_1",
			"rotation":[
				4.440892627896218e-16,
				-8.429367426288081e-08,
				-2.0278183274927588e-22,
				1
			],
			"translation":[
				-0.03208309784531593,
				-0.06503497809171677,
				0.07424398511648178
			]
		},
		{
			"name":"b_r_thumb_3",
			"rotation":[
				4.440892098500626e-16,
				0,
				-2.6469779601696886e-23,
				1
			],
			"translation":[
				0.009153008460998535,
				-0.01574181392788887,
				0.025845058262348175
			]
		},
		{
			"children":[
				57
			],
			"name":"b_r_thumb_2",
			"rotation":[
				4.440892098500626e-16,
				0,
				-2.6469779601696886e-23,
				1
			],
			"translation":[
				0.017728954553604126,
				-0.019028177484869957,
				0.04401398450136185
			]
		},
		{
			"children":[
				58
			],
			"name":"b_r_thumb_1",
			"rotation":[
				4.440892627896218e-16,
				-8.429368136830817e-08,
				-1.852884572118782e-22,
				1
			],
			"translation":[
				0.02559593878686428,
				-0.0007947594858705997,
				0.03152201324701309
			]
		},
		{
			"children":[
				44,
				47,
				50,
				53,
				56,
				59
			],
			"name":"b_r_hand",
			"rotation":[
				-1.1102243481141366e-16,
				6.336187396982496e-08,
				-6.617444900424221e-23,
				1
			],
			"scale":[
				1,
				0.9999999403953552,
				1
			],
			"translation":[
				-0.06755398213863373,
				-0.11792921274900436,
				0.21507498621940613
			]
		},
		{
			"name":"b_r_wrist_twist_fixup",
			"rotation":[
				-1.1102228922762585e-16,
				-2.0931812727553734e-08,
				-9.926167350636332e-23,
				1
			],
			"translation":[
				-0.06728799641132355,
				-0.11746608465909958,
				0.21422994136810303
			]
		},
		{
			"children":[
				60,
				61
			],
			"name":"b_r_forearm",
			"rotation":[
				1.4700208161855244e-08,
				-1.7314132350065847e-09,
				-2.545217539468925e-17,
				1
			],
			"translation":[
				-0.13847799599170685,
				-0.2109147310256958,
				0.1034739539027214
			]
		},
		{
			"name":"b_r_shoulder_twist_fixup",
			"rotation":[
				1.120588066783057e-09,
				1.8091425189142028e-23,
				-8.271806125530277e-24,
				1
			],
			"translation":[
				-0.0005079943221062422,
				-0.0007728337659500539,
				0.00037900253664702177
			]
		},
		{
			"children":[
				62,
				63
			],
			"name":"b_r_upperarm",
			"rotation":[
				-1.809457589959748e-23,
				-1.3749161809073485e-09,
				-2.812414082680294e-23,
				1
			],
			"translation":[
				-0.1441350132226944,
				-0.01982712745666504,
				-0.030528001487255096
			]
		},
		{
			"children":[
				64
			],
			"name":"b_r_clav",
			"rotation":[
				-1.566189400392659e-09,
				9.555023439133947e-12,
				-1.4906621818818112e-20,
				1
			],
			"scale":[
				1,
				0.9999998807907104,
				1
			],
			"translation":[
				-0.04160299152135849,
				0.21519207954406738,
				0.005960999988019466
			]
		},
		{
			"children":[
				29,
				43,
				65
			],
			"name":"b_spine_3",
			"rotation":[
				2.123846432056098e-09,
				-2.0930924549134033e-08,
				-4.445399968141244e-17,
				1
			],
			"scale":[
				1,
				0.9999999403953552,
				1
			],
			"translation":[
				1.2512230140870884e-09,
				0.09844565391540527,
				-0.013914995826780796
			]
		},
		{
			"children":[
				66
			],
			"name":"b_spine_2",
			"rotation":[
				-8.379047455875366e-11,
				1.8583721228537797e-08,
				-5.977147549304074e-18,
				1
			],
			"scale":[
				1,
				0.9999999403953552,
				1
			],
			"translation":[
				2.186064981921261e-17,
				0.09987103939056396,
				2.5124613500793203e-09
			]
		},
		{
			"children":[
				67
			],
			"name":"b_spine_1",
			"rotation":[
				-1.536230698206964e-09,
				3.104851487023552e-09,
				-7.626888474380653e-17,
				1
			],
			"translation":[
				-4.7377623234366815e-17,
				0.05659794807434082,
				1.0229470603917434e-09
			]
		},
		{
			"children":[
				3,
				7,
				68
			],
			"name":"b_pelvis",
			"rotation":[
				1.9721522630525295e-31,
				-9.32292465449791e-10,
				9.367723249499515e-31,
				1
			],
			"translation":[
				-5.711965900268012e-10,
				1.0344367027282715,
				0.011800049804151058
			]
		},
		{
			"name":"b_utility",
			"rotation":[
				-5.785379765086097e-31,
				1.41781749614319e-23,
				1.1951666332404433e-23,
				1
			]
		},
		{
			"children":[
				69,
				70
			],
			"name":"b_pedestal",
			"rotation":[
				-8.557136332854043e-09,
				2.4203236748121526e-08,
				-4.1422078995684666e-16,
				1
			]
		},
		{
			"mesh":0,
			"name":"mesh_1183008415-0_0_0_gbuffer",
			"skin":0
		},
		{
			"mesh":1,
			"name":"mesh_1183008415-0_0_1_gbuffer",
			"skin":0
		},
		{
			"mesh":2,
			"name":"mesh_1183008415-0_0_2_transparents",
			"skin":0
		},
		{
			"mesh":3,
			"name":"mesh_1183008415-0_0_3_transparents",
			"skin":0
		},
		{
			"mesh":4,
			"name":"mesh_1183008415-0_0_4_transparents",
			"skin":0
		},
		{
			"mesh":5,
			"name":"mesh_1183008415-0_0_5_transparents",
			"skin":0
		},
		{
			"mesh":6,
			"name":"mesh_2226303520-0_0_0_gbuffer",
			"skin":0
		},
		{
			"mesh":7,
			"name":"mesh_2226303520-0_0_1_gbuffer",
			"skin":0
		},
		{
			"mesh":8,
			"name":"mesh_2907837896-1_0_0_gbuffer",
			"skin":0
		},
		{
			"mesh":9,
			"name":"mesh_2907837896-1_0_1_gbuffer",
			"skin":0
		},
		{
			"mesh":10,
			"name":"mesh_2954490259-0_0_0_gbuffer",
			"skin":0
		},
		{
			"mesh":11,
			"name":"mesh_2954490259-0_0_1_decals",
			"skin":0
		},
		{
			"mesh":12,
			"name":"mesh_2954490259-0_0_2_transparents",
			"skin":0
		},
		{
			"mesh":13,
			"name":"mesh_2954490259-0_0_3_transparents",
			"skin":0
		},
		{
			"mesh":14,
			"name":"mesh_380448084-0_0_0_gbuffer",
			"skin":0
		},
		{
			"mesh":15,
			"name":"mesh_380448084-0_0_1_gbuffer",
			"skin":0
		},
		{
			"mesh":16,
			"name":"mesh_380448084-0_0_2_gbuffer",
			"skin":0
		},
		{
			"mesh":17,
			"name":"mesh_380448084-0_0_3_gbuffer",
			"skin":0
		},
		{
			"mesh":18,
			"name":"mesh_380448084-0_0_4_gbuffer",
			"skin":0
		},
		{
			"mesh":19,
			"name":"mesh_380448084-0_0_5_gbuffer",
			"skin":0
		},
		{
			"mesh":20,
			"name":"mesh_380448084-0_0_6_gbuffer",
			"skin":0
		},
		{
			"mesh":21,
			"name":"mesh_380448084-0_0_7_gbuffer",
			"skin":0
		},
		{
			"mesh":22,
			"name":"mesh_3872909913-0_0_0_gbuffer",
			"skin":0
		},
		{
			"mesh":23,
			"name":"mesh_3872909913-0_0_1_gbuffer",
			"skin":0
		},
		{
			"mesh":24,
			"name":"mesh_4165595996-0_0_0_gbuffer",
			"skin":0
		},
		{
			"mesh":25,
			"name":"mesh_4165595996-0_0_1_gbuffer",
			"skin":0
		},
		{
			"mesh":26,
			"name":"mesh_4165595996-0_0_2_gbuffer",
			"skin":0
		},
		{
			"mesh":27,
			"name":"mesh_4165595996-0_0_3_gbuffer",
			"skin":0
		},
		{
			"mesh":28,
			"name":"mesh_4165595996-0_0_4_transparents",
			"skin":0
		},
		{
			"children":[
				72,
				73,
				74,
				75,
				76,
				77,
				78,
				79,
				80,
				81,
				82,
				83,
				84,
				85,
				86,
				87,
				88,
				89,
				90,
				91,
				92,
				93,
				94,
				95,
				96,
				97,
				98,
				99,
				100,
				71
			],
			"name":"20_skeleton"
		},
		{
			"name":"pattern_4269058593_0_armor_m"
		},
		{
			"children":[
				102
			],
			"name":"item_45_3516622758_m"
		},
		{
			"name":"pattern_2939023650_0_armor_m"
		},
		{
			"name":"pattern_2939023650_1_armor_m"
		},
		{
			"children":[
				104,
				105
			],
			"name":"item_46_2676042151_m"
		},
		{
			"name":"pattern_2160865732_0_armor_m"
		},
		{
			"name":"pattern_2160865732_1_armor_m"
		},
		{
			"children":[
				107,
				108
			],
			"name":"item_47_3181497704_m"
		},
		{
			"name":"pattern_2641577454_0_armor_m"
		},
		{
			"children":[
				110
			],
			"name":"item_48_2173197096_m"
		},
		{
			"name":"pattern_422545437_0_armor_m"
		},
		{
			"children":[
				112
			],
			"name":"item_49_2070062384_m"
		},
		{
			"children":[
				101,
				103,
				106,
				109,
				111,
				113
			],
			"name":"content",
			"scale":[
				1.9005707502365112,
				1.9005707502365112,
				1.9005707502365112
			]
		}
	],
	"materials":[
		{
			"alphaMode":"BLEND",
			"doubleSided":true,
			"name":"mat_2173197096_1",
			"normalTexture":{
				"index":0
			},
			"pbrMetallicRoughness":{
				"baseColorTexture":{
					"index":1
				},
				"metallicFactor":0
			}
		},
		{
			"alphaMode":"BLEND",
			"doubleSided":true,
			"name":"mat_2173197096_1.001",
			"normalTexture":{
				"index":2
			},
			"pbrMetallicRoughness":{
				"baseColorTexture":{
					"index":3
				},
				"metallicFactor":0
			}
		},
		{
			"alphaMode":"BLEND",
			"doubleSided":true,
			"name":"mat_2173197096_1.002",
			"normalTexture":{
				"index":4
			},
			"pbrMetallicRoughness":{
				"baseColorTexture":{
					"index":5
				},
				"metallicFactor":0
			}
		},
		{
			"alphaMode":"BLEND",
			"doubleSided":true,
			"name":"mat_2173197096_1.003",
			"normalTexture":{
				"index":6
			},
			"pbrMetallicRoughness":{
				"baseColorTexture":{
					"index":7
				},
				"metallicFactor":0
			}
		},
		{
			"alphaMode":"BLEND",
			"doubleSided":true,
			"name":"mat_2173197096_1.004",
			"normalTexture":{
				"index":8
			},
			"pbrMetallicRoughness":{
				"baseColorTexture":{
					"index":9
				},
				"metallicFactor":0
			}
		},
		{
			"alphaMode":"BLEND",
			"doubleSided":true,
			"name":"mat_2173197096_1.005",
			"normalTexture":{
				"index":10
			},
			"pbrMetallicRoughness":{
				"baseColorTexture":{
					"index":11
				},
				"metallicFactor":0
			}
		},
		{
			"alphaMode":"BLEND",
			"doubleSided":true,
			"name":"mat_3516622758_2",
			"normalTexture":{
				"index":12
			},
			"pbrMetallicRoughness":{
				"baseColorTexture":{
					"index":13
				},
				"metallicFactor":0
			}
		},
		{
			"alphaMode":"BLEND",
			"doubleSided":true,
			"name":"mat_3516622758_2.001",
			"normalTexture":{
				"index":14
			},
			"pbrMetallicRoughness":{
				"baseColorTexture":{
					"index":15
				},
				"metallicFactor":0
			}
		},
		{
			"doubleSided":true,
			"name":"mat_3181497704_0.002",
			"normalTexture":{
				"index":16
			},
			"pbrMetallicRoughness":{
				"baseColorTexture":{
					"index":17
				},
				"metallicFactor":0
			}
		},
		{
			"alphaMode":"BLEND",
			"doubleSided":true,
			"name":"mat_3181497704_0.003",
			"normalTexture":{
				"index":18
			},
			"pbrMetallicRoughness":{
				"baseColorTexture":{
					"index":19
				},
				"metallicFactor":0
			}
		},
		{
			"alphaMode":"BLEND",
			"doubleSided":true,
			"name":"mat_2676042151_1",
			"normalTexture":{
				"index":20
			},
			"pbrMetallicRoughness":{
				"baseColorTexture":{
					"index":21
				},
				"metallicFactor":0
			}
		},
		{
			"alphaMode":"BLEND",
			"doubleSided":true,
			"name":"mat_2676042151_1.001",
			"normalTexture":{
				"index":22
			},
			"pbrMetallicRoughness":{
				"baseColorTexture":{
					"index":23
				},
				"metallicFactor":0
			}
		},
		{
			"alphaMode":"BLEND",
			"doubleSided":true,
			"name":"mat_2676042151_1.002",
			"normalTexture":{
				"index":24
			},
			"pbrMetallicRoughness":{
				"baseColorTexture":{
					"index":25
				},
				"metallicFactor":0
			}
		},
		{
			"alphaMode":"BLEND",
			"doubleSided":true,
			"name":"mat_2676042151_1.003",
			"normalTexture":{
				"index":26
			},
			"pbrMetallicRoughness":{
				"baseColorTexture":{
					"index":27
				},
				"metallicFactor":0
			}
		},
		{
			"alphaMode":"BLEND",
			"doubleSided":true,
			"name":"mat_2676042151_1.004",
			"normalTexture":{
				"index":28
			},
			"pbrMetallicRoughness":{
				"baseColorTexture":{
					"index":29
				},
				"metallicFactor":0
			}
		},
		{
			"alphaMode":"BLEND",
			"doubleSided":true,
			"name":"mat_2676042151_1.005",
			"normalTexture":{
				"index":30
			},
			"pbrMetallicRoughness":{
				"baseColorTexture":{
					"index":31
				},
				"metallicFactor":0
			}
		},
		{
			"alphaMode":"BLEND",
			"doubleSided":true,
			"name":"mat_2676042151_1.006",
			"normalTexture":{
				"index":32
			},
			"pbrMetallicRoughness":{
				"baseColorTexture":{
					"index":33
				},
				"metallicFactor":0
			}
		},
		{
			"alphaMode":"BLEND",
			"doubleSided":true,
			"name":"mat_2676042151_1.007",
			"normalTexture":{
				"index":34
			},
			"pbrMetallicRoughness":{
				"baseColorTexture":{
					"index":35
				},
				"metallicFactor":0
			}
		},
		{
			"alphaMode":"BLEND",
			"doubleSided":true,
			"name":"mat_2676042151_1.008",
			"normalTexture":{
				"index":36
			},
			"pbrMetallicRoughness":{
				"baseColorTexture":{
					"index":37
				},
				"metallicFactor":0
			}
		},
		{
			"alphaMode":"BLEND",
			"doubleSided":true,
			"name":"mat_2676042151_1.009",
			"normalTexture":{
				"index":38
			},
			"pbrMetallicRoughness":{
				"baseColorTexture":{
					"index":39
				},
				"metallicFactor":0
			}
		},
		{
			"alphaMode":"BLEND",
			"doubleSided":true,
			"name":"mat_2676042151_1.010",
			"normalTexture":{
				"index":40
			},
			"pbrMetallicRoughness":{
				"baseColorTexture":{
					"index":41
				},
				"metallicFactor":0
			}
		},
		{
			"alphaMode":"BLEND",
			"doubleSided":true,
			"name":"mat_2676042151_1.011",
			"normalTexture":{
				"index":42
			},
			"pbrMetallicRoughness":{
				"baseColorTexture":{
					"index":43
				},
				"metallicFactor":0
			}
		},
		{
			"doubleSided":true,
			"name":"mat_3181497704_0",
			"normalTexture":{
				"index":44
			},
			"pbrMetallicRoughness":{
				"baseColorTexture":{
					"index":45
				},
				"metallicFactor":0
			}
		},
		{
			"alphaMode":"BLEND",
			"doubleSided":true,
			"name":"mat_3181497704_0.001",
			"normalTexture":{
				"index":46
			},
			"pbrMetallicRoughness":{
				"baseColorTexture":{
					"index":47
				},
				"metallicFactor":0
			}
		},
		{
			"alphaMode":"BLEND",
			"doubleSided":true,
			"name":"mat_2070062384_1",
			"normalTexture":{
				"index":48
			},
			"pbrMetallicRoughness":{
				"baseColorTexture":{
					"index":49
				},
				"metallicFactor":0
			}
		},
		{
			"alphaMode":"BLEND",
			"doubleSided":true,
			"name":"mat_2070062384_1.001",
			"normalTexture":{
				"index":50
			},
			"pbrMetallicRoughness":{
				"baseColorTexture":{
					"index":51
				},
				"metallicFactor":0
			}
		},
		{
			"alphaMode":"BLEND",
			"doubleSided":true,
			"name":"mat_2070062384_1.002",
			"normalTexture":{
				"index":52
			},
			"pbrMetallicRoughness":{
				"baseColorTexture":{
					"index":53
				},
				"metallicFactor":0
			}
		},
		{
			"alphaMode":"BLEND",
			"doubleSided":true,
			"name":"mat_2070062384_1.003",
			"normalTexture":{
				"index":54
			},
			"pbrMetallicRoughness":{
				"baseColorTexture":{
					"index":55
				},
				"metallicFactor":0
			}
		},
		{
			"alphaMode":"BLEND",
			"doubleSided":true,
			"name":"mat_2070062384_1.004",
			"normalTexture":{
				"index":56
			},
			"pbrMetallicRoughness":{
				"baseColorTexture":{
					"index":57
				},
				"metallicFactor":0
			}
		}
	],
	"meshes":[
		{
			"name":"Mesh_18",
			"primitives":[
				{
					"attributes":{
						"POSITION":0,
						"NORMAL":1,
						"TEXCOORD_0":2,
						"TANGENT":3,
						"COLOR_0":4,
						"JOINTS_0":5,
						"WEIGHTS_0":6
					},
					"indices":7,
					"material":0
				}
			]
		},
		{
			"name":"Mesh_19",
			"primitives":[
				{
					"attributes":{
						"POSITION":9,
						"NORMAL":10,
						"TEXCOORD_0":11,
						"TANGENT":12,
						"COLOR_0":13,
						"JOINTS_0":14,
						"WEIGHTS_0":15
					},
					"indices":16,
					"material":1
				}
			]
		},
		{
			"name":"Mesh_20",
			"primitives":[
				{
					"attributes":{
						"POSITION":17,
						"NORMAL":18,
						"TEXCOORD_0":19,
						"TANGENT":20,
						"COLOR_0":21,
						"JOINTS_0":22,
						"WEIGHTS_0":23
					},
					"indices":24,
					"material":2
				}
			]
		},
		{
			"name":"Mesh_21",
			"primitives":[
				{
					"attributes":{
						"POSITION":25,
						"NORMAL":26,
						"TEXCOORD_0":27,
						"TANGENT":28,
						"COLOR_0":29,
						"JOINTS_0":30,
						"WEIGHTS_0":31
					},
					"indices":32,
					"material":3
				}
			]
		},
		{
			"name":"Mesh_22",
			"primitives":[
				{
					"attributes":{
						"POSITION":33,
						"NORMAL":34,
						"TEXCOORD_0":35,
						"TANGENT":36,
						"COLOR_0":37,
						"JOINTS_0":38,
						"WEIGHTS_0":39
					},
					"indices":40,
					"material":4
				}
			]
		},
		{
			"name":"Mesh_23",
			"primitives":[
				{
					"attributes":{
						"POSITION":41,
						"NORMAL":42,
						"TEXCOORD_0":43,
						"TANGENT":44,
						"COLOR_0":45,
						"JOINTS_0":46,
						"WEIGHTS_0":47
					},
					"indices":48,
					"material":5
				}
			]
		},
		{
			"name":"Mesh_0",
			"primitives":[
				{
					"attributes":{
						"POSITION":49,
						"NORMAL":50,
						"TEXCOORD_0":51,
						"TANGENT":52,
						"COLOR_0":53,
						"JOINTS_0":54,
						"WEIGHTS_0":55
					},
					"indices":56,
					"material":6
				}
			]
		},
		{
			"name":"Mesh_1",
			"primitives":[
				{
					"attributes":{
						"POSITION":57,
						"NORMAL":58,
						"TEXCOORD_0":59,
						"TANGENT":60,
						"COLOR_0":61,
						"JOINTS_0":62,
						"WEIGHTS_0":63
					},
					"indices":64,
					"material":7
				}
			]
		},
		{
			"name":"Mesh_16",
			"primitives":[
				{
					"attributes":{
						"POSITION":65,
						"NORMAL":66,
						"TEXCOORD_0":67,
						"TANGENT":68,
						"COLOR_0":69,
						"JOINTS_0":70,
						"WEIGHTS_0":71
					},
					"indices":72,
					"material":8
				}
			]
		},
		{
			"name":"Mesh_17",
			"primitives":[
				{
					"attributes":{
						"POSITION":73,
						"NORMAL":74,
						"TEXCOORD_0":75,
						"TANGENT":76,
						"COLOR_0":77,
						"JOINTS_0":78,
						"WEIGHTS_0":79
					},
					"indices":80,
					"material":9
				}
			]
		},
		{
			"name":"Mesh_2",
			"primitives":[
				{
					"attributes":{
						"POSITION":81,
						"NORMAL":82,
						"TEXCOORD_0":83,
						"TANGENT":84,
						"COLOR_0":85,
						"JOINTS_0":86,
						"WEIGHTS_0":87
					},
					"indices":88,
					"material":10
				}
			]
		},
		{
			"name":"Mesh_3",
			"primitives":[
				{
					"attributes":{
						"POSITION":89,
						"NORMAL":90,
						"TEXCOORD_0":91,
						"TANGENT":92,
						"COLOR_0":93,
						"JOINTS_0":94,
						"WEIGHTS_0":95
					},
					"indices":96,
					"material":11
				}
			]
		},
		{
			"name":"Mesh_4",
			"primitives":[
				{
					"attributes":{
						"POSITION":97,
						"NORMAL":98,
						"TEXCOORD_0":99,
						"TANGENT":100,
						"COLOR_0":101,
						"JOINTS_0":102,
						"WEIGHTS_0":103
					},
					"indices":104,
					"material":12
				}
			]
		},
		{
			"name":"Mesh_5",
			"primitives":[
				{
					"attributes":{
						"POSITION":105,
						"NORMAL":106,
						"TEXCOORD_0":107,
						"TANGENT":108,
						"COLOR_0":109,
						"JOINTS_0":110,
						"WEIGHTS_0":111
					},
					"indices":112,
					"material":13
				}
			]
		},
		{
			"name":"Mesh_6",
			"primitives":[
				{
					"attributes":{
						"POSITION":113,
						"NORMAL":114,
						"TEXCOORD_0":115,
						"TANGENT":116,
						"COLOR_0":117,
						"JOINTS_0":118,
						"WEIGHTS_0":119
					},
					"indices":120,
					"material":14
				}
			]
		},
		{
			"name":"Mesh_7",
			"primitives":[
				{
					"attributes":{
						"POSITION":121,
						"NORMAL":122,
						"TEXCOORD_0":123,
						"TANGENT":124,
						"COLOR_0":125,
						"JOINTS_0":126,
						"WEIGHTS_0":127
					},
					"indices":128,
					"material":15
				}
			]
		},
		{
			"name":"Mesh_8",
			"primitives":[
				{
					"attributes":{
						"POSITION":129,
						"NORMAL":130,
						"TEXCOORD_0":131,
						"TANGENT":132,
						"COLOR_0":133,
						"JOINTS_0":134,
						"WEIGHTS_0":135
					},
					"indices":136,
					"material":16
				}
			]
		},
		{
			"name":"Mesh_9",
			"primitives":[
				{
					"attributes":{
						"POSITION":137,
						"NORMAL":138,
						"TEXCOORD_0":139,
						"TANGENT":140,
						"COLOR_0":141,
						"JOINTS_0":142,
						"WEIGHTS_0":143
					},
					"indices":144,
					"material":17
				}
			]
		},
		{
			"name":"Mesh_10",
			"primitives":[
				{
					"attributes":{
						"POSITION":145,
						"NORMAL":146,
						"TEXCOORD_0":147,
						"TANGENT":148,
						"COLOR_0":149,
						"JOINTS_0":150,
						"WEIGHTS_0":151
					},
					"indices":152,
					"material":18
				}
			]
		},
		{
			"name":"Mesh_11",
			"primitives":[
				{
					"attributes":{
						"POSITION":153,
						"NORMAL":154,
						"TEXCOORD_0":155,
						"TANGENT":156,
						"COLOR_0":157,
						"JOINTS_0":158,
						"WEIGHTS_0":159
					},
					"indices":160,
					"material":19
				}
			]
		},
		{
			"name":"Mesh_12",
			"primitives":[
				{
					"attributes":{
						"POSITION":161,
						"NORMAL":162,
						"TEXCOORD_0":163,
						"TANGENT":164,
						"COLOR_0":165,
						"JOINTS_0":166,
						"WEIGHTS_0":167
					},
					"indices":168,
					"material":20
				}
			]
		},
		{
			"name":"Mesh_13",
			"primitives":[
				{
					"attributes":{
						"POSITION":169,
						"NORMAL":170,
						"TEXCOORD_0":171,
						"TANGENT":172,
						"COLOR_0":173,
						"JOINTS_0":174,
						"WEIGHTS_0":175
					},
					"indices":176,
					"material":21
				}
			]
		},
		{
			"name":"Mesh_14",
			"primitives":[
				{
					"attributes":{
						"POSITION":177,
						"NORMAL":178,
						"TEXCOORD_0":179,
						"TANGENT":180,
						"COLOR_0":181,
						"COLOR_1":182,
						"JOINTS_0":183,
						"WEIGHTS_0":184
					},
					"indices":185,
					"material":22
				}
			]
		},
		{
			"name":"Mesh_15",
			"primitives":[
				{
					"attributes":{
						"POSITION":186,
						"NORMAL":187,
						"TEXCOORD_0":188,
						"TANGENT":189,
						"COLOR_0":190,
						"JOINTS_0":191,
						"WEIGHTS_0":192
					},
					"indices":193,
					"material":23
				}
			]
		},
		{
			"name":"Mesh_24",
			"primitives":[
				{
					"attributes":{
						"POSITION":194,
						"NORMAL":195,
						"TEXCOORD_0":196,
						"TANGENT":197,
						"COLOR_0":198,
						"JOINTS_0":199,
						"WEIGHTS_0":200
					},
					"indices":201,
					"material":24
				}
			]
		},
		{
			"name":"Mesh_25",
			"primitives":[
				{
					"attributes":{
						"POSITION":202,
						"NORMAL":203,
						"TEXCOORD_0":204,
						"TANGENT":205,
						"COLOR_0":206,
						"JOINTS_0":207,
						"WEIGHTS_0":208
					},
					"indices":209,
					"material":25
				}
			]
		},
		{
			"name":"Mesh_26",
			"primitives":[
				{
					"attributes":{
						"POSITION":210,
						"NORMAL":211,
						"TEXCOORD_0":212,
						"TANGENT":213,
						"COLOR_0":214,
						"JOINTS_0":215,
						"WEIGHTS_0":216
					},
					"indices":217,
					"material":26
				}
			]
		},
		{
			"name":"Mesh_27",
			"primitives":[
				{
					"attributes":{
						"POSITION":218,
						"NORMAL":219,
						"TEXCOORD_0":220,
						"TANGENT":221,
						"COLOR_0":222,
						"JOINTS_0":223,
						"WEIGHTS_0":224
					},
					"indices":217,
					"material":27
				}
			]
		},
		{
			"name":"Mesh_28",
			"primitives":[
				{
					"attributes":{
						"POSITION":225,
						"NORMAL":226,
						"TEXCOORD_0":227,
						"TANGENT":228,
						"COLOR_0":229,
						"JOINTS_0":230,
						"WEIGHTS_0":231
					},
					"indices":217,
					"material":28
				}
			]
		}
	],
	"textures":[
		{
			"sampler":0,
			"source":0
		},
		{
			"sampler":0,
			"source":1
		},
		{
			"sampler":0,
			"source":0
		},
		{
			"sampler":0,
			"source":1
		},
		{
			"sampler":0,
			"source":0
		},
		{
			"sampler":0,
			"source":1
		},
		{
			"sampler":0,
			"source":0
		},
		{
			"sampler":0,
			"source":1
		},
		{
			"sampler":0,
			"source":0
		},
		{
			"sampler":0,
			"source":1
		},
		{
			"sampler":0,
			"source":0
		},
		{
			"sampler":0,
			"source":1
		},
		{
			"sampler":0,
			"source":2
		},
		{
			"sampler":0,
			"source":3
		},
		{
			"sampler":0,
			"source":2
		},
		{
			"sampler":0,
			"source":3
		},
		{
			"sampler":0,
			"source":4
		},
		{
			"sampler":0,
			"source":5
		},
		{
			"sampler":0,
			"source":4
		},
		{
			"sampler":0,
			"source":5
		},
		{
			"sampler":0,
			"source":6
		},
		{
			"sampler":0,
			"source":7
		},
		{
			"sampler":0,
			"source":6
		},
		{
			"sampler":0,
			"source":7
		},
		{
			"sampler":0,
			"source":6
		},
		{
			"sampler":0,
			"source":7
		},
		{
			"sampler":0,
			"source":6
		},
		{
			"sampler":0,
			"source":7
		},
		{
			"sampler":0,
			"source":8
		},
		{
			"sampler":0,
			"source":9
		},
		{
			"sampler":0,
			"source":8
		},
		{
			"sampler":0,
			"source":9
		},
		{
			"sampler":0,
			"source":10
		},
		{
			"sampler":0,
			"source":11
		},
		{
			"sampler":0,
			"source":10
		},
		{
			"sampler":0,
			"source":11
		},
		{
			"sampler":0,
			"source":6
		},
		{
			"sampler":0,
			"source":7
		},
		{
			"sampler":0,
			"source":6
		},
		{
			"sampler":0,
			"source":7
		},
		{
			"sampler":0,
			"source":10
		},
		{
			"sampler":0,
			"source":11
		},
		{
			"sampler":0,
			"source":10
		},
		{
			"sampler":0,
			"source":11
		},
		{
			"sampler":0,
			"source":4
		},
		{
			"sampler":0,
			"source":5
		},
		{
			"sampler":0,
			"source":4
		},
		{
			"sampler":0,
			"source":5
		},
		{
			"sampler":0,
			"source":12
		},
		{
			"sampler":0,
			"source":13
		},
		{
			"sampler":0,
			"source":12
		},
		{
			"sampler":0,
			"source":13
		},
		{
			"sampler":0,
			"source":12
		},
		{
			"sampler":0,
			"source":13
		},
		{
			"sampler":0,
			"source":12
		},
		{
			"sampler":0,
			"source":13
		},
		{
			"sampler":0,
			"source":12
		},
		{
			"sampler":0,
			"source":13
		}
	],
	"images":[
		{
			"mimeType":"image/png",
			"name":"Image_11",
			"uri":"Image_11.png"
		},
		{
			"mimeType":"image/png",
			"name":"Image_10",
			"uri":"Image_10.png"
		},
		{
			"mimeType":"image/png",
			"name":"Image_1",
			"uri":"Image_1.png"
		},
		{
			"mimeType":"image/png",
			"name":"Image_0",
			"uri":"Image_0.png"
		},
		{
			"mimeType":"image/png",
			"name":"Image_9",
			"uri":"Image_9.png"
		},
		{
			"mimeType":"image/png",
			"name":"Image_8",
			"uri":"Image_8.png"
		},
		{
			"mimeType":"image/png",
			"name":"Image_3",
			"uri":"Image_3.png"
		},
		{
			"mimeType":"image/png",
			"name":"Image_2",
			"uri":"Image_2.png"
		},
		{
			"mimeType":"image/png",
			"name":"Image_5",
			"uri":"Image_5.png"
		},
		{
			"mimeType":"image/png",
			"name":"Image_4",
			"uri":"Image_4.png"
		},
		{
			"mimeType":"image/png",
			"name":"Image_7",
			"uri":"Image_7.png"
		},
		{
			"mimeType":"image/png",
			"name":"Image_6",
			"uri":"Image_6.png"
		},
		{
			"mimeType":"image/png",
			"name":"Image_13",
			"uri":"Image_13.png"
		},
		{
			"mimeType":"image/png",
			"name":"Image_12",
			"uri":"Image_12.png"
		}
	],
	"skins":[
		{
			"inverseBindMatrices":8,
			"joints":[
				71,
				69,
				3,
				2,
				1,
				0,
				7,
				6,
				5,
				4,
				68,
				67,
				66,
				29,
				28,
				26,
				24,
				8,
				11,
				10,
				9,
				14,
				13,
				12,
				17,
				16,
				15,
				20,
				19,
				18,
				23,
				22,
				21,
				25,
				27,
				43,
				42,
				41,
				32,
				30,
				31,
				33,
				34,
				35,
				36,
				37,
				38,
				39,
				40,
				65,
				64,
				62,
				60,
				44,
				47,
				46,
				45,
				50,
				49,
				48,
				53,
				52,
				51,
				56,
				55,
				54,
				59,
				58,
				57,
				61,
				63,
				70
			],
			"name":"20_skeleton"
		}
	],
	"accessors":[
		{
			"bufferView":0,
			"componentType":5126,
			"count":1302,
			"max":[
				0.4419306218624115,
				2.16625714302063,
				0.29719603061676025
			],
			"min":[
				-0.4419305920600891,
				0.2050948441028595,
				-0.20011642575263977
			],
			"type":"VEC3"
		},
		{
			"bufferView":1,
			"componentType":5126,
			"count":1302,
			"type":"VEC3"
		},
		{
			"bufferView":2,
			"componentType":5126,
			"count":1302,
			"type":"VEC2"
		},
		{
			"bufferView":3,
			"componentType":5126,
			"count":1302,
			"type":"VEC4"
		},
		{
			"bufferView":4,
			"componentType":5123,
			"count":1302,
			"normalized":true,
			"type":"VEC4"
		},
		{
			"bufferView":5,
			"componentType":5121,
			"count":1302,
			"type":"VEC4"
		},
		{
			"bufferView":6,
			"componentType":5126,
			"count":1302,
			"type":"VEC4"
		},
		{
			"bufferView":7,
			"componentType":5123,
			"count":6024,
			"type":"SCALAR"
		},
		{
			"bufferView":8,
			"componentType":5126,
			"count":72,
			"type":"MAT4"
		},
		{
			"bufferView":9,
			"componentType":5126,
			"count":1050,
			"max":[
				0.493214875459671,
				0.7638360857963562,
				0.4175092875957489
			],
			"min":[
				-0.493214875459671,
				0.0007506232941523194,
				-0.22820380330085754
			],
			"type":"VEC3"
		},
		{
			"bufferView":10,
			"componentType":5126,
			"count":1050,
			"type":"VEC3"
		},
		{
			"bufferView":11,
			"componentType":5126,
			"count":1050,
			"type":"VEC2"
		},
		{
			"bufferView":12,
			"componentType":5126,
			"count":1050,
			"type":"VEC4"
		},
		{
			"bufferView":13,
			"componentType":5123,
			"count":1050,
			"normalized":true,
			"type":"VEC4"
		},
		{
			"bufferView":14,
			"componentType":5121,
			"count":1050,
			"type":"VEC4"
		},
		{
			"bufferView":15,
			"componentType":5126,
			"count":1050,
			"type":"VEC4"
		},
		{
			"bufferView":16,
			"componentType":5123,
			"count":5052,
			"type":"SCALAR"
		},
		{
			"bufferView":17,
			"componentType":5126,
			"count":594,
			"max":[
				0.4761972427368164,
				0.9651732444763184,
				0.15685808658599854
			],
			"min":[
				-0.4761972427368164,
				0.10302180051803589,
				-0.24099186062812805
			],
			"type":"VEC3"
		},
		{
			"bufferView":18,
			"componentType":5126,
			"count":594,
			"type":"VEC3"
		},
		{
			"bufferView":19,
			"componentType":5126,
			"count":594,
			"type":"VEC2"
		},
		{
			"bufferView":20,
			"componentType":5126,
			"count":594,
			"type":"VEC4"
		},
		{
			"bufferView":21,
			"componentType":5123,
			"count":594,
			"normalized":true,
			"type":"VEC4"
		},
		{
			"bufferView":22,
			"componentType":5121,
			"count":594,
			"type":"VEC4"
		},
		{
			"bufferView":23,
			"componentType":5126,
			"count":594,
			"type":"VEC4"
		},
		{
			"bufferView":24,
			"componentType":5123,
			"count":1188,
			"type":"SCALAR"
		},
		{
			"bufferView":25,
			"componentType":5126,
			"count":144,
			"max":[
				0.4796007573604584,
				0.8004488348960876,
				0.12288883328437805
			],
			"min":[
				-0.4796007573604584,
				0.3233262896537781,
				-0.07996837794780731
			],
			"type":"VEC3"
		},
		{
			"bufferView":26,
			"componentType":5126,
			"count":144,
			"type":"VEC3"
		},
		{
			"bufferView":27,
			"componentType":5126,
			"count":144,
			"type":"VEC2"
		},
		{
			"bufferView":28,
			"componentType":5126,
			"count":144,
			"type":"VEC4"
		},
		{
			"bufferView":29,
			"componentType":5123,
			"count":144,
			"normalized":true,
			"type":"VEC4"
		},
		{
			"bufferView":30,
			"componentType":5121,
			"count":144,
			"type":"VEC4"
		},
		{
			"bufferView":31,
			"componentType":5126,
			"count":144,
			"type":"VEC4"
		},
		{
			"bufferView":32,
			"componentType":5123,
			"count":144,
			"type":"SCALAR"
		},
		{
			"bufferView":33,
			"componentType":5126,
			"count":96,
			"max":[
				0.3871105909347534,
				1.196712613105774,
				0.23732025921344757
			],
			"min":[
				-0.38711056113243103,
				0.8629680871963501,
				0.13967519998550415
			],
			"type":"VEC3"
		},
		{
			"bufferView":34,
			"componentType":5126,
			"count":96,
			"type":"VEC3"
		},
		{
			"bufferView":35,
			"componentType":5126,
			"count":96,
			"type":"VEC2"
		},
		{
			"bufferView":36,
			"componentType":5126,
			"count":96,
			"type":"VEC4"
		},
		{
			"bufferView":37,
			"componentType":5123,
			"count":96,
			"normalized":true,
			"type":"VEC4"
		},
		{
			"bufferView":38,
			"componentType":5121,
			"count":96,
			"type":"VEC4"
		},
		{
			"bufferView":39,
			"componentType":5126,
			"count":96,
			"type":"VEC4"
		},
		{
			"bufferView":40,
			"componentType":5123,
			"count":300,
			"type":"SCALAR"
		},
		{
			"bufferView":41,
			"componentType":5126,
			"count":80,
			"max":[
				0.45699867606163025,
				1.0762341022491455,
				0.27796441316604614
			],
			"min":[
				-0.45699864625930786,
				0.7103708386421204,
				0.04728413000702858
			],
			"type":"VEC3"
		},
		{
			"bufferView":42,
			"componentType":5126,
			"count":80,
			"type":"VEC3"
		},
		{
			"bufferView":43,
			"componentType":5126,
			"count":80,
			"type":"VEC2"
		},
		{
			"bufferView":44,
			"componentType":5126,
			"count":80,
			"type":"VEC4"
		},
		{
			"bufferView":45,
			"componentType":5123,
			"count":80,
			"normalized":true,
			"type":"VEC4"
		},
		{
			"bufferView":46,
			"componentType":5121,
			"count":80,
			"type":"VEC4"
		},
		{
			"bufferView":47,
			"componentType":5126,
			"count":80,
			"type":"VEC4"
		},
		{
			"bufferView":48,
			"componentType":5123,
			"count":288,
			"type":"SCALAR"
		},
		{
			"bufferView":49,
			"componentType":5126,
			"count":2399,
			"max":[
				0.37344884872436523,
				3.5340850353240967,
				0.30693456530570984
			],
			"min":[
				-0.37344884872436523,
				3.0245208740234375,
				-0.3579952120780945
			],
			"type":"VEC3"
		},
		{
			"bufferView":50,
			"componentType":5126,
			"count":2399,
			"type":"VEC3"
		},
		{
			"bufferView":51,
			"componentType":5126,
			"count":2399,
			"type":"VEC2"
		},
		{
			"bufferView":52,
			"componentType":5126,
			"count":2399,
			"type":"VEC4"
		},
		{
			"bufferView":53,
			"componentType":5123,
			"count":2399,
			"normalized":true,
			"type":"VEC4"
		},
		{
			"bufferView":54,
			"componentType":5121,
			"count":2399,
			"type":"VEC4"
		},
		{
			"bufferView":55,
			"componentType":5126,
			"count":2399,
			"type":"VEC4"
		},
		{
			"bufferView":56,
			"componentType":5123,
			"count":9906,
			"type":"SCALAR"
		},
		{
			"bufferView":57,
			"componentType":5126,
			"count":32,
			"max":[
				0.07370506227016449,
				3.534518241882324,
				0.27308517694473267
			],
			"min":[
				-0.0736936628818512,
				3.4184274673461914,
				-0.060223087668418884
			],
			"type":"VEC3"
		},
		{
			"bufferView":58,
			"componentType":5126,
			"count":32,
			"type":"VEC3"
		},
		{
			"bufferView":59,
			"componentType":5126,
			"count":32,
			"type":"VEC2"
		},
		{
			"bufferView":60,
			"componentType":5126,
			"count":32,
			"type":"VEC4"
		},
		{
			"bufferView":61,
			"componentType":5123,
			"count":32,
			"normalized":true,
			"type":"VEC4"
		},
		{
			"bufferView":62,
			"componentType":5121,
			"count":32,
			"type":"VEC4"
		},
		{
			"bufferView":63,
			"componentType":5126,
			"count":32,
			"type":"VEC4"
		},
		{
			"bufferView":64,
			"componentType":5123,
			"count":138,
			"type":"SCALAR"
		},
		{
			"bufferView":65,
			"componentType":5126,
			"count":241,
			"max":[
				0.544390082359314,
				2.1477181911468506,
				0.417469322681427
			],
			"min":[
				-0.6365187168121338,
				0.17616942524909973,
				-0.4634404182434082
			],
			"type":"VEC3"
		},
		{
			"bufferView":66,
			"componentType":5126,
			"count":241,
			"type":"VEC3"
		},
		{
			"bufferView":67,
			"componentType":5126,
			"count":241,
			"type":"VEC2"
		},
		{
			"bufferView":68,
			"componentType":5126,
			"count":241,
			"type":"VEC4"
		},
		{
			"bufferView":69,
			"componentType":5126,
			"count":241,
			"type":"VEC3"
		},
		{
			"bufferView":70,
			"componentType":5121,
			"count":241,
			"type":"VEC4"
		},
		{
			"bufferView":71,
			"componentType":5126,
			"count":241,
			"type":"VEC4"
		},
		{
			"bufferView":72,
			"componentType":5123,
			"count":1221,
			"type":"SCALAR"
		},
		{
			"bufferView":73,
			"componentType":5126,
			"count":178,
			"max":[
				0.544390082359314,
				2.1477181911468506,
				0.417469322681427
			],
			"min":[
				-0.6365187168121338,
				0.17616942524909973,
				-0.4634404182434082
			],
			"type":"VEC3"
		},
		{
			"bufferView":74,
			"componentType":5126,
			"count":178,
			"type":"VEC3"
		},
		{
			"bufferView":75,
			"componentType":5126,
			"count":178,
			"type":"VEC2"
		},
		{
			"bufferView":76,
			"componentType":5126,
			"count":178,
			"type":"VEC4"
		},
		{
			"bufferView":77,
			"componentType":5123,
			"count":178,
			"normalized":true,
			"type":"VEC4"
		},
		{
			"bufferView":78,
			"componentType":5121,
			"count":178,
			"type":"VEC4"
		},
		{
			"bufferView":79,
			"componentType":5126,
			"count":178,
			"type":"VEC4"
		},
		{
			"bufferView":80,
			"componentType":5123,
			"count":873,
			"type":"SCALAR"
		},
		{
			"bufferView":81,
			"componentType":5126,
			"count":1366,
			"max":[
				0.8385953307151794,
				2.4703240394592285,
				0.8969469666481018
			],
			"min":[
				-0.8385791778564453,
				1.9286702871322632,
				0.1387094110250473
			],
			"type":"VEC3"
		},
		{
			"bufferView":82,
			"componentType":5126,
			"count":1366,
			"type":"VEC3"
		},
		{
			"bufferView":83,
			"componentType":5126,
			"count":1366,
			"type":"VEC2"
		},
		{
			"bufferView":84,
			"componentType":5126,
			"count":1366,
			"type":"VEC4"
		},
		{
			"bufferView":85,
			"componentType":5123,
			"count":1366,
			"normalized":true,
			"type":"VEC4"
		},
		{
			"bufferView":86,
			"componentType":5121,
			"count":1366,
			"type":"VEC4"
		},
		{
			"bufferView":87,
			"componentType":5126,
			"count":1366,
			"type":"VEC4"
		},
		{
			"bufferView":88,
			"componentType":5123,
			"count":6084,
			"type":"SCALAR"
		},
		{
			"bufferView":89,
			"componentType":5126,
			"count":32,
			"max":[
				0.7906137704849243,
				2.4560320377349854,
				0.3631965219974518
			],
			"min":[
				-0.7906233668327332,
				2.2973082065582275,
				0.13819622993469238
			],
			"type":"VEC3"
		},
		{
			"bufferView":90,
			"componentType":5126,
			"count":32,
			"type":"VEC3"
		},
		{
			"bufferView":91,
			"componentType":5126,
			"count":32,
			"type":"VEC2"
		},
		{
			"bufferView":92,
			"componentType":5126,
			"count":32,
			"type":"VEC4"
		},
		{
			"bufferView":93,
			"componentType":5123,
			"count":32,
			"normalized":true,
			"type":"VEC4"
		},
		{
			"bufferView":94,
			"componentType":5121,
			"count":32,
			"type":"VEC4"
		},
		{
			"bufferView":95,
			"componentType":5126,
			"count":32,
			"type":"VEC4"
		},
		{
			"bufferView":96,
			"componentType":5123,
			"count":114,
			"type":"SCALAR"
		},
		{
			"bufferView":97,
			"componentType":5126,
			"count":214,
			"max":[
				0.8413408398628235,
				2.3167059421539307,
				0.6753077507019043
			],
			"min":[
				-0.8401700258255005,
				2.046494960784912,
				0.40730366110801697
			],
			"type":"VEC3"
		},
		{
			"bufferView":98,
			"componentType":5126,
			"count":214,
			"type":"VEC3"
		},
		{
			"bufferView":99,
			"componentType":5126,
			"count":214,
			"type":"VEC2"
		},
		{
			"bufferView":100,
			"componentType":5126,
			"count":214,
			"type":"VEC4"
		},
		{
			"bufferView":101,
			"componentType":5123,
			"count":214,
			"normalized":true,
			"type":"VEC4"
		},
		{
			"bufferView":102,
			"componentType":5121,
			"count":214,
			"type":"VEC4"
		},
		{
			"bufferView":103,
			"componentType":5126,
			"count":214,
			"type":"VEC4"
		},
		{
			"bufferView":104,
			"componentType":5123,
			"count":1008,
			"type":"SCALAR"
		},
		{
			"bufferView":105,
			"componentType":5126,
			"count":64,
			"max":[
				0.7973877191543579,
				2.45585298538208,
				0.3645051121711731
			],
			"min":[
				-0.7970123291015625,
				2.2958967685699463,
				0.13678501546382904
			],
			"type":"VEC3"
		},
		{
			"bufferView":106,
			"componentType":5126,
			"count":64,
			"type":"VEC3"
		},
		{
			"bufferView":107,
			"componentType":5126,
			"count":64,
			"type":"VEC2"
		},
		{
			"bufferView":108,
			"componentType":5126,
			"count":64,
			"type":"VEC4"
		},
		{
			"bufferView":109,
			"componentType":5123,
			"count":64,
			"normalized":true,
			"type":"VEC4"
		},
		{
			"bufferView":110,
			"componentType":5121,
			"count":64,
			"type":"VEC4"
		},
		{
			"bufferView":111,
			"componentType":5126,
			"count":64,
			"type":"VEC4"
		},
		{
			"bufferView":112,
			"componentType":5123,
			"count":228,
			"type":"SCALAR"
		},
		{
			"bufferView":113,
			"componentType":5126,
			"count":244,
			"max":[
				0.12732979655265808,
				3.2267348766326904,
				0.09851647168397903
			],
			"min":[
				-0.12732979655265808,
				3.0369415283203125,
				-0.15348510444164276
			],
			"type":"VEC3"
		},
		{
			"bufferView":114,
			"componentType":5126,
			"count":244,
			"type":"VEC3"
		},
		{
			"bufferView":115,
			"componentType":5126,
			"count":244,
			"type":"VEC2"
		},
		{
			"bufferView":116,
			"componentType":5126,
			"count":244,
			"type":"VEC4"
		},
		{
			"bufferView":117,
			"componentType":5123,
			"count":244,
			"normalized":true,
			"type":"VEC4"
		},
		{
			"bufferView":118,
			"componentType":5121,
			"count":244,
			"type":"VEC4"
		},
		{
			"bufferView":119,
			"componentType":5126,
			"count":244,
			"type":"VEC4"
		},
		{
			"bufferView":120,
			"componentType":5123,
			"count":972,
			"type":"SCALAR"
		},
		{
			"bufferView":121,
			"componentType":5126,
			"count":244,
			"max":[
				0.12758538126945496,
				3.226402759552002,
				0.130106121301651
			],
			"min":[
				-0.12758538126945496,
				3.0203800201416016,
				-0.16097359359264374
			],
			"type":"VEC3"
		},
		{
			"bufferView":122,
			"componentType":5126,
			"count":244,
			"type":"VEC3"
		},
		{
			"bufferView":123,
			"componentType":5126,
			"count":244,
			"type":"VEC2"
		},
		{
			"bufferView":124,
			"componentType":5126,
			"count":244,
			"type":"VEC4"
		},
		{
			"bufferView":125,
			"componentType":5123,
			"count":244,
			"normalized":true,
			"type":"VEC4"
		},
		{
			"bufferView":126,
			"componentType":5121,
			"count":244,
			"type":"VEC4"
		},
		{
			"bufferView":127,
			"componentType":5126,
			"count":244,
			"type":"VEC4"
		},
		{
			"bufferView":128,
			"componentType":5123,
			"count":972,
			"type":"SCALAR"
		},
		{
			"bufferView":129,
			"componentType":5126,
			"count":3120,
			"max":[
				0.8322696685791016,
				2.254178047180176,
				0.8887178301811218
			],
			"min":[
				-0.8322696685791016,
				1.9351881742477417,
				0.4840072989463806
			],
			"type":"VEC3"
		},
		{
			"bufferView":130,
			"componentType":5126,
			"count":3120,
			"type":"VEC3"
		},
		{
			"bufferView":131,
			"componentType":5126,
			"count":3120,
			"type":"VEC2"
		},
		{
			"bufferView":132,
			"componentType":5126,
			"count":3120,
			"type":"VEC4"
		},
		{
			"bufferView":133,
			"componentType":5123,
			"count":3120,
			"normalized":true,
			"type":"VEC4"
		},
		{
			"bufferView":134,
			"componentType":5121,
			"count":3120,
			"type":"VEC4"
		},
		{
			"bufferView":135,
			"componentType":5126,
			"count":3120,
			"type":"VEC4"
		},
		{
			"bufferView":136,
			"componentType":5123,
			"count":14424,
			"type":"SCALAR"
		},
		{
			"bufferView":137,
			"componentType":5126,
			"count":3180,
			"max":[
				0.8355666995048523,
				2.254535675048828,
				0.8900212645530701
			],
			"min":[
				-0.8355666995048523,
				1.934677243232727,
				0.4858730137348175
			],
			"type":"VEC3"
		},
		{
			"bufferView":138,
			"componentType":5126,
			"count":3180,
			"type":"VEC3"
		},
		{
			"bufferView":139,
			"componentType":5126,
			"count":3180,
			"type":"VEC2"
		},
		{
			"bufferView":140,
			"componentType":5126,
			"count":3180,
			"type":"VEC4"
		},
		{
			"bufferView":141,
			"componentType":5123,
			"count":3180,
			"normalized":true,
			"type":"VEC4"
		},
		{
			"bufferView":142,
			"componentType":5121,
			"count":3180,
			"type":"VEC4"
		},
		{
			"bufferView":143,
			"componentType":5126,
			"count":3180,
			"type":"VEC4"
		},
		{
			"bufferView":144,
			"componentType":5123,
			"count":14544,
			"type":"SCALAR"
		},
		{
			"bufferView":145,
			"componentType":5126,
			"count":596,
			"max":[
				0.8374579548835754,
				2.205336570739746,
				0.87841796875
			],
			"min":[
				-0.8374579548835754,
				1.9436991214752197,
				0.6382241249084473
			],
			"type":"VEC3"
		},
		{
			"bufferView":146,
			"componentType":5126,
			"count":596,
			"type":"VEC3"
		},
		{
			"bufferView":147,
			"componentType":5126,
			"count":596,
			"type":"VEC2"
		},
		{
			"bufferView":148,
			"componentType":5126,
			"count":596,
			"type":"VEC4"
		},
		{
			"bufferView":149,
			"componentType":5123,
			"count":596,
			"normalized":true,
			"type":"VEC4"
		},
		{
			"bufferView":150,
			"componentType":5121,
			"count":596,
			"type":"VEC4"
		},
		{
			"bufferView":151,
			"componentType":5126,
			"count":596,
			"type":"VEC4"
		},
		{
			"bufferView":152,
			"componentType":5123,
			"count":2382,
			"type":"SCALAR"
		},
		{
			"bufferView":153,
			"componentType":5126,
			"count":576,
			"max":[
				0.8374579548835754,
				2.21124005317688,
				0.8815104365348816
			],
			"min":[
				-0.8374579548835754,
				1.9412200450897217,
				0.6406264305114746
			],
			"type":"VEC3"
		},
		{
			"bufferView":154,
			"componentType":5126,
			"count":576,
			"type":"VEC3"
		},
		{
			"bufferView":155,
			"componentType":5126,
			"count":576,
			"type":"VEC2"
		},
		{
			"bufferView":156,
			"componentType":5126,
			"count":576,
			"type":"VEC4"
		},
		{
			"bufferView":157,
			"componentType":5123,
			"count":576,
			"normalized":true,
			"type":"VEC4"
		},
		{
			"bufferView":158,
			"componentType":5121,
			"count":576,
			"type":"VEC4"
		},
		{
			"bufferView":159,
			"componentType":5126,
			"count":576,
			"type":"VEC4"
		},
		{
			"bufferView":160,
			"componentType":5123,
			"count":2262,
			"type":"SCALAR"
		},
		{
			"bufferView":161,
			"componentType":5126,
			"count":118,
			"max":[
				0.7837861180305481,
				2.190845012664795,
				0.7652472853660583
			],
			"min":[
				-0.7837861180305481,
				2.0197083950042725,
				0.5801563262939453
			],
			"type":"VEC3"
		},
		{
			"bufferView":162,
			"componentType":5126,
			"count":118,
			"type":"VEC3"
		},
		{
			"bufferView":163,
			"componentType":5126,
			"count":118,
			"type":"VEC2"
		},
		{
			"bufferView":164,
			"componentType":5126,
			"count":118,
			"type":"VEC4"
		},
		{
			"bufferView":165,
			"componentType":5123,
			"count":118,
			"normalized":true,
			"type":"VEC4"
		},
		{
			"bufferView":166,
			"componentType":5121,
			"count":118,
			"type":"VEC4"
		},
		{
			"bufferView":167,
			"componentType":5126,
			"count":118,
			"type":"VEC4"
		},
		{
			"bufferView":168,
			"componentType":5123,
			"count":474,
			"type":"SCALAR"
		},
		{
			"bufferView":169,
			"componentType":5126,
			"count":118,
			"max":[
				0.7851918339729309,
				2.1932733058929443,
				0.7664229869842529
			],
			"min":[
				-0.7851918339729309,
				2.0210118293762207,
				0.5741246938705444
			],
			"type":"VEC3"
		},
		{
			"bufferView":170,
			"componentType":5126,
			"count":118,
			"type":"VEC3"
		},
		{
			"bufferView":171,
			"componentType":5126,
			"count":118,
			"type":"VEC2"
		},
		{
			"bufferView":172,
			"componentType":5126,
			"count":118,
			"type":"VEC4"
		},
		{
			"bufferView":173,
			"componentType":5123,
			"count":118,
			"normalized":true,
			"type":"VEC4"
		},
		{
			"bufferView":174,
			"componentType":5121,
			"count":118,
			"type":"VEC4"
		},
		{
			"bufferView":175,
			"componentType":5126,
			"count":118,
			"type":"VEC4"
		},
		{
			"bufferView":176,
			"componentType":5123,
			"count":474,
			"type":"SCALAR"
		},
		{
			"bufferView":177,
			"componentType":5126,
			"count":7934,
			"max":[
				0.4289020299911499,
				3.173999786376953,
				0.3746272325515747
			],
			"min":[
				-0.4289020299911499,
				2.017301082611084,
				-0.4159778952598572
			],
			"type":"VEC3"
		},
		{
			"bufferView":178,
			"componentType":5126,
			"count":7934,
			"type":"VEC3"
		},
		{
			"bufferView":179,
			"componentType":5126,
			"count":7934,
			"type":"VEC2"
		},
		{
			"bufferView":180,
			"componentType":5126,
			"count":7934,
			"type":"VEC4"
		},
		{
			"bufferView":181,
			"componentType":5121,
			"count":7934,
			"normalized":true,
			"type":"VEC4"
		},
		{
			"bufferView":182,
			"componentType":5123,
			"count":7934,
			"normalized":true,
			"type":"VEC4"
		},
		{
			"bufferView":183,
			"componentType":5121,
			"count":7934,
			"type":"VEC4"
		},
		{
			"bufferView":184,
			"componentType":5126,
			"count":7934,
			"type":"VEC4"
		},
		{
			"bufferView":185,
			"componentType":5123,
			"count":33078,
			"type":"SCALAR"
		},
		{
			"bufferView":186,
			"componentType":5126,
			"count":1640,
			"max":[
				0.7515391111373901,
				2.8948662281036377,
				0.34361231327056885
			],
			"min":[
				-0.7515391707420349,
				2.2537543773651123,
				-0.24695132672786713
			],
			"type":"VEC3"
		},
		{
			"bufferView":187,
			"componentType":5126,
			"count":1640,
			"type":"VEC3"
		},
		{
			"bufferView":188,
			"componentType":5126,
			"count":1640,
			"type":"VEC2"
		},
		{
			"bufferView":189,
			"componentType":5126,
			"count":1640,
			"type":"VEC4"
		},
		{
			"bufferView":190,
			"componentType":5123,
			"count":1640,
			"normalized":true,
			"type":"VEC4"
		},
		{
			"bufferView":191,
			"componentType":5121,
			"count":1640,
			"type":"VEC4"
		},
		{
			"bufferView":192,
			"componentType":5126,
			"count":1640,
			"type":"VEC4"
		},
		{
			"bufferView":193,
			"componentType":5123,
			"count":7296,
			"type":"SCALAR"
		},
		{
			"bufferView":194,
			"componentType":5126,
			"count":230,
			"max":[
				0.7060558795928955,
				2.760042428970337,
				0.18570029735565186
			],
			"min":[
				0.5529838800430298,
				2.539578437805176,
				-0.06887931376695633
			],
			"type":"VEC3"
		},
		{
			"bufferView":195,
			"componentType":5126,
			"count":230,
			"type":"VEC3"
		},
		{
			"bufferView":196,
			"componentType":5126,
			"count":230,
			"type":"VEC2"
		},
		{
			"bufferView":197,
			"componentType":5126,
			"count":230,
			"type":"VEC4"
		},
		{
			"bufferView":198,
			"componentType":5123,
			"count":230,
			"normalized":true,
			"type":"VEC4"
		},
		{
			"bufferView":199,
			"componentType":5121,
			"count":230,
			"type":"VEC4"
		},
		{
			"bufferView":200,
			"componentType":5126,
			"count":230,
			"type":"VEC4"
		},
		{
			"bufferView":201,
			"componentType":5123,
			"count":906,
			"type":"SCALAR"
		},
		{
			"bufferView":202,
			"componentType":5126,
			"count":125,
			"max":[
				0.653326153755188,
				2.6850833892822266,
				0.19901610910892487
			],
			"min":[
				0.38234391808509827,
				2.4206271171569824,
				-0.12435398995876312
			],
			"type":"VEC3"
		},
		{
			"bufferView":203,
			"componentType":5126,
			"count":125,
			"type":"VEC3"
		},
		{
			"bufferView":204,
			"componentType":5126,
			"count":125,
			"type":"VEC2"
		},
		{
			"bufferView":205,
			"componentType":5126,
			"count":125,
			"type":"VEC4"
		},
		{
			"bufferView":206,
			"componentType":5123,
			"count":125,
			"normalized":true,
			"type":"VEC4"
		},
		{
			"bufferView":207,
			"componentType":5121,
			"count":125,
			"type":"VEC4"
		},
		{
			"bufferView":208,
			"componentType":5126,
			"count":125,
			"type":"VEC4"
		},
		{
			"bufferView":209,
			"componentType":5123,
			"count":576,
			"type":"SCALAR"
		},
		{
			"bufferView":210,
			"componentType":5126,
			"count":49,
			"max":[
				0.6590699553489685,
				2.7136728763580322,
				0.09476865828037262
			],
			"min":[
				0.6015960574150085,
				2.636605978012085,
				0.0015840427950024605
			],
			"type":"VEC3"
		},
		{
			"bufferView":211,
			"componentType":5126,
			"count":49,
			"type":"VEC3"
		},
		{
			"bufferView":212,
			"componentType":5126,
			"count":49,
			"type":"VEC2"
		},
		{
			"bufferView":213,
			"componentType":5126,
			"count":49,
			"type":"VEC4"
		},
		{
			"bufferView":214,
			"componentType":5123,
			"count":49,
			"normalized":true,
			"type":"VEC4"
		},
		{
			"bufferView":215,
			"componentType":5121,
			"count":49,
			"type":"VEC4"
		},
		{
			"bufferView":216,
			"componentType":5126,
			"count":49,
			"type":"VEC4"
		},
		{
			"bufferView":217,
			"componentType":5123,
			"count":234,
			"type":"SCALAR"
		},
		{
			"bufferView":218,
			"componentType":5126,
			"count":49,
			"max":[
				0.6585830450057983,
				2.712430238723755,
				0.09414714574813843
			],
			"min":[
				0.6023056507110596,
				2.636979103088379,
				0.0029099227394908667
			],
			"type":"VEC3"
		},
		{
			"bufferView":219,
			"componentType":5126,
			"count":49,
			"type":"VEC3"
		},
		{
			"bufferView":220,
			"componentType":5126,
			"count":49,
			"type":"VEC2"
		},
		{
			"bufferView":221,
			"componentType":5126,
			"count":49,
			"type":"VEC4"
		},
		{
			"bufferView":222,
			"componentType":5123,
			"count":49,
			"normalized":true,
			"type":"VEC4"
		},
		{
			"bufferView":223,
			"componentType":5121,
			"count":49,
			"type":"VEC4"
		},
		{
			"bufferView":224,
			"componentType":5126,
			"count":49,
			"type":"VEC4"
		},
		{
			"bufferView":225,
			"componentType":5126,
			"count":49,
			"max":[
				0.6588679552078247,
				2.7131497859954834,
				0.09460292756557465
			],
			"min":[
				0.6018964648246765,
				2.63676118850708,
				0.002236622618511319
			],
			"type":"VEC3"
		},
		{
			"bufferView":226,
			"componentType":5126,
			"count":49,
			"type":"VEC3"
		},
		{
			"bufferView":227,
			"componentType":5126,
			"count":49,
			"type":"VEC2"
		},
		{
			"bufferView":228,
			"componentType":5126,
			"count":49,
			"type":"VEC4"
		},
		{
			"bufferView":229,
			"componentType":5123,
			"count":49,
			"normalized":true,
			"type":"VEC4"
		},
		{
			"bufferView":230,
			"componentType":5121,
			"count":49,
			"type":"VEC4"
		},
		{
			"bufferView":231,
			"componentType":5126,
			"count":49,
			"type":"VEC4"
		}
	],
	"bufferViews":[
		{
			"buffer":0,
			"byteLength":15624,
			"byteOffset":0,
			"target":34962
		},
		{
			"buffer":0,
			"byteLength":15624,
			"byteOffset":15624,
			"target":34962
		},
		{
			"buffer":0,
			"byteLength":10416,
			"byteOffset":31248,
			"target":34962
		},
		{
			"buffer":0,
			"byteLength":20832,
			"byteOffset":41664,
			"target":34962
		},
		{
			"buffer":0,
			"byteLength":10416,
			"byteOffset":62496,
			"target":34962
		},
		{
			"buffer":0,
			"byteLength":5208,
			"byteOffset":72912,
			"target":34962
		},
		{
			"buffer":0,
			"byteLength":20832,
			"byteOffset":78120,
			"target":34962
		},
		{
			"buffer":0,
			"byteLength":12048,
			"byteOffset":98952,
			"target":34963
		},
		{
			"buffer":0,
			"byteLength":4608,
			"byteOffset":111000
		},
		{
			"buffer":0,
			"byteLength":12600,
			"byteOffset":115608,
			"target":34962
		},
		{
			"buffer":0,
			"byteLength":12600,
			"byteOffset":128208,
			"target":34962
		},
		{
			"buffer":0,
			"byteLength":8400,
			"byteOffset":140808,
			"target":34962
		},
		{
			"buffer":0,
			"byteLength":16800,
			"byteOffset":149208,
			"target":34962
		},
		{
			"buffer":0,
			"byteLength":8400,
			"byteOffset":166008,
			"target":34962
		},
		{
			"buffer":0,
			"byteLength":4200,
			"byteOffset":174408,
			"target":34962
		},
		{
			"buffer":0,
			"byteLength":16800,
			"byteOffset":178608,
			"target":34962
		},
		{
			"buffer":0,
			"byteLength":10104,
			"byteOffset":195408,
			"target":34963
		},
		{
			"buffer":0,
			"byteLength":7128,
			"byteOffset":205512,
			"target":34962
		},
		{
			"buffer":0,
			"byteLength":7128,
			"byteOffset":212640,
			"target":34962
		},
		{
			"buffer":0,
			"byteLength":4752,
			"byteOffset":219768,
			"target":34962
		},
		{
			"buffer":0,
			"byteLength":9504,
			"byteOffset":224520,
			"target":34962
		},
		{
			"buffer":0,
			"byteLength":4752,
			"byteOffset":234024,
			"target":34962
		},
		{
			"buffer":0,
			"byteLength":2376,
			"byteOffset":238776,
			"target":34962
		},
		{
			"buffer":0,
			"byteLength":9504,
			"byteOffset":241152,
			"target":34962
		},
		{
			"buffer":0,
			"byteLength":2376,
			"byteOffset":250656,
			"target":34963
		},
		{
			"buffer":0,
			"byteLength":1728,
			"byteOffset":253032,
			"target":34962
		},
		{
			"buffer":0,
			"byteLength":1728,
			"byteOffset":254760,
			"target":34962
		},
		{
			"buffer":0,
			"byteLength":1152,
			"byteOffset":256488,
			"target":34962
		},
		{
			"buffer":0,
			"byteLength":2304,
			"byteOffset":257640,
			"target":34962
		},
		{
			"buffer":0,
			"byteLength":1152,
			"byteOffset":259944,
			"target":34962
		},
		{
			"buffer":0,
			"byteLength":576,
			"byteOffset":261096,
			"target":34962
		},
		{
			"buffer":0,
			"byteLength":2304,
			"byteOffset":261672,
			"target":34962
		},
		{
			"buffer":0,
			"byteLength":288,
			"byteOffset":263976,
			"target":34963
		},
		{
			"buffer":0,
			"byteLength":1152,
			"byteOffset":264264,
			"target":34962
		},
		{
			"buffer":0,
			"byteLength":1152,
			"byteOffset":265416,
			"target":34962
		},
		{
			"buffer":0,
			"byteLength":768,
			"byteOffset":266568,
			"target":34962
		},
		{
			"buffer":0,
			"byteLength":1536,
			"byteOffset":267336,
			"target":34962
		},
		{
			"buffer":0,
			"byteLength":768,
			"byteOffset":268872,
			"target":34962
		},
		{
			"buffer":0,
			"byteLength":384,
			"byteOffset":269640,
			"target":34962
		},
		{
			"buffer":0,
			"byteLength":1536,
			"byteOffset":270024,
			"target":34962
		},
		{
			"buffer":0,
			"byteLength":600,
			"byteOffset":271560,
			"target":34963
		},
		{
			"buffer":0,
			"byteLength":960,
			"byteOffset":272160,
			"target":34962
		},
		{
			"buffer":0,
			"byteLength":960,
			"byteOffset":273120,
			"target":34962
		},
		{
			"buffer":0,
			"byteLength":640,
			"byteOffset":274080,
			"target":34962
		},
		{
			"buffer":0,
			"byteLength":1280,
			"byteOffset":274720,
			"target":34962
		},
		{
			"buffer":0,
			"byteLength":640,
			"byteOffset":276000,
			"target":34962
		},
		{
			"buffer":0,
			"byteLength":320,
			"byteOffset":276640,
			"target":34962
		},
		{
			"buffer":0,
			"byteLength":1280,
			"byteOffset":276960,
			"target":34962
		},
		{
			"buffer":0,
			"byteLength":576,
			"byteOffset":278240,
			"target":34963
		},
		{
			"buffer":0,
			"byteLength":28788,
			"byteOffset":278816,
			"target":34962
		},
		{
			"buffer":0,
			"byteLength":28788,
			"byteOffset":307604,
			"target":34962
		},
		{
			"buffer":0,
			"byteLength":19192,
			"byteOffset":336392,
			"target":34962
		},
		{
			"buffer":0,
			"byteLength":38384,
			"byteOffset":355584,
			"target":34962
		},
		{
			"buffer":0,
			"byteLength":19192,
			"byteOffset":393968,
			"target":34962
		},
		{
			"buffer":0,
			"byteLength":9596,
			"byteOffset":413160,
			"target":34962
		},
		{
			"buffer":0,
			"byteLength":38384,
			"byteOffset":422756,
			"target":34962
		},
		{
			"buffer":0,
			"byteLength":19812,
			"byteOffset":461140,
			"target":34963
		},
		{
			"buffer":0,
			"byteLength":384,
			"byteOffset":480952,
			"target":34962
		},
		{
			"buffer":0,
			"byteLength":384,
			"byteOffset":481336,
			"target":34962
		},
		{
			"buffer":0,
			"byteLength":256,
			"byteOffset":481720,
			"target":34962
		},
		{
			"buffer":0,
			"byteLength":512,
			"byteOffset":481976,
			"target":34962
		},
		{
			"buffer":0,
			"byteLength":256,
			"byteOffset":482488,
			"target":34962
		},
		{
			"buffer":0,
			"byteLength":128,
			"byteOffset":482744,
			"target":34962
		},
		{
			"buffer":0,
			"byteLength":512,
			"byteOffset":482872,
			"target":34962
		},
		{
			"buffer":0,
			"byteLength":276,
			"byteOffset":483384,
			"target":34963
		},
		{
			"buffer":0,
			"byteLength":2892,
			"byteOffset":483660,
			"target":34962
		},
		{
			"buffer":0,
			"byteLength":2892,
			"byteOffset":486552,
			"target":34962
		},
		{
			"buffer":0,
			"byteLength":1928,
			"byteOffset":489444,
			"target":34962
		},
		{
			"buffer":0,
			"byteLength":3856,
			"byteOffset":491372,
			"target":34962
		},
		{
			"buffer":0,
			"byteLength":2892,
			"byteOffset":495228,
			"target":34962
		},
		{
			"buffer":0,
			"byteLength":964,
			"byteOffset":498120,
			"target":34962
		},
		{
			"buffer":0,
			"byteLength":3856,
			"byteOffset":499084,
			"target":34962
		},
		{
			"buffer":0,
			"byteLength":2442,
			"byteOffset":502940,
			"target":34963
		},
		{
			"buffer":0,
			"byteLength":2136,
			"byteOffset":505384,
			"target":34962
		},
		{
			"buffer":0,
			"byteLength":2136,
			"byteOffset":507520,
			"target":34962
		},
		{
			"buffer":0,
			"byteLength":1424,
			"byteOffset":509656,
			"target":34962
		},
		{
			"buffer":0,
			"byteLength":2848,
			"byteOffset":511080,
			"target":34962
		},
		{
			"buffer":0,
			"byteLength":1424,
			"byteOffset":513928,
			"target":34962
		},
		{
			"buffer":0,
			"byteLength":712,
			"byteOffset":515352,
			"target":34962
		},
		{
			"buffer":0,
			"byteLength":2848,
			"byteOffset":516064,
			"target":34962
		},
		{
			"buffer":0,
			"byteLength":1746,
			"byteOffset":518912,
			"target":34963
		},
		{
			"buffer":0,
			"byteLength":16392,
			"byteOffset":520660,
			"target":34962
		},
		{
			"buffer":0,
			"byteLength":16392,
			"byteOffset":537052,
			"target":34962
		},
		{
			"buffer":0,
			"byteLength":10928,
			"byteOffset":553444,
			"target":34962
		},
		{
			"buffer":0,
			"byteLength":21856,
			"byteOffset":564372,
			"target":34962
		},
		{
			"buffer":0,
			"byteLength":10928,
			"byteOffset":586228,
			"target":34962
		},
		{
			"buffer":0,
			"byteLength":5464,
			"byteOffset":597156,
			"target":34962
		},
		{
			"buffer":0,
			"byteLength":21856,
			"byteOffset":602620,
			"target":34962
		},
		{
			"buffer":0,
			"byteLength":12168,
			"byteOffset":624476,
			"target":34963
		},
		{
			"buffer":0,
			"byteLength":384,
			"byteOffset":636644,
			"target":34962
		},
		{
			"buffer":0,
			"byteLength":384,
			"byteOffset":637028,
			"target":34962
		},
		{
			"buffer":0,
			"byteLength":256,
			"byteOffset":637412,
			"target":34962
		},
		{
			"buffer":0,
			"byteLength":512,
			"byteOffset":637668,
			"target":34962
		},
		{
			"buffer":0,
			"byteLength":256,
			"byteOffset":638180,
			"target":34962
		},
		{
			"buffer":0,
			"byteLength":128,
			"byteOffset":638436,
			"target":34962
		},
		{
			"buffer":0,
			"byteLength":512,
			"byteOffset":638564,
			"target":34962
		},
		{
			"buffer":0,
			"byteLength":228,
			"byteOffset":639076,
			"target":34963
		},
		{
			"buffer":0,
			"byteLength":2568,
			"byteOffset":639304,
			"target":34962
		},
		{
			"buffer":0,
			"byteLength":2568,
			"byteOffset":641872,
			"target":34962
		},
		{
			"buffer":0,
			"byteLength":1712,
			"byteOffset":644440,
			"target":34962
		},
		{
			"buffer":0,
			"byteLength":3424,
			"byteOffset":646152,
			"target":34962
		},
		{
			"buffer":0,
			"byteLength":1712,
			"byteOffset":649576,
			"target":34962
		},
		{
			"buffer":0,
			"byteLength":856,
			"byteOffset":651288,
			"target":34962
		},
		{
			"buffer":0,
			"byteLength":3424,
			"byteOffset":652144,
			"target":34962
		},
		{
			"buffer":0,
			"byteLength":2016,
			"byteOffset":655568,
			"target":34963
		},
		{
			"buffer":0,
			"byteLength":768,
			"byteOffset":657584,
			"target":34962
		},
		{
			"buffer":0,
			"byteLength":768,
			"byteOffset":658352,
			"target":34962
		},
		{
			"buffer":0,
			"byteLength":512,
			"byteOffset":659120,
			"target":34962
		},
		{
			"buffer":0,
			"byteLength":1024,
			"byteOffset":659632,
			"target":34962
		},
		{
			"buffer":0,
			"byteLength":512,
			"byteOffset":660656,
			"target":34962
		},
		{
			"buffer":0,
			"byteLength":256,
			"byteOffset":661168,
			"target":34962
		},
		{
			"buffer":0,
			"byteLength":1024,
			"byteOffset":661424,
			"target":34962
		},
		{
			"buffer":0,
			"byteLength":456,
			"byteOffset":662448,
			"target":34963
		},
		{
			"buffer":0,
			"byteLength":2928,
			"byteOffset":662904,
			"target":34962
		},
		{
			"buffer":0,
			"byteLength":2928,
			"byteOffset":665832,
			"target":34962
		},
		{
			"buffer":0,
			"byteLength":1952,
			"byteOffset":668760,
			"target":34962
		},
		{
			"buffer":0,
			"byteLength":3904,
			"byteOffset":670712,
			"target":34962
		},
		{
			"buffer":0,
			"byteLength":1952,
			"byteOffset":674616,
			"target":34962
		},
		{
			"buffer":0,
			"byteLength":976,
			"byteOffset":676568,
			"target":34962
		},
		{
			"buffer":0,
			"byteLength":3904,
			"byteOffset":677544,
			"target":34962
		},
		{
			"buffer":0,
			"byteLength":1944,
			"byteOffset":681448,
			"target":34963
		},
		{
			"buffer":0,
			"byteLength":2928,
			"byteOffset":683392,
			"target":34962
		},
		{
			"buffer":0,
			"byteLength":2928,
			"byteOffset":686320,
			"target":34962
		},
		{
			"buffer":0,
			"byteLength":1952,
			"byteOffset":689248,
			"target":34962
		},
		{
			"buffer":0,
			"byteLength":3904,
			"byteOffset":691200,
			"target":34962
		},
		{
			"buffer":0,
			"byteLength":1952,
			"byteOffset":695104,
			"target":34962
		},
		{
			"buffer":0,
			"byteLength":976,
			"byteOffset":697056,
			"target":34962
		},
		{
			"buffer":0,
			"byteLength":3904,
			"byteOffset":698032,
			"target":34962
		},
		{
			"buffer":0,
			"byteLength":1944,
			"byteOffset":701936,
			"target":34963
		},
		{
			"buffer":0,
			"byteLength":37440,
			"byteOffset":703880,
			"target":34962
		},
		{
			"buffer":0,
			"byteLength":37440,
			"byteOffset":741320,
			"target":34962
		},
		{
			"buffer":0,
			"byteLength":24960,
			"byteOffset":778760,
			"target":34962
		},
		{
			"buffer":0,
			"byteLength":49920,
			"byteOffset":803720,
			"target":34962
		},
		{
			"buffer":0,
			"byteLength":24960,
			"byteOffset":853640,
			"target":34962
		},
		{
			"buffer":0,
			"byteLength":12480,
			"byteOffset":878600,
			"target":34962
		},
		{
			"buffer":0,
			"byteLength":49920,
			"byteOffset":891080,
			"target":34962
		},
		{
			"buffer":0,
			"byteLength":28848,
			"byteOffset":941000,
			"target":34963
		},
		{
			"buffer":0,
			"byteLength":38160,
			"byteOffset":969848,
			"target":34962
		},
		{
			"buffer":0,
			"byteLength":38160,
			"byteOffset":1008008,
			"target":34962
		},
		{
			"buffer":0,
			"byteLength":25440,
			"byteOffset":1046168,
			"target":34962
		},
		{
			"buffer":0,
			"byteLength":50880,
			"byteOffset":1071608,
			"target":34962
		},
		{
			"buffer":0,
			"byteLength":25440,
			"byteOffset":1122488,
			"target":34962
		},
		{
			"buffer":0,
			"byteLength":12720,
			"byteOffset":1147928,
			"target":34962
		},
		{
			"buffer":0,
			"byteLength":50880,
			"byteOffset":1160648,
			"target":34962
		},
		{
			"buffer":0,
			"byteLength":29088,
			"byteOffset":1211528,
			"target":34963
		},
		{
			"buffer":0,
			"byteLength":7152,
			"byteOffset":1240616,
			"target":34962
		},
		{
			"buffer":0,
			"byteLength":7152,
			"byteOffset":1247768,
			"target":34962
		},
		{
			"buffer":0,
			"byteLength":4768,
			"byteOffset":1254920,
			"target":34962
		},
		{
			"buffer":0,
			"byteLength":9536,
			"byteOffset":1259688,
			"target":34962
		},
		{
			"buffer":0,
			"byteLength":4768,
			"byteOffset":1269224,
			"target":34962
		},
		{
			"buffer":0,
			"byteLength":2384,
			"byteOffset":1273992,
			"target":34962
		},
		{
			"buffer":0,
			"byteLength":9536,
			"byteOffset":1276376,
			"target":34962
		},
		{
			"buffer":0,
			"byteLength":4764,
			"byteOffset":1285912,
			"target":34963
		},
		{
			"buffer":0,
			"byteLength":6912,
			"byteOffset":1290676,
			"target":34962
		},
		{
			"buffer":0,
			"byteLength":6912,
			"byteOffset":1297588,
			"target":34962
		},
		{
			"buffer":0,
			"byteLength":4608,
			"byteOffset":1304500,
			"target":34962
		},
		{
			"buffer":0,
			"byteLength":9216,
			"byteOffset":1309108,
			"target":34962
		},
		{
			"buffer":0,
			"byteLength":4608,
			"byteOffset":1318324,
			"target":34962
		},
		{
			"buffer":0,
			"byteLength":2304,
			"byteOffset":1322932,
			"target":34962
		},
		{
			"buffer":0,
			"byteLength":9216,
			"byteOffset":1325236,
			"target":34962
		},
		{
			"buffer":0,
			"byteLength":4524,
			"byteOffset":1334452,
			"target":34963
		},
		{
			"buffer":0,
			"byteLength":1416,
			"byteOffset":1338976,
			"target":34962
		},
		{
			"buffer":0,
			"byteLength":1416,
			"byteOffset":1340392,
			"target":34962
		},
		{
			"buffer":0,
			"byteLength":944,
			"byteOffset":1341808,
			"target":34962
		},
		{
			"buffer":0,
			"byteLength":1888,
			"byteOffset":1342752,
			"target":34962
		},
		{
			"buffer":0,
			"byteLength":944,
			"byteOffset":1344640,
			"target":34962
		},
		{
			"buffer":0,
			"byteLength":472,
			"byteOffset":1345584,
			"target":34962
		},
		{
			"buffer":0,
			"byteLength":1888,
			"byteOffset":1346056,
			"target":34962
		},
		{
			"buffer":0,
			"byteLength":948,
			"byteOffset":1347944,
			"target":34963
		},
		{
			"buffer":0,
			"byteLength":1416,
			"byteOffset":1348892,
			"target":34962
		},
		{
			"buffer":0,
			"byteLength":1416,
			"byteOffset":1350308,
			"target":34962
		},
		{
			"buffer":0,
			"byteLength":944,
			"byteOffset":1351724,
			"target":34962
		},
		{
			"buffer":0,
			"byteLength":1888,
			"byteOffset":1352668,
			"target":34962
		},
		{
			"buffer":0,
			"byteLength":944,
			"byteOffset":1354556,
			"target":34962
		},
		{
			"buffer":0,
			"byteLength":472,
			"byteOffset":1355500,
			"target":34962
		},
		{
			"buffer":0,
			"byteLength":1888,
			"byteOffset":1355972,
			"target":34962
		},
		{
			"buffer":0,
			"byteLength":948,
			"byteOffset":1357860,
			"target":34963
		},
		{
			"buffer":0,
			"byteLength":95208,
			"byteOffset":1358808,
			"target":34962
		},
		{
			"buffer":0,
			"byteLength":95208,
			"byteOffset":1454016,
			"target":34962
		},
		{
			"buffer":0,
			"byteLength":63472,
			"byteOffset":1549224,
			"target":34962
		},
		{
			"buffer":0,
			"byteLength":126944,
			"byteOffset":1612696,
			"target":34962
		},
		{
			"buffer":0,
			"byteLength":31736,
			"byteOffset":1739640,
			"target":34962
		},
		{
			"buffer":0,
			"byteLength":63472,
			"byteOffset":1771376,
			"target":34962
		},
		{
			"buffer":0,
			"byteLength":31736,
			"byteOffset":1834848,
			"target":34962
		},
		{
			"buffer":0,
			"byteLength":126944,
			"byteOffset":1866584,
			"target":34962
		},
		{
			"buffer":0,
			"byteLength":66156,
			"byteOffset":1993528,
			"target":34963
		},
		{
			"buffer":0,
			"byteLength":19680,
			"byteOffset":2059684,
			"target":34962
		},
		{
			"buffer":0,
			"byteLength":19680,
			"byteOffset":2079364,
			"target":34962
		},
		{
			"buffer":0,
			"byteLength":13120,
			"byteOffset":2099044,
			"target":34962
		},
		{
			"buffer":0,
			"byteLength":26240,
			"byteOffset":2112164,
			"target":34962
		},
		{
			"buffer":0,
			"byteLength":13120,
			"byteOffset":2138404,
			"target":34962
		},
		{
			"buffer":0,
			"byteLength":6560,
			"byteOffset":2151524,
			"target":34962
		},
		{
			"buffer":0,
			"byteLength":26240,
			"byteOffset":2158084,
			"target":34962
		},
		{
			"buffer":0,
			"byteLength":14592,
			"byteOffset":2184324,
			"target":34963
		},
		{
			"buffer":0,
			"byteLength":2760,
			"byteOffset":2198916,
			"target":34962
		},
		{
			"buffer":0,
			"byteLength":2760,
			"byteOffset":2201676,
			"target":34962
		},
		{
			"buffer":0,
			"byteLength":1840,
			"byteOffset":2204436,
			"target":34962
		},
		{
			"buffer":0,
			"byteLength":3680,
			"byteOffset":2206276,
			"target":34962
		},
		{
			"buffer":0,
			"byteLength":1840,
			"byteOffset":2209956,
			"target":34962
		},
		{
			"buffer":0,
			"byteLength":920,
			"byteOffset":2211796,
			"target":34962
		},
		{
			"buffer":0,
			"byteLength":3680,
			"byteOffset":2212716,
			"target":34962
		},
		{
			"buffer":0,
			"byteLength":1812,
			"byteOffset":2216396,
			"target":34963
		},
		{
			"buffer":0,
			"byteLength":1500,
			"byteOffset":2218208,
			"target":34962
		},
		{
			"buffer":0,
			"byteLength":1500,
			"byteOffset":2219708,
			"target":34962
		},
		{
			"buffer":0,
			"byteLength":1000,
			"byteOffset":2221208,
			"target":34962
		},
		{
			"buffer":0,
			"byteLength":2000,
			"byteOffset":2222208,
			"target":34962
		},
		{
			"buffer":0,
			"byteLength":1000,
			"byteOffset":2224208,
			"target":34962
		},
		{
			"buffer":0,
			"byteLength":500,
			"byteOffset":2225208,
			"target":34962
		},
		{
			"buffer":0,
			"byteLength":2000,
			"byteOffset":2225708,
			"target":34962
		},
		{
			"buffer":0,
			"byteLength":1152,
			"byteOffset":2227708,
			"target":34963
		},
		{
			"buffer":0,
			"byteLength":588,
			"byteOffset":2228860,
			"target":34962
		},
		{
			"buffer":0,
			"byteLength":588,
			"byteOffset":2229448,
			"target":34962
		},
		{
			"buffer":0,
			"byteLength":392,
			"byteOffset":2230036,
			"target":34962
		},
		{
			"buffer":0,
			"byteLength":784,
			"byteOffset":2230428,
			"target":34962
		},
		{
			"buffer":0,
			"byteLength":392,
			"byteOffset":2231212,
			"target":34962
		},
		{
			"buffer":0,
			"byteLength":196,
			"byteOffset":2231604,
			"target":34962
		},
		{
			"buffer":0,
			"byteLength":784,
			"byteOffset":2231800,
			"target":34962
		},
		{
			"buffer":0,
			"byteLength":468,
			"byteOffset":2232584,
			"target":34963
		},
		{
			"buffer":0,
			"byteLength":588,
			"byteOffset":2233052,
			"target":34962
		},
		{
			"buffer":0,
			"byteLength":588,
			"byteOffset":2233640,
			"target":34962
		},
		{
			"buffer":0,
			"byteLength":392,
			"byteOffset":2234228,
			"target":34962
		},
		{
			"buffer":0,
			"byteLength":784,
			"byteOffset":2234620,
			"target":34962
		},
		{
			"buffer":0,
			"byteLength":392,
			"byteOffset":2235404,
			"target":34962
		},
		{
			"buffer":0,
			"byteLength":196,
			"byteOffset":2235796,
			"target":34962
		},
		{
			"buffer":0,
			"byteLength":784,
			"byteOffset":2235992,
			"target":34962
		},
		{
			"buffer":0,
			"byteLength":588,
			"byteOffset":2236776,
			"target":34962
		},
		{
			"buffer":0,
			"byteLength":588,
			"byteOffset":2237364,
			"target":34962
		},
		{
			"buffer":0,
			"byteLength":392,
			"byteOffset":2237952,
			"target":34962
		},
		{
			"buffer":0,
			"byteLength":784,
			"byteOffset":2238344,
			"target":34962
		},
		{
			"buffer":0,
			"byteLength":392,
			"byteOffset":2239128,
			"target":34962
		},
		{
			"buffer":0,
			"byteLength":196,
			"byteOffset":2239520,
			"target":34962
		},
		{
			"buffer":0,
			"byteLength":784,
			"byteOffset":2239716,
			"target":34962
		}
	],
	"samplers":[
		{
			"magFilter":9729,
			"minFilter":9987
		}
	],
	"buffers":[
		{
			"byteLength":2240500,
			"uri":"model.bin"
		}
	]
}
