{
	"asset":{
		"generator":"Khronos glTF Blender I/O v4.5.48",
		"version":"2.0"
	},
	"scene":0,
	"scenes":[
		{
			"name":"Scene",
			"nodes":[
				14,
				18,
				19,
				20,
				21,
				22,
				23,
				24,
				25,
				26,
				27,
				28
			]
		}
	],
	"nodes":[
		{
			"mesh":0,
			"name":"mesh_2005146036-0_0_0_transparents"
		},
		{
			"mesh":1,
			"name":"mesh_2005146036-0_0_1_redacted16"
		},
		{
			"children":[
				0,
				1
			],
			"name":"pattern_1057680585_0_hud17"
		},
		{
			"mesh":2,
			"name":"mesh_1642902604-0_0_0_gbuffer"
		},
		{
			"children":[
				3
			],
			"name":"pattern_1482024401_0_magazine"
		},
		{
			"mesh":3,
			"name":"mesh_2623896114-0_0_0_gbuffer"
		},
		{
			"mesh":4,
			"name":"mesh_2623896114-0_0_1_decals"
		},
		{
			"mesh":5,
			"name":"mesh_2623896114-0_0_2_transparents"
		},
		{
			"children":[
				5,
				6,
				7
			],
			"name":"pattern_3213800343_0_barrel"
		},
		{
			"mesh":6,
			"name":"mesh_2088164338-0_0_0_gbuffer"
		},
		{
			"children":[
				9
			],
			"name":"pattern_4045353763_0_scope"
		},
		{
			"mesh":7,
			"name":"mesh_1517963703-0_0_0_gbuffer"
		},
		{
			"children":[
				11
			],
			"name":"pattern_964501866_0_frame"
		},
		{
			"children":[
				2,
				4,
				8,
				10,
				12
			],
			"name":"item_3_3866356643",
			"scale":[
				150,
				150,
				150
			]
		},
		{
			"children":[
				13
			],
			"name":"content",
			"scale":[
				0.07722288370132446,
				0.07722288370132446,
				0.07722288370132446
			]
		},
		{
			"name":"pattern_3525234084_0_armor_m"
		},
		{
			"name":"pattern_3525234084_1_armor_m"
		},
		{
			"children":[
				15,
				16
			],
			"name":"item_46_1108389627_m"
		},
		{
			"children":[
				17
			],
			"name":"content.001",
			"scale":[
				9.977442741394043,
				9.977442741394043,
				9.977442741394043
			],
			"translation":[
				3.7226264476776123,
				-10.295418739318848,
				-3.7886812686920166
			]
		},
		{
			"mesh":8,
			"name":"mesh_380448084-0_0_2_gbuffer",
			"rotation":[
				1,
				0,
				0,
				0
			],
			"scale":[
				-9.977442741394043,
				-9.977442741394043,
				-9.977442741394043
			],
			"translation":[
				3.7226264476776123,
				-10.295418739318848,
				-3.7886812686920166
			]
		},
		{
			"mesh":9,
			"name":"mesh_380448084-0_0_3_gbuffer",
			"rotation":[
				1,
				0,
				0,
				0
			],
			"scale":[
				-9.977442741394043,
				-9.977442741394043,
				-9.977442741394043
			],
			"translation":[
				3.7226264476776123,
				-10.295418739318848,
				-3.7886812686920166
			]
		},
		{
			"mesh":10,
			"name":"mesh_380448084-0_0_4_gbuffer",
			"rotation":[
				1,
				0,
				0,
				0
			],
			"scale":[
				-9.977442741394043,
				-9.977442741394043,
				-9.977442741394043
			],
			"translation":[
				3.7226264476776123,
				-10.295418739318848,
				-3.7886812686920166
			]
		},
		{
			"mesh":11,
			"name":"mesh_380448084-0_0_5_gbuffer",
			"rotation":[
				1,
				0,
				0,
				0
			],
			"scale":[
				-9.977442741394043,
				-9.977442741394043,
				-9.977442741394043
			],
			"translation":[
				3.7226264476776123,
				-10.295418739318848,
				-3.7886812686920166
			]
		},
		{
			"mesh":12,
			"name":"mesh_380448084-0_0_6_gbuffer",
			"rotation":[
				1,
				0,
				0,
				0
			],
			"scale":[
				-9.977442741394043,
				-9.977442741394043,
				-9.977442741394043
			],
			"translation":[
				3.7226264476776123,
				-10.295418739318848,
				-3.7886812686920166
			]
		},
		{
			"mesh":13,
			"name":"mesh_380448084-0_0_7_gbuffer",
			"rotation":[
				1,
				0,
				0,
				0
			],
			"scale":[
				-9.977442741394043,
				-9.977442741394043,
				-9.977442741394043
			],
			"translation":[
				3.7226264476776123,
				-10.295418739318848,
				-3.7886812686920166
			]
		},
		{
			"mesh":14,
			"name":"mesh_2850979613-0_0_0_gbuffer",
			"rotation":[
				1,
				0,
				0,
				0
			],
			"scale":[
				-9.977442741394043,
				-9.977442741394043,
				-9.977442741394043
			],
			"translation":[
				3.7226264476776123,
				-10.295418739318848,
				-3.7886812686920166
			]
		},
		{
			"mesh":15,
			"name":"mesh_2850979613-0_0_1_gbuffer",
			"rotation":[
				1,
				0,
				0,
				0
			],
			"scale":[
				-9.977442741394043,
				-9.977442741394043,
				-9.977442741394043
			],
			"translation":[
				3.7226264476776123,
				-10.295418739318848,
				-3.7886812686920166
			]
		},
		{
			"mesh":16,
			"name":"mesh_2850979613-0_0_2_gbuffer",
			"rotation":[
				1,
				0,
				0,
				0
			],
			"scale":[
				-9.977442741394043,
				-9.977442741394043,
				-9.977442741394043
			],
			"translation":[
				3.7226264476776123,
				-10.295418739318848,
				-3.7886812686920166
			]
		},
		{
			"mesh":17,
			"name":"mesh_2850979613-0_0_3_decals",
			"rotation":[
				1,
				0,
				0,
				0
			],
			"scale":[
				-9.977442741394043,
				-9.977442741394043,
				-9.977442741394043
			],
			"translation":[
				3.7226264476776123,
				-10.295418739318848,
				-3.7886812686920166
			]
		}
	],
	"materials":[
		{
			"alphaMode":"BLEND",
			"doubleSided":true,
			"name":"mat_3866356643_2",
			"pbrMetallicRoughness":{
				"metallicFactor":0
			}
		},
		{
			"alphaMode":"BLEND",
			"doubleSided":true,
			"name":"mat_3866356643_2.001",
			"pbrMetallicRoughness":{
				"metallicFactor":0
			}
		},
		{
			"alphaMode":"BLEND",
			"doubleSided":true,
			"name":"mat_3866356643_1",
			"normalTexture":{
				"index":0
			},
			"pbrMetallicRoughness":{
				"baseColorTexture":{
					"index":1
				},
				"metallicFactor":0
			}
		},
		{
			"alphaMode":"BLEND",
			"doubleSided":true,
			"name":"mat_3866356643_0",
			"normalTexture":{
				"index":2
			},
			"pbrMetallicRoughness":{
				"baseColorTexture":{
					"index":3
				},
				"metallicFactor":0
			}
		},
		{
			"alphaMode":"BLEND",
			"doubleSided":true,
			"name":"mat_3866356643_0.001",
			"normalTexture":{
				"index":4
			},
			"pbrMetallicRoughness":{
				"baseColorTexture":{
					"index":5
				},
				"metallicFactor":0
			}
		},
		{
			"alphaMode":"BLEND",
			"doubleSided":true,
			"name":"mat_3866356643_0.002",
			"normalTexture":{
				"index":6
			},
			"pbrMetallicRoughness":{
				"baseColorTexture":{
					"index":7
				},
				"metallicFactor":0
			}
		},
		{
			"alphaMode":"BLEND",
			"doubleSided":true,
			"name":"mat_3866356643_0.004",
			"normalTexture":{
				"index":8
			},
			"pbrMetallicRoughness":{
				"baseColorTexture":{
					"index":9
				},
				"metallicFactor":0
			}
		},
		{
			"alphaMode":"BLEND",
			"doubleSided":true,
			"name":"mat_3866356643_0.003",
			"normalTexture":{
				"index":10
			},
			"pbrMetallicRoughness":{
				"baseColorTexture":{
					"index":11
				},
				"metallicFactor":0
			}
		},
		{
			"alphaMode":"BLEND",
			"doubleSided":true,
			"name":"mat_1108389627_1.018",
			"normalTexture":{
				"index":12
			},
			"pbrMetallicRoughness":{
				"baseColorTexture":{
					"index":13
				},
				"metallicFactor":0
			}
		},
		{
			"alphaMode":"BLEND",
			"doubleSided":true,
			"name":"mat_1108389627_1.019",
			"normalTexture":{
				"index":14
			},
			"pbrMetallicRoughness":{
				"baseColorTexture":{
					"index":15
				},
				"metallicFactor":0
			}
		},
		{
			"alphaMode":"BLEND",
			"doubleSided":true,
			"name":"mat_1108389627_1.020",
			"normalTexture":{
				"index":16
			},
			"pbrMetallicRoughness":{
				"baseColorTexture":{
					"index":17
				},
				"metallicFactor":0
			}
		},
		{
			"alphaMode":"BLEND",
			"doubleSided":true,
			"name":"mat_1108389627_1.021",
			"normalTexture":{
				"index":18
			},
			"pbrMetallicRoughness":{
				"baseColorTexture":{
					"index":19
				},
				"metallicFactor":0
			}
		},
		{
			"alphaMode":"BLEND",
			"doubleSided":true,
			"name":"mat_1108389627_1.022",
			"normalTexture":{
				"index":20
			},
			"pbrMetallicRoughness":{
				"baseColorTexture":{
					"index":21
				},
				"metallicFactor":0
			}
		},
		{
			"alphaMode":"BLEND",
			"doubleSided":true,
			"name":"mat_1108389627_1.023",
			"normalTexture":{
				"index":22
			},
			"pbrMetallicRoughness":{
				"baseColorTexture":{
					"index":23
				},
				"metallicFactor":0
			}
		},
		{
			"alphaMode":"BLEND",
			"doubleSided":true,
			"name":"mat_1108389627_1.012",
			"normalTexture":{
				"index":24
			},
			"pbrMetallicRoughness":{
				"baseColorTexture":{
					"index":25
				},
				"metallicFactor":0
			}
		},
		{
			"alphaMode":"BLEND",
			"doubleSided":true,
			"name":"mat_1108389627_1.013",
			"normalTexture":{
				"index":26
			},
			"pbrMetallicRoughness":{
				"baseColorTexture":{
					"index":27
				},
				"metallicFactor":0
			}
		},
		{
			"alphaMode":"BLEND",
			"doubleSided":true,
			"name":"mat_1108389627_1.014",
			"normalTexture":{
				"index":28
			},
			"pbrMetallicRoughness":{
				"baseColorTexture":{
					"index":29
				},
				"metallicFactor":0
			}
		},
		{
			"alphaMode":"BLEND",
			"doubleSided":true,
			"name":"mat_1108389627_1.015",
			"normalTexture":{
				"index":30
			},
			"pbrMetallicRoughness":{
				"baseColorTexture":{
					"index":31
				},
				"metallicFactor":0
			}
		}
	],
	"meshes":[
		{
			"name":"Mesh_6",
			"primitives":[
				{
					"attributes":{
						"POSITION":0,
						"NORMAL":1,
						"TEXCOORD_0":2,
						"TANGENT":3,
						"COLOR_0":4
					},
					"indices":5,
					"material":0
				}
			]
		},
		{
			"name":"Mesh_7",
			"primitives":[
				{
					"attributes":{
						"POSITION":6,
						"NORMAL":7,
						"TEXCOORD_0":8,
						"TANGENT":9,
						"COLOR_0":10
					},
					"indices":11,
					"material":1
				}
			]
		},
		{
			"name":"Mesh_4",
			"primitives":[
				{
					"attributes":{
						"POSITION":12,
						"NORMAL":13,
						"TEXCOORD_0":14,
						"TANGENT":15,
						"COLOR_0":16
					},
					"indices":17,
					"material":2
				}
			]
		},
		{
			"name":"Mesh_0",
			"primitives":[
				{
					"attributes":{
						"POSITION":18,
						"NORMAL":19,
						"TEXCOORD_0":20,
						"TANGENT":21,
						"COLOR_0":22
					},
					"indices":23,
					"material":3
				}
			]
		},
		{
			"name":"Mesh_1",
			"primitives":[
				{
					"attributes":{
						"POSITION":24,
						"NORMAL":25,
						"TEXCOORD_0":26,
						"TANGENT":27,
						"COLOR_0":28
					},
					"indices":29,
					"material":4
				}
			]
		},
		{
			"name":"Mesh_2",
			"primitives":[
				{
					"attributes":{
						"POSITION":30,
						"NORMAL":31,
						"TEXCOORD_0":32,
						"TANGENT":33,
						"COLOR_0":34
					},
					"indices":35,
					"material":5
				}
			]
		},
		{
			"name":"Mesh_5",
			"primitives":[
				{
					"attributes":{
						"POSITION":36,
						"NORMAL":37,
						"TEXCOORD_0":38,
						"TANGENT":39,
						"COLOR_0":40
					},
					"indices":41,
					"material":6
				}
			]
		},
		{
			"name":"Mesh_3",
			"primitives":[
				{
					"attributes":{
						"POSITION":42,
						"NORMAL":43,
						"TEXCOORD_0":44,
						"TANGENT":45,
						"COLOR_0":46
					},
					"indices":47,
					"material":7
				}
			]
		},
		{
			"name":"Mesh_6.002",
			"primitives":[
				{
					"attributes":{
						"POSITION":48,
						"NORMAL":49,
						"TEXCOORD_0":50,
						"TANGENT":51,
						"COLOR_0":52
					},
					"indices":53,
					"material":8
				}
			]
		},
		{
			"name":"Mesh_7.002",
			"primitives":[
				{
					"attributes":{
						"POSITION":54,
						"NORMAL":55,
						"TEXCOORD_0":56,
						"TANGENT":57,
						"COLOR_0":58
					},
					"indices":59,
					"material":9
				}
			]
		},
		{
			"name":"Mesh_8.001",
			"primitives":[
				{
					"attributes":{
						"POSITION":60,
						"NORMAL":61,
						"TEXCOORD_0":62,
						"TANGENT":63,
						"COLOR_0":64
					},
					"indices":65,
					"material":10
				}
			]
		},
		{
			"name":"Mesh_9.001",
			"primitives":[
				{
					"attributes":{
						"POSITION":66,
						"NORMAL":67,
						"TEXCOORD_0":68,
						"TANGENT":69,
						"COLOR_0":70
					},
					"indices":71,
					"material":11
				}
			]
		},
		{
			"name":"Mesh_10.001",
			"primitives":[
				{
					"attributes":{
						"POSITION":72,
						"NORMAL":73,
						"TEXCOORD_0":74,
						"TANGENT":75,
						"COLOR_0":76
					},
					"indices":77,
					"material":12
				}
			]
		},
		{
			"name":"Mesh_11.001",
			"primitives":[
				{
					"attributes":{
						"POSITION":78,
						"NORMAL":79,
						"TEXCOORD_0":80,
						"TANGENT":81,
						"COLOR_0":82
					},
					"indices":83,
					"material":13
				}
			]
		},
		{
			"name":"Mesh_0.002",
			"primitives":[
				{
					"attributes":{
						"POSITION":84,
						"NORMAL":85,
						"TEXCOORD_0":86,
						"TANGENT":87,
						"COLOR_0":88
					},
					"indices":89,
					"material":14
				}
			]
		},
		{
			"name":"Mesh_1.002",
			"primitives":[
				{
					"attributes":{
						"POSITION":90,
						"NORMAL":91,
						"TEXCOORD_0":92,
						"TANGENT":93,
						"COLOR_0":94
					},
					"indices":95,
					"material":15
				}
			]
		},
		{
			"name":"Mesh_2.002",
			"primitives":[
				{
					"attributes":{
						"POSITION":96,
						"NORMAL":97,
						"TEXCOORD_0":98,
						"TANGENT":99,
						"COLOR_0":100
					},
					"indices":101,
					"material":16
				}
			]
		},
		{
			"name":"Mesh_3.002",
			"primitives":[
				{
					"attributes":{
						"POSITION":102,
						"NORMAL":103,
						"TEXCOORD_0":104,
						"TANGENT":105,
						"COLOR_0":106
					},
					"indices":107,
					"material":17
				}
			]
		}
	],
	"textures":[
		{
			"sampler":0,
			"source":0
		},
		{
			"sampler":0,
			"source":1
		},
		{
			"sampler":0,
			"source":2
		},
		{
			"sampler":0,
			"source":3
		},
		{
			"sampler":0,
			"source":2
		},
		{
			"sampler":0,
			"source":3
		},
		{
			"sampler":0,
			"source":2
		},
		{
			"sampler":0,
			"source":3
		},
		{
			"sampler":0,
			"source":2
		},
		{
			"sampler":0,
			"source":3
		},
		{
			"sampler":0,
			"source":2
		},
		{
			"sampler":0,
			"source":3
		},
		{
			"sampler":0,
			"source":4
		},
		{
			"sampler":0,
			"source":5
		},
		{
			"sampler":0,
			"source":4
		},
		{
			"sampler":0,
			"source":5
		},
		{
			"sampler":0,
			"source":6
		},
		{
			"sampler":0,
			"source":7
		},
		{
			"sampler":0,
			"source":6
		},
		{
			"sampler":0,
			"source":7
		},
		{
			"sampler":0,
			"source":4
		},
		{
			"sampler":0,
			"source":5
		},
		{
			"sampler":0,
			"source":4
		},
		{
			"sampler":0,
			"source":5
		},
		{
			"sampler":0,
			"source":6
		},
		{
			"sampler":0,
			"source":7
		},
		{
			"sampler":0,
			"source":6
		},
		{
			"sampler":0,
			"source":7
		},
		{
			"sampler":0,
			"source":6
		},
		{
			"sampler":0,
			"source":7
		},
		{
			"sampler":0,
			"source":6
		},
		{
			"sampler":0,
			"source":7
		}
	],
	"images":[
		{
			"mimeType":"image/png",
			"name":"Image_3",
			"uri":"Image_3.png"
		},
		{
			"mimeType":"image/png",
			"name":"Image_2",
			"uri":"Image_2.png"
		},
		{
			"mimeType":"image/png",
			"name":"Image_1",
			"uri":"Image_1.png"
		},
		{
			"mimeType":"image/png",
			"name":"Image_0",
			"uri":"Image_0.png"
		},
		{
			"mimeType":"image/png",
			"name":"Image_5",
			"uri":"Image_5.png"
		},
		{
			"mimeType":"image/png",
			"name":"Image_4",
			"uri":"Image_4.png"
		},
		{
			"mimeType":"image/png",
			"name":"Image_1",
			"uri":"Image_1-5.png"
		},
		{
			"mimeType":"image/png",
			"name":"Image_0",
			"uri":"Image_0-5.png"
		}
	],
	"accessors":[
		{
			"bufferView":0,
			"componentType":5126,
			"count":24,
			"max":[
				0.013571570627391338,
				0.18136200308799744,
				0.08517877012491226
			],
			"min":[
				-0.013571570627391338,
				0.16024082899093628,
				0.07917340844869614
			],
			"type":"VEC3"
		},
		{
			"bufferView":1,
			"componentType":5126,
			"count":24,
			"type":"VEC3"
		},
		{
			"bufferView":2,
			"componentType":5126,
			"count":24,
			"type":"VEC2"
		},
		{
			"bufferView":3,
			"componentType":5126,
			"count":24,
			"type":"VEC4"
		},
		{
			"bufferView":4,
			"componentType":5123,
			"count":24,
			"normalized":true,
			"type":"VEC4"
		},
		{
			"bufferView":5,
			"componentType":5123,
			"count":48,
			"type":"SCALAR"
		},
		{
			"bufferView":6,
			"componentType":5126,
			"count":4,
			"max":[
				0.008828162215650082,
				0,
				0.008722459897398949
			],
			"min":[
				-0.008828162215650082,
				0,
				-0.008720770478248596
			],
			"type":"VEC3"
		},
		{
			"bufferView":7,
			"componentType":5126,
			"count":4,
			"type":"VEC3"
		},
		{
			"bufferView":8,
			"componentType":5126,
			"count":4,
			"type":"VEC2"
		},
		{
			"bufferView":9,
			"componentType":5126,
			"count":4,
			"type":"VEC4"
		},
		{
			"bufferView":10,
			"componentType":5123,
			"count":4,
			"normalized":true,
			"type":"VEC4"
		},
		{
			"bufferView":11,
			"componentType":5123,
			"count":6,
			"type":"SCALAR"
		},
		{
			"bufferView":12,
			"componentType":5126,
			"count":1287,
			"max":[
				0.027470679953694344,
				0.14596208930015564,
				0.1860000044107437
			],
			"min":[
				-0.027768680825829506,
				0.0678299069404602,
				0.1016400009393692
			],
			"type":"VEC3"
		},
		{
			"bufferView":13,
			"componentType":5126,
			"count":1287,
			"type":"VEC3"
		},
		{
			"bufferView":14,
			"componentType":5126,
			"count":1287,
			"type":"VEC2"
		},
		{
			"bufferView":15,
			"componentType":5126,
			"count":1287,
			"type":"VEC4"
		},
		{
			"bufferView":16,
			"componentType":5123,
			"count":1287,
			"normalized":true,
			"type":"VEC4"
		},
		{
			"bufferView":17,
			"componentType":5123,
			"count":4920,
			"type":"SCALAR"
		},
		{
			"bufferView":18,
			"componentType":5126,
			"count":7912,
			"max":[
				0.046877168118953705,
				0.16553720831871033,
				0.3857399821281433
			],
			"min":[
				-0.046877168118953705,
				0.0457896925508976,
				0.053777098655700684
			],
			"type":"VEC3"
		},
		{
			"bufferView":19,
			"componentType":5126,
			"count":7912,
			"type":"VEC3"
		},
		{
			"bufferView":20,
			"componentType":5126,
			"count":7912,
			"type":"VEC2"
		},
		{
			"bufferView":21,
			"componentType":5126,
			"count":7912,
			"type":"VEC4"
		},
		{
			"bufferView":22,
			"componentType":5123,
			"count":7912,
			"normalized":true,
			"type":"VEC4"
		},
		{
			"bufferView":23,
			"componentType":5123,
			"count":25152,
			"type":"SCALAR"
		},
		{
			"bufferView":24,
			"componentType":5126,
			"count":114,
			"max":[
				0.012301275506615639,
				0.006417036056518555,
				0.009760826826095581
			],
			"min":[
				-0.012301275506615639,
				-0.011177219450473785,
				-0.015730008482933044
			],
			"type":"VEC3"
		},
		{
			"bufferView":25,
			"componentType":5126,
			"count":114,
			"type":"VEC3"
		},
		{
			"bufferView":26,
			"componentType":5126,
			"count":114,
			"type":"VEC2"
		},
		{
			"bufferView":27,
			"componentType":5126,
			"count":114,
			"type":"VEC4"
		},
		{
			"bufferView":28,
			"componentType":5123,
			"count":114,
			"normalized":true,
			"type":"VEC4"
		},
		{
			"bufferView":29,
			"componentType":5123,
			"count":144,
			"type":"SCALAR"
		},
		{
			"bufferView":30,
			"componentType":5126,
			"count":240,
			"max":[
				0.04164545238018036,
				0.12948492169380188,
				0.32905489206314087
			],
			"min":[
				-0.04164545238018036,
				0.10727769136428833,
				0.2202976495027542
			],
			"type":"VEC3"
		},
		{
			"bufferView":31,
			"componentType":5126,
			"count":240,
			"type":"VEC3"
		},
		{
			"bufferView":32,
			"componentType":5126,
			"count":240,
			"type":"VEC2"
		},
		{
			"bufferView":33,
			"componentType":5126,
			"count":240,
			"type":"VEC4"
		},
		{
			"bufferView":34,
			"componentType":5123,
			"count":240,
			"normalized":true,
			"type":"VEC4"
		},
		{
			"bufferView":35,
			"componentType":5123,
			"count":984,
			"type":"SCALAR"
		},
		{
			"bufferView":36,
			"componentType":5126,
			"count":108,
			"max":[
				0.027280371636152267,
				0.16625019907951355,
				0.3886699974536896
			],
			"min":[
				-0.027260370552539825,
				0.13358980417251587,
				0.3297099769115448
			],
			"type":"VEC3"
		},
		{
			"bufferView":37,
			"componentType":5126,
			"count":108,
			"type":"VEC3"
		},
		{
			"bufferView":38,
			"componentType":5126,
			"count":108,
			"type":"VEC2"
		},
		{
			"bufferView":39,
			"componentType":5126,
			"count":108,
			"type":"VEC4"
		},
		{
			"bufferView":40,
			"componentType":5123,
			"count":108,
			"normalized":true,
			"type":"VEC4"
		},
		{
			"bufferView":41,
			"componentType":5123,
			"count":408,
			"type":"SCALAR"
		},
		{
			"bufferView":42,
			"componentType":5126,
			"count":5690,
			"max":[
				0.03788062930107117,
				0.16016924381256104,
				0.40226998925209045
			],
			"min":[
				-0.03788062930107117,
				-0.043549250811338425,
				-0.04875999689102173
			],
			"type":"VEC3"
		},
		{
			"bufferView":43,
			"componentType":5126,
			"count":5690,
			"type":"VEC3"
		},
		{
			"bufferView":44,
			"componentType":5126,
			"count":5690,
			"type":"VEC2"
		},
		{
			"bufferView":45,
			"componentType":5126,
			"count":5690,
			"type":"VEC4"
		},
		{
			"bufferView":46,
			"componentType":5123,
			"count":5690,
			"normalized":true,
			"type":"VEC4"
		},
		{
			"bufferView":47,
			"componentType":5123,
			"count":17682,
			"type":"SCALAR"
		},
		{
			"bufferView":48,
			"componentType":5126,
			"count":1560,
			"max":[
				0.4379051625728607,
				1.1860535144805908,
				0.46760571002960205
			],
			"min":[
				0.32603520154953003,
				1.0182149410247803,
				0.25466418266296387
			],
			"type":"VEC3"
		},
		{
			"bufferView":49,
			"componentType":5126,
			"count":1560,
			"type":"VEC3"
		},
		{
			"bufferView":50,
			"componentType":5126,
			"count":1560,
			"type":"VEC2"
		},
		{
			"bufferView":51,
			"componentType":5126,
			"count":1560,
			"type":"VEC4"
		},
		{
			"bufferView":52,
			"componentType":5123,
			"count":1560,
			"normalized":true,
			"type":"VEC4"
		},
		{
			"bufferView":53,
			"componentType":5123,
			"count":7212,
			"type":"SCALAR"
		},
		{
			"bufferView":54,
			"componentType":5126,
			"count":1590,
			"max":[
				0.4396398961544037,
				1.1862417459487915,
				0.4682915210723877
			],
			"min":[
				0.3244214951992035,
				1.0179460048675537,
				0.25564584136009216
			],
			"type":"VEC3"
		},
		{
			"bufferView":55,
			"componentType":5126,
			"count":1590,
			"type":"VEC3"
		},
		{
			"bufferView":56,
			"componentType":5126,
			"count":1590,
			"type":"VEC2"
		},
		{
			"bufferView":57,
			"componentType":5126,
			"count":1590,
			"type":"VEC4"
		},
		{
			"bufferView":58,
			"componentType":5123,
			"count":1590,
			"normalized":true,
			"type":"VEC4"
		},
		{
			"bufferView":59,
			"componentType":5123,
			"count":7272,
			"type":"SCALAR"
		},
		{
			"bufferView":60,
			"componentType":5126,
			"count":298,
			"max":[
				0.44063499569892883,
				1.1603552103042603,
				0.462186336517334
			],
			"min":[
				0.32873815298080444,
				1.0226929187774658,
				0.33580654859542847
			],
			"type":"VEC3"
		},
		{
			"bufferView":61,
			"componentType":5126,
			"count":298,
			"type":"VEC3"
		},
		{
			"bufferView":62,
			"componentType":5126,
			"count":298,
			"type":"VEC2"
		},
		{
			"bufferView":63,
			"componentType":5126,
			"count":298,
			"type":"VEC4"
		},
		{
			"bufferView":64,
			"componentType":5123,
			"count":298,
			"normalized":true,
			"type":"VEC4"
		},
		{
			"bufferView":65,
			"componentType":5123,
			"count":1191,
			"type":"SCALAR"
		},
		{
			"bufferView":66,
			"componentType":5126,
			"count":288,
			"max":[
				0.44063499569892883,
				1.1634615659713745,
				0.4638134837150574
			],
			"min":[
				0.3269496262073517,
				1.0213885307312012,
				0.3370705842971802
			],
			"type":"VEC3"
		},
		{
			"bufferView":67,
			"componentType":5126,
			"count":288,
			"type":"VEC3"
		},
		{
			"bufferView":68,
			"componentType":5126,
			"count":288,
			"type":"VEC2"
		},
		{
			"bufferView":69,
			"componentType":5126,
			"count":288,
			"type":"VEC4"
		},
		{
			"bufferView":70,
			"componentType":5123,
			"count":288,
			"normalized":true,
			"type":"VEC4"
		},
		{
			"bufferView":71,
			"componentType":5123,
			"count":1131,
			"type":"SCALAR"
		},
		{
			"bufferView":72,
			"componentType":5126,
			"count":59,
			"max":[
				0.412395179271698,
				1.1527304649353027,
				0.402640700340271
			],
			"min":[
				0.33649736642837524,
				1.0626858472824097,
				0.3052537441253662
			],
			"type":"VEC3"
		},
		{
			"bufferView":73,
			"componentType":5126,
			"count":59,
			"type":"VEC3"
		},
		{
			"bufferView":74,
			"componentType":5126,
			"count":59,
			"type":"VEC2"
		},
		{
			"bufferView":75,
			"componentType":5126,
			"count":59,
			"type":"VEC4"
		},
		{
			"bufferView":76,
			"componentType":5123,
			"count":59,
			"normalized":true,
			"type":"VEC4"
		},
		{
			"bufferView":77,
			"componentType":5123,
			"count":237,
			"type":"SCALAR"
		},
		{
			"bufferView":78,
			"componentType":5126,
			"count":59,
			"max":[
				0.4131348133087158,
				1.1540080308914185,
				0.4032593071460724
			],
			"min":[
				0.332772433757782,
				1.0633716583251953,
				0.3020801544189453
			],
			"type":"VEC3"
		},
		{
			"bufferView":79,
			"componentType":5126,
			"count":59,
			"type":"VEC3"
		},
		{
			"bufferView":80,
			"componentType":5126,
			"count":59,
			"type":"VEC2"
		},
		{
			"bufferView":81,
			"componentType":5126,
			"count":59,
			"type":"VEC4"
		},
		{
			"bufferView":82,
			"componentType":5123,
			"count":59,
			"normalized":true,
			"type":"VEC4"
		},
		{
			"bufferView":83,
			"componentType":5123,
			"count":237,
			"type":"SCALAR"
		},
		{
			"bufferView":84,
			"componentType":5126,
			"count":331,
			"max":[
				0.3481457531452179,
				1.567304015159607,
				0.09337036311626434
			],
			"min":[
				0.1883217692375183,
				1.3476624488830566,
				-0.10926981270313263
			],
			"type":"VEC3"
		},
		{
			"bufferView":85,
			"componentType":5126,
			"count":331,
			"type":"VEC3"
		},
		{
			"bufferView":86,
			"componentType":5126,
			"count":331,
			"type":"VEC2"
		},
		{
			"bufferView":87,
			"componentType":5126,
			"count":331,
			"type":"VEC4"
		},
		{
			"bufferView":88,
			"componentType":5123,
			"count":331,
			"normalized":true,
			"type":"VEC4"
		},
		{
			"bufferView":89,
			"componentType":5123,
			"count":1584,
			"type":"SCALAR"
		},
		{
			"bufferView":90,
			"componentType":5126,
			"count":1282,
			"max":[
				0.45550599694252014,
				1.5607426166534424,
				0.3589281439781189
			],
			"min":[
				0.15316522121429443,
				1.079393982887268,
				-0.11232812702655792
			],
			"type":"VEC3"
		},
		{
			"bufferView":91,
			"componentType":5126,
			"count":1282,
			"type":"VEC3"
		},
		{
			"bufferView":92,
			"componentType":5126,
			"count":1282,
			"type":"VEC2"
		},
		{
			"bufferView":93,
			"componentType":5126,
			"count":1282,
			"type":"VEC4"
		},
		{
			"bufferView":94,
			"componentType":5123,
			"count":1282,
			"normalized":true,
			"type":"VEC4"
		},
		{
			"bufferView":95,
			"componentType":5123,
			"count":5613,
			"type":"SCALAR"
		},
		{
			"bufferView":96,
			"componentType":5126,
			"count":112,
			"max":[
				0.3488408327102661,
				1.525349736213684,
				0.09406542778015137
			],
			"min":[
				0.20782539248466492,
				1.3870033025741577,
				-0.10995098948478699
			],
			"type":"VEC3"
		},
		{
			"bufferView":97,
			"componentType":5126,
			"count":112,
			"type":"VEC3"
		},
		{
			"bufferView":98,
			"componentType":5126,
			"count":112,
			"type":"VEC2"
		},
		{
			"bufferView":99,
			"componentType":5126,
			"count":112,
			"type":"VEC4"
		},
		{
			"bufferView":100,
			"componentType":5123,
			"count":112,
			"normalized":true,
			"type":"VEC4"
		},
		{
			"bufferView":101,
			"componentType":5123,
			"count":552,
			"type":"SCALAR"
		},
		{
			"bufferView":102,
			"componentType":5126,
			"count":169,
			"max":[
				0.4243530333042145,
				1.5306183099746704,
				0.314888596534729
			],
			"min":[
				0.19046258926391602,
				1.1137442588806152,
				-0.1047101616859436
			],
			"type":"VEC3"
		},
		{
			"bufferView":103,
			"componentType":5126,
			"count":169,
			"type":"VEC3"
		},
		{
			"bufferView":104,
			"componentType":5126,
			"count":169,
			"type":"VEC2"
		},
		{
			"bufferView":105,
			"componentType":5126,
			"count":169,
			"type":"VEC4"
		},
		{
			"bufferView":106,
			"componentType":5123,
			"count":169,
			"normalized":true,
			"type":"VEC4"
		},
		{
			"bufferView":107,
			"componentType":5123,
			"count":636,
			"type":"SCALAR"
		}
	],
	"bufferViews":[
		{
			"buffer":0,
			"byteLength":288,
			"byteOffset":0,
			"target":34962
		},
		{
			"buffer":0,
			"byteLength":288,
			"byteOffset":288,
			"target":34962
		},
		{
			"buffer":0,
			"byteLength":192,
			"byteOffset":576,
			"target":34962
		},
		{
			"buffer":0,
			"byteLength":384,
			"byteOffset":768,
			"target":34962
		},
		{
			"buffer":0,
			"byteLength":192,
			"byteOffset":1152,
			"target":34962
		},
		{
			"buffer":0,
			"byteLength":96,
			"byteOffset":1344,
			"target":34963
		},
		{
			"buffer":0,
			"byteLength":48,
			"byteOffset":1440,
			"target":34962
		},
		{
			"buffer":0,
			"byteLength":48,
			"byteOffset":1488,
			"target":34962
		},
		{
			"buffer":0,
			"byteLength":32,
			"byteOffset":1536,
			"target":34962
		},
		{
			"buffer":0,
			"byteLength":64,
			"byteOffset":1568,
			"target":34962
		},
		{
			"buffer":0,
			"byteLength":32,
			"byteOffset":1632,
			"target":34962
		},
		{
			"buffer":0,
			"byteLength":12,
			"byteOffset":1664,
			"target":34963
		},
		{
			"buffer":0,
			"byteLength":15444,
			"byteOffset":1676,
			"target":34962
		},
		{
			"buffer":0,
			"byteLength":15444,
			"byteOffset":17120,
			"target":34962
		},
		{
			"buffer":0,
			"byteLength":10296,
			"byteOffset":32564,
			"target":34962
		},
		{
			"buffer":0,
			"byteLength":20592,
			"byteOffset":42860,
			"target":34962
		},
		{
			"buffer":0,
			"byteLength":10296,
			"byteOffset":63452,
			"target":34962
		},
		{
			"buffer":0,
			"byteLength":9840,
			"byteOffset":73748,
			"target":34963
		},
		{
			"buffer":0,
			"byteLength":94944,
			"byteOffset":83588,
			"target":34962
		},
		{
			"buffer":0,
			"byteLength":94944,
			"byteOffset":178532,
			"target":34962
		},
		{
			"buffer":0,
			"byteLength":63296,
			"byteOffset":273476,
			"target":34962
		},
		{
			"buffer":0,
			"byteLength":126592,
			"byteOffset":336772,
			"target":34962
		},
		{
			"buffer":0,
			"byteLength":63296,
			"byteOffset":463364,
			"target":34962
		},
		{
			"buffer":0,
			"byteLength":50304,
			"byteOffset":526660,
			"target":34963
		},
		{
			"buffer":0,
			"byteLength":1368,
			"byteOffset":576964,
			"target":34962
		},
		{
			"buffer":0,
			"byteLength":1368,
			"byteOffset":578332,
			"target":34962
		},
		{
			"buffer":0,
			"byteLength":912,
			"byteOffset":579700,
			"target":34962
		},
		{
			"buffer":0,
			"byteLength":1824,
			"byteOffset":580612,
			"target":34962
		},
		{
			"buffer":0,
			"byteLength":912,
			"byteOffset":582436,
			"target":34962
		},
		{
			"buffer":0,
			"byteLength":288,
			"byteOffset":583348,
			"target":34963
		},
		{
			"buffer":0,
			"byteLength":2880,
			"byteOffset":583636,
			"target":34962
		},
		{
			"buffer":0,
			"byteLength":2880,
			"byteOffset":586516,
			"target":34962
		},
		{
			"buffer":0,
			"byteLength":1920,
			"byteOffset":589396,
			"target":34962
		},
		{
			"buffer":0,
			"byteLength":3840,
			"byteOffset":591316,
			"target":34962
		},
		{
			"buffer":0,
			"byteLength":1920,
			"byteOffset":595156,
			"target":34962
		},
		{
			"buffer":0,
			"byteLength":1968,
			"byteOffset":597076,
			"target":34963
		},
		{
			"buffer":0,
			"byteLength":1296,
			"byteOffset":599044,
			"target":34962
		},
		{
			"buffer":0,
			"byteLength":1296,
			"byteOffset":600340,
			"target":34962
		},
		{
			"buffer":0,
			"byteLength":864,
			"byteOffset":601636,
			"target":34962
		},
		{
			"buffer":0,
			"byteLength":1728,
			"byteOffset":602500,
			"target":34962
		},
		{
			"buffer":0,
			"byteLength":864,
			"byteOffset":604228,
			"target":34962
		},
		{
			"buffer":0,
			"byteLength":816,
			"byteOffset":605092,
			"target":34963
		},
		{
			"buffer":0,
			"byteLength":68280,
			"byteOffset":605908,
			"target":34962
		},
		{
			"buffer":0,
			"byteLength":68280,
			"byteOffset":674188,
			"target":34962
		},
		{
			"buffer":0,
			"byteLength":45520,
			"byteOffset":742468,
			"target":34962
		},
		{
			"buffer":0,
			"byteLength":91040,
			"byteOffset":787988,
			"target":34962
		},
		{
			"buffer":0,
			"byteLength":45520,
			"byteOffset":879028,
			"target":34962
		},
		{
			"buffer":0,
			"byteLength":35364,
			"byteOffset":924548,
			"target":34963
		},
		{
			"buffer":0,
			"byteLength":18720,
			"byteOffset":959912,
			"target":34962
		},
		{
			"buffer":0,
			"byteLength":18720,
			"byteOffset":978632,
			"target":34962
		},
		{
			"buffer":0,
			"byteLength":12480,
			"byteOffset":997352,
			"target":34962
		},
		{
			"buffer":0,
			"byteLength":24960,
			"byteOffset":1009832,
			"target":34962
		},
		{
			"buffer":0,
			"byteLength":12480,
			"byteOffset":1034792,
			"target":34962
		},
		{
			"buffer":0,
			"byteLength":14424,
			"byteOffset":1047272,
			"target":34963
		},
		{
			"buffer":0,
			"byteLength":19080,
			"byteOffset":1061696,
			"target":34962
		},
		{
			"buffer":0,
			"byteLength":19080,
			"byteOffset":1080776,
			"target":34962
		},
		{
			"buffer":0,
			"byteLength":12720,
			"byteOffset":1099856,
			"target":34962
		},
		{
			"buffer":0,
			"byteLength":25440,
			"byteOffset":1112576,
			"target":34962
		},
		{
			"buffer":0,
			"byteLength":12720,
			"byteOffset":1138016,
			"target":34962
		},
		{
			"buffer":0,
			"byteLength":14544,
			"byteOffset":1150736,
			"target":34963
		},
		{
			"buffer":0,
			"byteLength":3576,
			"byteOffset":1165280,
			"target":34962
		},
		{
			"buffer":0,
			"byteLength":3576,
			"byteOffset":1168856,
			"target":34962
		},
		{
			"buffer":0,
			"byteLength":2384,
			"byteOffset":1172432,
			"target":34962
		},
		{
			"buffer":0,
			"byteLength":4768,
			"byteOffset":1174816,
			"target":34962
		},
		{
			"buffer":0,
			"byteLength":2384,
			"byteOffset":1179584,
			"target":34962
		},
		{
			"buffer":0,
			"byteLength":2382,
			"byteOffset":1181968,
			"target":34963
		},
		{
			"buffer":0,
			"byteLength":3456,
			"byteOffset":1184352,
			"target":34962
		},
		{
			"buffer":0,
			"byteLength":3456,
			"byteOffset":1187808,
			"target":34962
		},
		{
			"buffer":0,
			"byteLength":2304,
			"byteOffset":1191264,
			"target":34962
		},
		{
			"buffer":0,
			"byteLength":4608,
			"byteOffset":1193568,
			"target":34962
		},
		{
			"buffer":0,
			"byteLength":2304,
			"byteOffset":1198176,
			"target":34962
		},
		{
			"buffer":0,
			"byteLength":2262,
			"byteOffset":1200480,
			"target":34963
		},
		{
			"buffer":0,
			"byteLength":708,
			"byteOffset":1202744,
			"target":34962
		},
		{
			"buffer":0,
			"byteLength":708,
			"byteOffset":1203452,
			"target":34962
		},
		{
			"buffer":0,
			"byteLength":472,
			"byteOffset":1204160,
			"target":34962
		},
		{
			"buffer":0,
			"byteLength":944,
			"byteOffset":1204632,
			"target":34962
		},
		{
			"buffer":0,
			"byteLength":472,
			"byteOffset":1205576,
			"target":34962
		},
		{
			"buffer":0,
			"byteLength":474,
			"byteOffset":1206048,
			"target":34963
		},
		{
			"buffer":0,
			"byteLength":708,
			"byteOffset":1206524,
			"target":34962
		},
		{
			"buffer":0,
			"byteLength":708,
			"byteOffset":1207232,
			"target":34962
		},
		{
			"buffer":0,
			"byteLength":472,
			"byteOffset":1207940,
			"target":34962
		},
		{
			"buffer":0,
			"byteLength":944,
			"byteOffset":1208412,
			"target":34962
		},
		{
			"buffer":0,
			"byteLength":472,
			"byteOffset":1209356,
			"target":34962
		},
		{
			"buffer":0,
			"byteLength":474,
			"byteOffset":1209828,
			"target":34963
		},
		{
			"buffer":0,
			"byteLength":3972,
			"byteOffset":1210304,
			"target":34962
		},
		{
			"buffer":0,
			"byteLength":3972,
			"byteOffset":1214276,
			"target":34962
		},
		{
			"buffer":0,
			"byteLength":2648,
			"byteOffset":1218248,
			"target":34962
		},
		{
			"buffer":0,
			"byteLength":5296,
			"byteOffset":1220896,
			"target":34962
		},
		{
			"buffer":0,
			"byteLength":2648,
			"byteOffset":1226192,
			"target":34962
		},
		{
			"buffer":0,
			"byteLength":3168,
			"byteOffset":1228840,
			"target":34963
		},
		{
			"buffer":0,
			"byteLength":15384,
			"byteOffset":1232008,
			"target":34962
		},
		{
			"buffer":0,
			"byteLength":15384,
			"byteOffset":1247392,
			"target":34962
		},
		{
			"buffer":0,
			"byteLength":10256,
			"byteOffset":1262776,
			"target":34962
		},
		{
			"buffer":0,
			"byteLength":20512,
			"byteOffset":1273032,
			"target":34962
		},
		{
			"buffer":0,
			"byteLength":10256,
			"byteOffset":1293544,
			"target":34962
		},
		{
			"buffer":0,
			"byteLength":11226,
			"byteOffset":1303800,
			"target":34963
		},
		{
			"buffer":0,
			"byteLength":1344,
			"byteOffset":1315028,
			"target":34962
		},
		{
			"buffer":0,
			"byteLength":1344,
			"byteOffset":1316372,
			"target":34962
		},
		{
			"buffer":0,
			"byteLength":896,
			"byteOffset":1317716,
			"target":34962
		},
		{
			"buffer":0,
			"byteLength":1792,
			"byteOffset":1318612,
			"target":34962
		},
		{
			"buffer":0,
			"byteLength":896,
			"byteOffset":1320404,
			"target":34962
		},
		{
			"buffer":0,
			"byteLength":1104,
			"byteOffset":1321300,
			"target":34963
		},
		{
			"buffer":0,
			"byteLength":2028,
			"byteOffset":1322404,
			"target":34962
		},
		{
			"buffer":0,
			"byteLength":2028,
			"byteOffset":1324432,
			"target":34962
		},
		{
			"buffer":0,
			"byteLength":1352,
			"byteOffset":1326460,
			"target":34962
		},
		{
			"buffer":0,
			"byteLength":2704,
			"byteOffset":1327812,
			"target":34962
		},
		{
			"buffer":0,
			"byteLength":1352,
			"byteOffset":1330516,
			"target":34962
		},
		{
			"buffer":0,
			"byteLength":1272,
			"byteOffset":1331868,
			"target":34963
		}
	],
	"samplers":[
		{
			"magFilter":9729,
			"minFilter":9987
		}
	],
	"buffers":[
		{
			"byteLength":1333140,
			"uri":"ikelos.bin"
		}
	]
}
