{
	"asset":{
		"generator":"Khronos glTF Blender I/O v4.5.48",
		"version":"2.0"
	},
	"scene":0,
	"scenes":[
		{
			"name":"Scene",
			"nodes":[
				113
			]
		}
	],
	"nodes":[
		{
			"name":"b_l_toe",
			"rotation":[
				-1.2659740781182666e-23,
				1.0027261453362215e-23,
				8.271806125530277e-25,
				1
			],
			"translation":[
				0.02484699711203575,
				-0.09466394782066345,
				0.14091499149799347
			]
		},
		{
			"children":[
				0
			],
			"name":"b_l_foot",
			"rotation":[
				-1.2659740781182666e-23,
				4.554241428422756e-09,
				8.271806125530277e-25,
				1
			],
			"translation":[
				0.02585900016129017,
				-0.4273189306259155,
				-0.07258399575948715
			]
		},
		{
			"children":[
				1
			],
			"name":"b_l_calf",
			"rotation":[
				-2.1448651743583014e-09,
				7.011742297891033e-10,
				-1.5039698635765643e-18,
				1
			],
			"translation":[
				0.03492201119661331,
				-0.451357901096344,
				0.0015700209187343717
			]
		},
		{
			"children":[
				2
			],
			"name":"b_l_thigh",
			"rotation":[
				2.0572183956346635e-09,
				2.7213786779611837e-12,
				5.6281368878108e-21,
				1
			],
			"translation":[
				0.11189999431371689,
				-0.030086994171142578,
				0.01830499991774559
			]
		},
		{
			"name":"b_r_toe",
			"rotation":[
				-1.2659740781182666e-23,
				1.002726224222312e-23,
				1.8404768629304866e-23,
				1
			],
			"translation":[
				-0.02484700456261635,
				-0.09466397762298584,
				0.14091596007347107
			]
		},
		{
			"children":[
				4
			],
			"name":"b_r_foot",
			"rotation":[
				-1.2659740781182666e-23,
				4.55414017608291e-09,
				-8.06501097239202e-24,
				1
			],
			"translation":[
				-0.02585899643599987,
				-0.4273189306259155,
				-0.07258399575948715
			]
		},
		{
			"children":[
				5
			],
			"name":"b_r_calf",
			"rotation":[
				-2.1448651743583014e-09,
				7.011742297891033e-10,
				-1.5039698635765643e-18,
				1
			],
			"translation":[
				-0.03492201119661331,
				-0.451357901096344,
				0.001570018706843257
			]
		},
		{
			"children":[
				6
			],
			"name":"b_r_thigh",
			"rotation":[
				2.0572183956346635e-09,
				2.7213786779611837e-12,
				5.6281368878108e-21,
				1
			],
			"translation":[
				-0.11189999431371689,
				-0.030086994171142578,
				0.018304992467164993
			]
		},
		{
			"name":"b_l_grip",
			"rotation":[
				9.172669024337665e-08,
				4.8349892303892834e-24,
				-4.622231866529366e-33,
				1
			],
			"translation":[
				-0.010107994079589844,
				-0.08554995059967041,
				0.07637698203325272
			]
		},
		{
			"name":"b_l_index_3",
			"rotation":[
				-3.367645717844425e-08,
				-1.7751135443748198e-24,
				-4.468156883231212e-32,
				1
			],
			"scale":[
				1,
				0.9999999403953552,
				1
			],
			"translation":[
				-0.00827401876449585,
				-0.01802891492843628,
				0.019269002601504326
			]
		},
		{
			"children":[
				9
			],
			"name":"b_l_index_2",
			"rotation":[
				6.73529143568885e-08,
				3.550227483180092e-24,
				-3.0814879110195774e-33,
				1
			],
			"translation":[
				0.003233999013900757,
				-0.017264962196350098,
				0.04035700485110283
			]
		},
		{
			"children":[
				10
			],
			"name":"b_l_index_1",
			"rotation":[
				0,
				0,
				1.5407439555097887e-33,
				1
			],
			"translation":[
				0.012463003396987915,
				-0.035089969635009766,
				0.1009250059723854
			]
		},
		{
			"name":"b_l_middle_3",
			"rotation":[
				-4.690051014222263e-08,
				-2.472164845293947e-24,
				-5.700752635386218e-32,
				1
			],
			"translation":[
				-0.014005988836288452,
				-0.021783893927931786,
				0.014713997952640057
			]
		},
		{
			"children":[
				12
			],
			"name":"b_l_middle_2",
			"rotation":[
				6.253402062839086e-08,
				3.296219793725263e-24,
				-3.0814879110195774e-33,
				1
			],
			"translation":[
				0.003053992986679077,
				-0.028653979301452637,
				0.039639007300138474
			]
		},
		{
			"children":[
				13
			],
			"name":"b_l_middle_1",
			"rotation":[
				0,
				0,
				1.5407439555097887e-33,
				1
			],
			"translation":[
				0.02733999490737915,
				-0.05035996437072754,
				0.0889659896492958
			]
		},
		{
			"name":"b_l_pinky_3",
			"rotation":[
				2.0928768051931e-08,
				1.1031724749297824e-24,
				0,
				1
			],
			"translation":[
				-0.01666998863220215,
				-0.013495088554918766,
				0.0059200008399784565
			]
		},
		{
			"children":[
				15
			],
			"name":"b_l_pinky_2",
			"rotation":[
				0,
				0,
				1.5407439555097887e-33,
				1
			],
			"translation":[
				-0.007261008024215698,
				-0.03063499927520752,
				0.020704008638858795
			]
		},
		{
			"children":[
				16
			],
			"name":"b_l_pinky_1",
			"rotation":[
				0,
				0,
				1.5407439555097887e-33,
				1
			],
			"translation":[
				0.03530299663543701,
				-0.07847988605499268,
				0.05773599073290825
			]
		},
		{
			"name":"b_l_ring_3",
			"rotation":[
				4.440892098500626e-16,
				-4.930380657631324e-31,
				-1.5407439555097887e-33,
				1
			],
			"translation":[
				-0.019611001014709473,
				-0.019279945641756058,
				0.008944010362029076
			]
		},
		{
			"children":[
				18
			],
			"name":"b_l_ring_2",
			"rotation":[
				-6.440936317630985e-08,
				-3.395068798314887e-24,
				-6.008901426488176e-32,
				1
			],
			"scale":[
				1,
				0.9999999403953552,
				1
			],
			"translation":[
				-0.0016370117664337158,
				-0.03376394137740135,
				0.031974006444215775
			]
		},
		{
			"children":[
				19
			],
			"name":"b_l_ring_1",
			"rotation":[
				8.00625130636945e-08,
				4.220160901621342e-24,
				-3.0814879110195774e-33,
				1
			],
			"translation":[
				0.03208300471305847,
				-0.06502997875213623,
				0.07424400001764297
			]
		},
		{
			"name":"b_l_thumb_3",
			"rotation":[
				-2.9457670081001197e-08,
				-4.1533026837616724e-22,
				3.273772756667199e-29,
				1
			],
			"translation":[
				-0.009153008460998535,
				-0.015741899609565735,
				0.025844989344477654
			]
		},
		{
			"children":[
				21
			],
			"name":"b_l_thumb_2",
			"rotation":[
				5.891534726742975e-08,
				-5.9604641222676946e-08,
				-3.5116287692104047e-15,
				1
			],
			"translation":[
				-0.017729029059410095,
				-0.0190279483795166,
				0.044013045728206635
			]
		},
		{
			"children":[
				22
			],
			"name":"b_l_thumb_1",
			"rotation":[
				-3.6499344528902346e-23,
				5.9604641222676946e-08,
				-6.617444900424222e-24,
				1
			],
			"scale":[
				1,
				0.9999999403953552,
				1
			],
			"translation":[
				-0.02559599280357361,
				-0.0007900006603449583,
				0.031521987169981
			]
		},
		{
			"children":[
				8,
				11,
				14,
				17,
				20,
				23
			],
			"name":"b_l_hand",
			"rotation":[
				0,
				-1.4700210826390503e-08,
				9.926167350636332e-24,
				1
			],
			"translation":[
				0.06755398958921432,
				-0.11792910099029541,
				0.2150759994983673
			]
		},
		{
			"name":"b_l_wrist_twist_fixup",
			"rotation":[
				2.9400419876424166e-08,
				-1.4700210826390503e-08,
				-4.3219239387785955e-16,
				1
			],
			"translation":[
				0.06728797405958176,
				-0.11746609210968018,
				0.21422994136810303
			]
		},
		{
			"children":[
				24,
				25
			],
			"name":"b_l_forearm",
			"rotation":[
				-8.995589161514176e-24,
				-2.3751791644599507e-09,
				3.3087224502121107e-23,
				1
			],
			"translation":[
				0.13848000764846802,
				-0.21091794967651367,
				0.10347498953342438
			]
		},
		{
			"name":"b_l_shoulder_twist_fixup",
			"rotation":[
				1.1205723016161073e-09,
				1.1823967895649971e-23,
				1.819797347616661e-23,
				1
			],
			"translation":[
				0.0005079963593743742,
				-0.0007729529752396047,
				0.0003790005575865507
			]
		},
		{
			"children":[
				26,
				27
			],
			"name":"b_l_upperarm",
			"rotation":[
				-1.0443155233481974e-23,
				-1.5280932075256715e-10,
				2.150669592637872e-23,
				1
			],
			"translation":[
				0.1441349983215332,
				-0.019819974899291992,
				-0.03052799217402935
			]
		},
		{
			"children":[
				28
			],
			"name":"b_l_clav",
			"rotation":[
				-1.5661998364890906e-09,
				2.374207497268799e-10,
				-3.7187227926301444e-19,
				1
			],
			"translation":[
				0.04160299897193909,
				0.2151879072189331,
				0.005960994400084019
			]
		},
		{
			"name":"b_l_lower_lip_corner",
			"rotation":[
				-1.6647009827629682e-23,
				1.0233339509113648e-08,
				1.1580528575742387e-23,
				1
			],
			"translation":[
				0.016663996502757072,
				-0.023542046546936035,
				0.11917298287153244
			]
		},
		{
			"name":"b_r_lower_lip_corner",
			"rotation":[
				-1.6647009827629682e-23,
				1.0233339509113648e-08,
				1.1580528575742387e-23,
				1
			],
			"translation":[
				-0.01666400395333767,
				-0.023542046546936035,
				0.11917298287153244
			]
		},
		{
			"children":[
				30,
				31
			],
			"name":"b_jaw",
			"rotation":[
				4.1775720660552906e-08,
				-2.394290987695058e-09,
				2.395260149976004e-16,
				1
			],
			"translation":[
				4.5828593697727626e-10,
				0.0019299996783956885,
				-0.010715999640524387
			]
		},
		{
			"name":"b_l_brow_1",
			"rotation":[
				-3.308722765756473e-23,
				-2.1383252502005234e-08,
				7.507352576716803e-23,
				1
			],
			"scale":[
				1,
				0.9999999403953552,
				1
			],
			"translation":[
				0.01491999439895153,
				0.07179605215787888,
				0.12245597690343857
			]
		},
		{
			"name":"b_l_eye",
			"rotation":[
				-3.3087224502121107e-23,
				-2.1383254278362074e-08,
				0,
				1
			],
			"translation":[
				0.03359099477529526,
				0.055053941905498505,
				0.09063197672367096
			]
		},
		{
			"name":"b_l_upper_eyelid",
			"rotation":[
				-3.3087224502121107e-23,
				-2.1383254278362074e-08,
				0,
				1
			],
			"translation":[
				0.03359099477529526,
				0.05555497854948044,
				0.09063198417425156
			]
		},
		{
			"name":"b_l_upper_lip_corner",
			"rotation":[
				-3.3087224502121107e-23,
				-2.1383254278362074e-08,
				0,
				1
			],
			"translation":[
				0.01683499477803707,
				-0.01284397579729557,
				0.10949099063873291
			]
		},
		{
			"name":"b_r_brow_1",
			"rotation":[
				-3.308722765756473e-23,
				-2.1383252502005234e-08,
				7.507352576716803e-23,
				1
			],
			"scale":[
				1,
				0.9999999403953552,
				1
			],
			"translation":[
				-0.014920005574822426,
				0.07179605215787888,
				0.12245597690343857
			]
		},
		{
			"name":"b_r_eye",
			"rotation":[
				-3.3087224502121107e-23,
				-2.1383254278362074e-08,
				0,
				1
			],
			"translation":[
				-0.033591002225875854,
				0.055053941905498505,
				0.09063197672367096
			]
		},
		{
			"name":"b_r_upper_eyelid",
			"rotation":[
				-3.3087224502121107e-23,
				-2.1383254278362074e-08,
				0,
				1
			],
			"translation":[
				-0.033591002225875854,
				0.05555497854948044,
				0.09063198417425156
			]
		},
		{
			"name":"b_r_upper_lip_corner",
			"rotation":[
				-3.3087224502121107e-23,
				-2.1383254278362074e-08,
				0,
				1
			],
			"translation":[
				-0.016835005953907967,
				-0.01284397579729557,
				0.10949099063873291
			]
		},
		{
			"children":[
				32,
				33,
				34,
				35,
				36,
				37,
				38,
				39,
				40
			],
			"name":"b_head",
			"rotation":[
				-4.276650855672415e-08,
				2.684831912347363e-09,
				-1.1482090112381637e-16,
				1
			],
			"translation":[
				-4.894872285277074e-10,
				0.048056960105895996,
				0.013088998384773731
			]
		},
		{
			"children":[
				41
			],
			"name":"b_neck_2",
			"rotation":[
				-1.0805046751473924e-23,
				-4.440892098500626e-14,
				-4.963083675318166e-24,
				1
			],
			"translation":[
				-4.894510907682559e-10,
				0.04805707931518555,
				0.013087999075651169
			]
		},
		{
			"children":[
				42
			],
			"name":"b_neck_1",
			"rotation":[
				-1.0805046751473924e-23,
				1.707688213059555e-09,
				-8.271806125530277e-25,
				1
			],
			"translation":[
				9.528429156802076e-10,
				0.291300892829895,
				-0.028040003031492233
			]
		},
		{
			"name":"b_r_grip",
			"rotation":[
				9.172640602628235e-08,
				7.105427357601002e-15,
				8.66885281955573e-22,
				1
			],
			"translation":[
				0.010107980109751225,
				-0.08554792404174805,
				0.0763770267367363
			]
		},
		{
			"name":"b_r_index_3",
			"rotation":[
				-3.3676744948252235e-08,
				1.6818042444946287e-22,
				2.6469779601696886e-23,
				1
			],
			"translation":[
				0.008273011073470116,
				-0.018027961254119873,
				0.019270027056336403
			]
		},
		{
			"children":[
				45
			],
			"name":"b_r_index_2",
			"rotation":[
				6.735348279107711e-08,
				5.960464477539063e-08,
				4.014580416147537e-15,
				1
			],
			"translation":[
				-0.003233999013900757,
				-0.017264962196350098,
				0.040356021374464035
			]
		},
		{
			"children":[
				46
			],
			"name":"b_r_index_1",
			"rotation":[
				1.6543612251060553e-24,
				-5.960463766996327e-08,
				-5.2112378590840744e-23,
				1
			],
			"translation":[
				-0.012463020160794258,
				-0.03509199619293213,
				0.1009250208735466
			]
		},
		{
			"name":"b_r_middle_3",
			"rotation":[
				-4.690237886961768e-08,
				-2.472293232406272e-24,
				-5.700752635386218e-32,
				1
			],
			"translation":[
				0.014005005359649658,
				-0.02178294025361538,
				0.014713997952640057
			]
		},
		{
			"children":[
				48
			],
			"name":"b_r_middle_2",
			"rotation":[
				6.253652173882074e-08,
				3.2963933431244115e-24,
				-3.0814879110195774e-33,
				1
			],
			"translation":[
				-0.003053992986679077,
				-0.028654098510742188,
				0.039640020579099655
			]
		},
		{
			"children":[
				49
			],
			"name":"b_r_middle_1",
			"rotation":[
				1.6543612251060553e-24,
				-5.960463766996327e-08,
				-5.2112378590840744e-23,
				1
			],
			"translation":[
				-0.027340009808540344,
				-0.050363898277282715,
				0.08896603435277939
			]
		},
		{
			"name":"b_r_pinky_3",
			"rotation":[
				2.0929103783373648e-08,
				1.1032043251888307e-24,
				0,
				1
			],
			"translation":[
				0.01666998863220215,
				-0.013494969345629215,
				0.005918987561017275
			]
		},
		{
			"children":[
				51
			],
			"name":"b_r_pinky_2",
			"rotation":[
				0,
				3.0814879110195774e-33,
				1.5407439555097887e-33,
				1
			],
			"translation":[
				0.007261008024215698,
				-0.030634045600891113,
				0.020705021917819977
			]
		},
		{
			"children":[
				52
			],
			"name":"b_r_pinky_1",
			"rotation":[
				1.6543612251060553e-24,
				-5.960463766996327e-08,
				-5.2112378590840744e-23,
				1
			],
			"translation":[
				-0.03530300781130791,
				-0.07847988605499268,
				0.057736027985811234
			]
		},
		{
			"name":"b_r_ring_3",
			"rotation":[
				0,
				-7.415292509077511e-29,
				1.8143800820083272e-29,
				1
			],
			"translation":[
				0.019611001014709473,
				-0.019281018525362015,
				0.00894499383866787
			]
		},
		{
			"children":[
				54
			],
			"name":"b_r_ring_2",
			"rotation":[
				-6.440696864729034e-08,
				-3.552714949349922e-15,
				4.145643538569573e-22,
				1
			],
			"translation":[
				0.0016370117664337158,
				-0.033762868493795395,
				0.031974006444215775
			]
		},
		{
			"children":[
				55
			],
			"name":"b_r_ring_1",
			"rotation":[
				8.006372809177265e-08,
				-5.960463411724959e-08,
				-4.772169225270625e-15,
				1
			],
			"translation":[
				-0.032083019614219666,
				-0.06503498554229736,
				0.07424404472112656
			]
		},
		{
			"name":"b_r_thumb_3",
			"rotation":[
				-2.9457670081001197e-08,
				-1.5527573210201732e-24,
				-6.471124613141112e-32,
				1
			],
			"translation":[
				0.009153008460998535,
				-0.015741899609565735,
				0.025844989344477654
			]
		},
		{
			"children":[
				57
			],
			"name":"b_r_thumb_2",
			"rotation":[
				5.891534726742975e-08,
				3.105515825331704e-24,
				-1.5407439555097887e-33,
				1
			],
			"translation":[
				0.0177290141582489,
				-0.019028067588806152,
				0.04401401802897453
			]
		},
		{
			"children":[
				58
			],
			"name":"b_r_thumb_1",
			"rotation":[
				1.6543612251060553e-24,
				-5.960463766996327e-08,
				-5.2112378590840744e-23,
				1
			],
			"translation":[
				0.025595983490347862,
				-0.0007948882412165403,
				0.03152203559875488
			]
		},
		{
			"children":[
				44,
				47,
				50,
				53,
				56,
				59
			],
			"name":"b_r_hand",
			"rotation":[
				-3.6499344528902346e-23,
				4.4904425067215925e-08,
				7.444625512977249e-24,
				1
			],
			"scale":[
				1,
				0.9999999403953552,
				1
			],
			"translation":[
				-0.06755400449037552,
				-0.11792910099029541,
				0.21507495641708374
			]
		},
		{
			"name":"b_r_wrist_twist_fixup",
			"rotation":[
				2.9400419876424166e-08,
				-1.4700210826390503e-08,
				-4.3219231446852075e-16,
				1
			],
			"translation":[
				-0.06728798896074295,
				-0.11746609210968018,
				0.21422997117042542
			]
		},
		{
			"children":[
				60,
				61
			],
			"name":"b_r_forearm",
			"rotation":[
				-8.995589161514176e-24,
				-2.375411867205912e-09,
				8.271806125530277e-24,
				1
			],
			"translation":[
				-0.13847801089286804,
				-0.2109149694442749,
				0.10347398370504379
			]
		},
		{
			"name":"b_r_shoulder_twist_fixup",
			"rotation":[
				1.120587844738452e-09,
				1.1823987617172601e-23,
				1.6543612251060553e-23,
				1
			],
			"translation":[
				-0.0005079946131445467,
				-0.0007729529752396047,
				0.0003789990150835365
			]
		},
		{
			"children":[
				62,
				63
			],
			"name":"b_r_upperarm",
			"rotation":[
				-1.0443155233481974e-23,
				-1.524664838825629e-10,
				9.926167350636332e-24,
				1
			],
			"translation":[
				-0.1441349983215332,
				-0.01982700824737549,
				-0.030528005212545395
			]
		},
		{
			"children":[
				64
			],
			"name":"b_r_clav",
			"rotation":[
				-1.5661902885710788e-09,
				2.3731061560283706e-10,
				-3.7169443543131554e-19,
				1
			],
			"translation":[
				-0.04160299897193909,
				0.21519196033477783,
				0.005960999056696892
			]
		},
		{
			"children":[
				29,
				43,
				65
			],
			"name":"b_spine_3",
			"rotation":[
				2.1238475422791225e-09,
				-1.7434693688755942e-09,
				-3.702864085926278e-18,
				1
			],
			"translation":[
				5.213741660625715e-10,
				0.09844601154327393,
				-0.013915000483393669
			]
		},
		{
			"children":[
				66
			],
			"name":"b_spine_2",
			"rotation":[
				-8.37448999035928e-11,
				8.374456683668541e-11,
				-3.1307361366526975e-18,
				1
			],
			"translation":[
				3.610509701406977e-17,
				0.09987103939056396,
				-2.814921629124001e-10
			]
		},
		{
			"children":[
				67
			],
			"name":"b_spine_1",
			"rotation":[
				-1.536230698206964e-09,
				2.1954793538725426e-09,
				-5.393019070498728e-17,
				1
			],
			"translation":[
				-7.765174543953798e-18,
				0.05659806728363037,
				9.163514391730132e-11
			]
		},
		{
			"children":[
				3,
				7,
				68
			],
			"name":"b_pelvis",
			"rotation":[
				-3.697785493223493e-31,
				-6.592486556655786e-10,
				3.4512664603419266e-31,
				1
			],
			"translation":[
				-4.0389649957894846e-10,
				1.034436821937561,
				0.011799990199506283
			]
		},
		{
			"name":"b_utility",
			"rotation":[
				0,
				1.0025483360881847e-23,
				3.4512664603419266e-31,
				1
			]
		},
		{
			"children":[
				69,
				70
			],
			"name":"b_pedestal",
			"rotation":[
				-8.557136332854043e-09,
				1.7114272665708086e-08,
				-2.928983286277023e-16,
				1
			]
		},
		{
			"mesh":0,
			"name":"mesh_1119303836-0_0_0_gbuffer",
			"skin":0
		},
		{
			"mesh":1,
			"name":"mesh_1119303836-0_0_1_gbuffer",
			"skin":0
		},
		{
			"mesh":2,
			"name":"mesh_1119303836-0_0_2_gbuffer",
			"skin":0
		},
		{
			"mesh":3,
			"name":"mesh_1119303836-0_0_3_gbuffer",
			"skin":0
		},
		{
			"mesh":4,
			"name":"mesh_1119303836-0_0_4_gbuffer",
			"skin":0
		},
		{
			"mesh":5,
			"name":"mesh_1119303836-0_0_5_gbuffer",
			"skin":0
		},
		{
			"mesh":6,
			"name":"mesh_324680165-0_0_0_gbuffer",
			"skin":0
		},
		{
			"mesh":7,
			"name":"mesh_324680165-0_0_1_gbuffer",
			"skin":0
		},
		{
			"mesh":8,
			"name":"mesh_324680165-0_0_2_gbuffer",
			"skin":0
		},
		{
			"mesh":9,
			"name":"mesh_380448084-0_0_0_gbuffer",
			"skin":0
		},
		{
			"mesh":10,
			"name":"mesh_380448084-0_0_1_gbuffer",
			"skin":0
		},
		{
			"mesh":11,
			"name":"mesh_380448084-0_0_2_gbuffer",
			"skin":0
		},
		{
			"mesh":12,
			"name":"mesh_380448084-0_0_3_gbuffer",
			"skin":0
		},
		{
			"mesh":13,
			"name":"mesh_380448084-0_0_4_gbuffer",
			"skin":0
		},
		{
			"mesh":14,
			"name":"mesh_380448084-0_0_5_gbuffer",
			"skin":0
		},
		{
			"mesh":15,
			"name":"mesh_380448084-0_0_6_gbuffer",
			"skin":0
		},
		{
			"mesh":16,
			"name":"mesh_380448084-0_0_7_gbuffer",
			"skin":0
		},
		{
			"mesh":17,
			"name":"mesh_4040759427-0_0_0_gbuffer",
			"skin":0
		},
		{
			"mesh":18,
			"name":"mesh_4040759427-0_0_1_gbuffer",
			"skin":0
		},
		{
			"mesh":19,
			"name":"mesh_4165595996-0_0_0_gbuffer",
			"skin":0
		},
		{
			"mesh":20,
			"name":"mesh_4165595996-0_0_1_gbuffer",
			"skin":0
		},
		{
			"mesh":21,
			"name":"mesh_4165595996-0_0_2_gbuffer",
			"skin":0
		},
		{
			"mesh":22,
			"name":"mesh_4165595996-0_0_3_gbuffer",
			"skin":0
		},
		{
			"mesh":23,
			"name":"mesh_4165595996-0_0_4_transparents",
			"skin":0
		},
		{
			"mesh":24,
			"name":"mesh_619076964-1_0_0_gbuffer",
			"skin":0
		},
		{
			"mesh":25,
			"name":"mesh_619076964-1_0_1_gbuffer",
			"skin":0
		},
		{
			"mesh":26,
			"name":"mesh_679377417-0_0_0_gbuffer",
			"skin":0
		},
		{
			"mesh":27,
			"name":"mesh_679377417-0_0_1_gbuffer",
			"skin":0
		},
		{
			"children":[
				72,
				73,
				74,
				75,
				76,
				77,
				78,
				79,
				80,
				81,
				82,
				83,
				84,
				85,
				86,
				87,
				88,
				89,
				90,
				91,
				92,
				93,
				94,
				95,
				96,
				97,
				98,
				99,
				71
			],
			"name":"20_skeleton"
		},
		{
			"name":"pattern_4262023053_0_armor_m"
		},
		{
			"children":[
				101
			],
			"name":"item_45_2472794149_m"
		},
		{
			"name":"pattern_1757696624_0_armor_m"
		},
		{
			"name":"pattern_1757696624_1_armor_m"
		},
		{
			"children":[
				103,
				104
			],
			"name":"item_46_2153222031_m"
		},
		{
			"name":"pattern_898108616_0_armor_m"
		},
		{
			"name":"pattern_898108616_1_armor_m"
		},
		{
			"children":[
				106,
				107
			],
			"name":"item_47_874272413_m"
		},
		{
			"name":"pattern_1688621754_0_armor_m"
		},
		{
			"children":[
				109
			],
			"name":"item_48_2769298993_m"
		},
		{
			"name":"pattern_422545437_0_armor_m"
		},
		{
			"children":[
				111
			],
			"name":"item_49_581908797_m"
		},
		{
			"children":[
				100,
				102,
				105,
				108,
				110,
				112
			],
			"name":"content"
		}
	],
	"materials":[
		{
			"alphaMode":"BLEND",
			"doubleSided":true,
			"name":"mat_2472794149_2",
			"normalTexture":{
				"index":0
			},
			"pbrMetallicRoughness":{
				"baseColorTexture":{
					"index":1
				},
				"metallicFactor":0
			}
		},
		{
			"alphaMode":"BLEND",
			"doubleSided":true,
			"name":"mat_2472794149_2.001",
			"normalTexture":{
				"index":2
			},
			"pbrMetallicRoughness":{
				"baseColorTexture":{
					"index":3
				},
				"metallicFactor":0
			}
		},
		{
			"alphaMode":"BLEND",
			"doubleSided":true,
			"name":"mat_2472794149_2.002",
			"normalTexture":{
				"index":4
			},
			"pbrMetallicRoughness":{
				"baseColorTexture":{
					"index":5
				},
				"metallicFactor":0
			}
		},
		{
			"alphaMode":"BLEND",
			"doubleSided":true,
			"name":"mat_2472794149_2.003",
			"normalTexture":{
				"index":6
			},
			"pbrMetallicRoughness":{
				"baseColorTexture":{
					"index":7
				},
				"metallicFactor":0
			}
		},
		{
			"alphaMode":"BLEND",
			"doubleSided":true,
			"name":"mat_2472794149_2.004",
			"normalTexture":{
				"index":8
			},
			"pbrMetallicRoughness":{
				"baseColorTexture":{
					"index":9
				},
				"metallicFactor":0
			}
		},
		{
			"alphaMode":"BLEND",
			"doubleSided":true,
			"name":"mat_2472794149_2.005",
			"normalTexture":{
				"index":10
			},
			"pbrMetallicRoughness":{
				"baseColorTexture":{
					"index":11
				},
				"metallicFactor":0
			}
		},
		{
			"alphaMode":"BLEND",
			"doubleSided":true,
			"name":"mat_874272413_0",
			"normalTexture":{
				"index":12
			},
			"pbrMetallicRoughness":{
				"baseColorTexture":{
					"index":13
				},
				"metallicFactor":0
			}
		},
		{
			"alphaMode":"BLEND",
			"doubleSided":true,
			"name":"mat_874272413_0.001",
			"normalTexture":{
				"index":14
			},
			"pbrMetallicRoughness":{
				"baseColorTexture":{
					"index":15
				},
				"metallicFactor":0
			}
		},
		{
			"alphaMode":"BLEND",
			"doubleSided":true,
			"name":"mat_874272413_0.002",
			"normalTexture":{
				"index":16
			},
			"pbrMetallicRoughness":{
				"baseColorTexture":{
					"index":17
				},
				"metallicFactor":0
			}
		},
		{
			"alphaMode":"BLEND",
			"doubleSided":true,
			"name":"mat_2153222031_1.002",
			"normalTexture":{
				"index":18
			},
			"pbrMetallicRoughness":{
				"baseColorTexture":{
					"index":19
				},
				"metallicFactor":0
			}
		},
		{
			"alphaMode":"BLEND",
			"doubleSided":true,
			"name":"mat_2153222031_1.003",
			"normalTexture":{
				"index":20
			},
			"pbrMetallicRoughness":{
				"baseColorTexture":{
					"index":21
				},
				"metallicFactor":0
			}
		},
		{
			"alphaMode":"BLEND",
			"doubleSided":true,
			"name":"mat_2153222031_1.004",
			"normalTexture":{
				"index":22
			},
			"pbrMetallicRoughness":{
				"baseColorTexture":{
					"index":23
				},
				"metallicFactor":0
			}
		},
		{
			"alphaMode":"BLEND",
			"doubleSided":true,
			"name":"mat_2153222031_1.005",
			"normalTexture":{
				"index":24
			},
			"pbrMetallicRoughness":{
				"baseColorTexture":{
					"index":25
				},
				"metallicFactor":0
			}
		},
		{
			"alphaMode":"BLEND",
			"doubleSided":true,
			"name":"mat_2153222031_1.006",
			"normalTexture":{
				"index":26
			},
			"pbrMetallicRoughness":{
				"baseColorTexture":{
					"index":27
				},
				"metallicFactor":0
			}
		},
		{
			"alphaMode":"BLEND",
			"doubleSided":true,
			"name":"mat_2153222031_1.007",
			"normalTexture":{
				"index":28
			},
			"pbrMetallicRoughness":{
				"baseColorTexture":{
					"index":29
				},
				"metallicFactor":0
			}
		},
		{
			"alphaMode":"BLEND",
			"doubleSided":true,
			"name":"mat_2153222031_1.008",
			"normalTexture":{
				"index":30
			},
			"pbrMetallicRoughness":{
				"baseColorTexture":{
					"index":31
				},
				"metallicFactor":0
			}
		},
		{
			"alphaMode":"BLEND",
			"doubleSided":true,
			"name":"mat_2153222031_1.009",
			"normalTexture":{
				"index":32
			},
			"pbrMetallicRoughness":{
				"baseColorTexture":{
					"index":33
				},
				"metallicFactor":0
			}
		},
		{
			"alphaMode":"BLEND",
			"doubleSided":true,
			"name":"mat_2769298993_1",
			"normalTexture":{
				"index":34
			},
			"pbrMetallicRoughness":{
				"baseColorTexture":{
					"index":35
				},
				"metallicFactor":0
			}
		},
		{
			"alphaMode":"BLEND",
			"doubleSided":true,
			"name":"mat_2769298993_1.001",
			"normalTexture":{
				"index":36
			},
			"pbrMetallicRoughness":{
				"baseColorTexture":{
					"index":37
				},
				"metallicFactor":0
			}
		},
		{
			"alphaMode":"BLEND",
			"doubleSided":true,
			"name":"mat_581908797_1",
			"normalTexture":{
				"index":38
			},
			"pbrMetallicRoughness":{
				"baseColorTexture":{
					"index":39
				},
				"metallicFactor":0
			}
		},
		{
			"alphaMode":"BLEND",
			"doubleSided":true,
			"name":"mat_581908797_1.001",
			"normalTexture":{
				"index":40
			},
			"pbrMetallicRoughness":{
				"baseColorTexture":{
					"index":41
				},
				"metallicFactor":0
			}
		},
		{
			"alphaMode":"BLEND",
			"doubleSided":true,
			"name":"mat_581908797_1.002",
			"normalTexture":{
				"index":42
			},
			"pbrMetallicRoughness":{
				"baseColorTexture":{
					"index":43
				},
				"metallicFactor":0
			}
		},
		{
			"alphaMode":"BLEND",
			"doubleSided":true,
			"name":"mat_581908797_1.003",
			"normalTexture":{
				"index":44
			},
			"pbrMetallicRoughness":{
				"baseColorTexture":{
					"index":45
				},
				"metallicFactor":0
			}
		},
		{
			"alphaMode":"BLEND",
			"doubleSided":true,
			"name":"mat_581908797_1.004",
			"normalTexture":{
				"index":46
			},
			"pbrMetallicRoughness":{
				"baseColorTexture":{
					"index":47
				},
				"metallicFactor":0
			}
		},
		{
			"alphaMode":"BLEND",
			"doubleSided":true,
			"name":"mat_874272413_0.003",
			"normalTexture":{
				"index":48
			},
			"pbrMetallicRoughness":{
				"baseColorTexture":{
					"index":49
				},
				"metallicFactor":0
			}
		},
		{
			"alphaMode":"BLEND",
			"doubleSided":true,
			"name":"mat_874272413_0.004",
			"normalTexture":{
				"index":50
			},
			"pbrMetallicRoughness":{
				"baseColorTexture":{
					"index":51
				},
				"metallicFactor":0
			}
		},
		{
			"alphaMode":"BLEND",
			"doubleSided":true,
			"name":"mat_2153222031_1",
			"normalTexture":{
				"index":52
			},
			"pbrMetallicRoughness":{
				"baseColorTexture":{
					"index":53
				},
				"metallicFactor":0
			}
		},
		{
			"alphaMode":"BLEND",
			"doubleSided":true,
			"name":"mat_2153222031_1.001",
			"normalTexture":{
				"index":54
			},
			"pbrMetallicRoughness":{
				"baseColorTexture":{
					"index":55
				},
				"metallicFactor":0
			}
		}
	],
	"meshes":[
		{
			"name":"Mesh_0",
			"primitives":[
				{
					"attributes":{
						"POSITION":0,
						"NORMAL":1,
						"TEXCOORD_0":2,
						"TANGENT":3,
						"COLOR_0":4,
						"JOINTS_0":5,
						"WEIGHTS_0":6
					},
					"indices":7,
					"material":0
				}
			]
		},
		{
			"name":"Mesh_1",
			"primitives":[
				{
					"attributes":{
						"POSITION":9,
						"NORMAL":10,
						"TEXCOORD_0":11,
						"TANGENT":12,
						"COLOR_0":13,
						"JOINTS_0":14,
						"WEIGHTS_0":15
					},
					"indices":16,
					"material":1
				}
			]
		},
		{
			"name":"Mesh_2",
			"primitives":[
				{
					"attributes":{
						"POSITION":17,
						"NORMAL":18,
						"TEXCOORD_0":19,
						"TANGENT":20,
						"COLOR_0":21,
						"JOINTS_0":22,
						"WEIGHTS_0":23
					},
					"indices":24,
					"material":2
				}
			]
		},
		{
			"name":"Mesh_3",
			"primitives":[
				{
					"attributes":{
						"POSITION":25,
						"NORMAL":26,
						"TEXCOORD_0":27,
						"TANGENT":28,
						"COLOR_0":29,
						"JOINTS_0":30,
						"WEIGHTS_0":31
					},
					"indices":32,
					"material":3
				}
			]
		},
		{
			"name":"Mesh_4",
			"primitives":[
				{
					"attributes":{
						"POSITION":33,
						"NORMAL":34,
						"TEXCOORD_0":35,
						"TANGENT":36,
						"COLOR_0":37,
						"JOINTS_0":38,
						"WEIGHTS_0":39
					},
					"indices":40,
					"material":4
				}
			]
		},
		{
			"name":"Mesh_5",
			"primitives":[
				{
					"attributes":{
						"POSITION":41,
						"NORMAL":42,
						"TEXCOORD_0":43,
						"TANGENT":44,
						"COLOR_0":45,
						"JOINTS_0":46,
						"WEIGHTS_0":47
					},
					"indices":48,
					"material":5
				}
			]
		},
		{
			"name":"Mesh_16",
			"primitives":[
				{
					"attributes":{
						"POSITION":49,
						"NORMAL":50,
						"TEXCOORD_0":51,
						"TANGENT":52,
						"COLOR_0":53,
						"JOINTS_0":54,
						"WEIGHTS_0":55
					},
					"indices":56,
					"material":6
				}
			]
		},
		{
			"name":"Mesh_17",
			"primitives":[
				{
					"attributes":{
						"POSITION":57,
						"NORMAL":58,
						"TEXCOORD_0":59,
						"TANGENT":60,
						"COLOR_0":61,
						"JOINTS_0":62,
						"WEIGHTS_0":63
					},
					"indices":64,
					"material":7
				}
			]
		},
		{
			"name":"Mesh_18",
			"primitives":[
				{
					"attributes":{
						"POSITION":65,
						"NORMAL":66,
						"TEXCOORD_0":67,
						"TANGENT":68,
						"COLOR_0":69,
						"JOINTS_0":70,
						"WEIGHTS_0":71
					},
					"indices":72,
					"material":8
				}
			]
		},
		{
			"name":"Mesh_8",
			"primitives":[
				{
					"attributes":{
						"POSITION":73,
						"NORMAL":74,
						"TEXCOORD_0":75,
						"TANGENT":76,
						"COLOR_0":77,
						"JOINTS_0":78,
						"WEIGHTS_0":79
					},
					"indices":80,
					"material":9
				}
			]
		},
		{
			"name":"Mesh_9",
			"primitives":[
				{
					"attributes":{
						"POSITION":81,
						"NORMAL":82,
						"TEXCOORD_0":83,
						"TANGENT":84,
						"COLOR_0":85,
						"JOINTS_0":86,
						"WEIGHTS_0":87
					},
					"indices":88,
					"material":10
				}
			]
		},
		{
			"name":"Mesh_10",
			"primitives":[
				{
					"attributes":{
						"POSITION":89,
						"NORMAL":90,
						"TEXCOORD_0":91,
						"TANGENT":92,
						"COLOR_0":93,
						"JOINTS_0":94,
						"WEIGHTS_0":95
					},
					"indices":96,
					"material":11
				}
			]
		},
		{
			"name":"Mesh_11",
			"primitives":[
				{
					"attributes":{
						"POSITION":97,
						"NORMAL":98,
						"TEXCOORD_0":99,
						"TANGENT":100,
						"COLOR_0":101,
						"JOINTS_0":102,
						"WEIGHTS_0":103
					},
					"indices":104,
					"material":12
				}
			]
		},
		{
			"name":"Mesh_12",
			"primitives":[
				{
					"attributes":{
						"POSITION":105,
						"NORMAL":106,
						"TEXCOORD_0":107,
						"TANGENT":108,
						"COLOR_0":109,
						"JOINTS_0":110,
						"WEIGHTS_0":111
					},
					"indices":112,
					"material":13
				}
			]
		},
		{
			"name":"Mesh_13",
			"primitives":[
				{
					"attributes":{
						"POSITION":113,
						"NORMAL":114,
						"TEXCOORD_0":115,
						"TANGENT":116,
						"COLOR_0":117,
						"JOINTS_0":118,
						"WEIGHTS_0":119
					},
					"indices":120,
					"material":14
				}
			]
		},
		{
			"name":"Mesh_14",
			"primitives":[
				{
					"attributes":{
						"POSITION":121,
						"NORMAL":122,
						"TEXCOORD_0":123,
						"TANGENT":124,
						"COLOR_0":125,
						"JOINTS_0":126,
						"WEIGHTS_0":127
					},
					"indices":128,
					"material":15
				}
			]
		},
		{
			"name":"Mesh_15",
			"primitives":[
				{
					"attributes":{
						"POSITION":129,
						"NORMAL":130,
						"TEXCOORD_0":131,
						"TANGENT":132,
						"COLOR_0":133,
						"JOINTS_0":134,
						"WEIGHTS_0":135
					},
					"indices":136,
					"material":16
				}
			]
		},
		{
			"name":"Mesh_21",
			"primitives":[
				{
					"attributes":{
						"POSITION":137,
						"NORMAL":138,
						"TEXCOORD_0":139,
						"TANGENT":140,
						"COLOR_0":141,
						"JOINTS_0":142,
						"WEIGHTS_0":143
					},
					"indices":144,
					"material":17
				}
			]
		},
		{
			"name":"Mesh_22",
			"primitives":[
				{
					"attributes":{
						"POSITION":145,
						"NORMAL":146,
						"TEXCOORD_0":147,
						"TANGENT":148,
						"COLOR_0":149,
						"JOINTS_0":150,
						"WEIGHTS_0":151
					},
					"indices":152,
					"material":18
				}
			]
		},
		{
			"name":"Mesh_23",
			"primitives":[
				{
					"attributes":{
						"POSITION":153,
						"NORMAL":154,
						"TEXCOORD_0":155,
						"TANGENT":156,
						"COLOR_0":157,
						"JOINTS_0":158,
						"WEIGHTS_0":159
					},
					"indices":160,
					"material":19
				}
			]
		},
		{
			"name":"Mesh_24",
			"primitives":[
				{
					"attributes":{
						"POSITION":161,
						"NORMAL":162,
						"TEXCOORD_0":163,
						"TANGENT":164,
						"COLOR_0":165,
						"JOINTS_0":166,
						"WEIGHTS_0":167
					},
					"indices":168,
					"material":20
				}
			]
		},
		{
			"name":"Mesh_25",
			"primitives":[
				{
					"attributes":{
						"POSITION":169,
						"NORMAL":170,
						"TEXCOORD_0":171,
						"TANGENT":172,
						"COLOR_0":173,
						"JOINTS_0":174,
						"WEIGHTS_0":175
					},
					"indices":176,
					"material":21
				}
			]
		},
		{
			"name":"Mesh_26",
			"primitives":[
				{
					"attributes":{
						"POSITION":177,
						"NORMAL":178,
						"TEXCOORD_0":179,
						"TANGENT":180,
						"COLOR_0":181,
						"JOINTS_0":182,
						"WEIGHTS_0":183
					},
					"indices":176,
					"material":22
				}
			]
		},
		{
			"name":"Mesh_27",
			"primitives":[
				{
					"attributes":{
						"POSITION":184,
						"NORMAL":185,
						"TEXCOORD_0":186,
						"TANGENT":187,
						"COLOR_0":188,
						"JOINTS_0":189,
						"WEIGHTS_0":190
					},
					"indices":176,
					"material":23
				}
			]
		},
		{
			"name":"Mesh_19",
			"primitives":[
				{
					"attributes":{
						"POSITION":191,
						"NORMAL":192,
						"TEXCOORD_0":193,
						"TANGENT":194,
						"COLOR_0":195,
						"JOINTS_0":196,
						"WEIGHTS_0":197
					},
					"indices":198,
					"material":24
				}
			]
		},
		{
			"name":"Mesh_20",
			"primitives":[
				{
					"attributes":{
						"POSITION":199,
						"NORMAL":200,
						"TEXCOORD_0":201,
						"TANGENT":202,
						"COLOR_0":203,
						"JOINTS_0":204,
						"WEIGHTS_0":205
					},
					"indices":206,
					"material":25
				}
			]
		},
		{
			"name":"Mesh_6",
			"primitives":[
				{
					"attributes":{
						"POSITION":207,
						"NORMAL":208,
						"TEXCOORD_0":209,
						"TANGENT":210,
						"COLOR_0":211,
						"JOINTS_0":212,
						"WEIGHTS_0":213
					},
					"indices":214,
					"material":26
				}
			]
		},
		{
			"name":"Mesh_7",
			"primitives":[
				{
					"attributes":{
						"POSITION":215,
						"NORMAL":216,
						"TEXCOORD_0":217,
						"TANGENT":218,
						"COLOR_0":219,
						"JOINTS_0":220,
						"WEIGHTS_0":221
					},
					"indices":222,
					"material":27
				}
			]
		}
	],
	"textures":[
		{
			"sampler":0,
			"source":0
		},
		{
			"sampler":0,
			"source":1
		},
		{
			"sampler":0,
			"source":0
		},
		{
			"sampler":0,
			"source":1
		},
		{
			"sampler":0,
			"source":0
		},
		{
			"sampler":0,
			"source":1
		},
		{
			"sampler":0,
			"source":0
		},
		{
			"sampler":0,
			"source":1
		},
		{
			"sampler":0,
			"source":0
		},
		{
			"sampler":0,
			"source":1
		},
		{
			"sampler":0,
			"source":0
		},
		{
			"sampler":0,
			"source":1
		},
		{
			"sampler":0,
			"source":2
		},
		{
			"sampler":0,
			"source":3
		},
		{
			"sampler":0,
			"source":2
		},
		{
			"sampler":0,
			"source":3
		},
		{
			"sampler":0,
			"source":2
		},
		{
			"sampler":0,
			"source":3
		},
		{
			"sampler":0,
			"source":4
		},
		{
			"sampler":0,
			"source":5
		},
		{
			"sampler":0,
			"source":4
		},
		{
			"sampler":0,
			"source":5
		},
		{
			"sampler":0,
			"source":6
		},
		{
			"sampler":0,
			"source":7
		},
		{
			"sampler":0,
			"source":6
		},
		{
			"sampler":0,
			"source":7
		},
		{
			"sampler":0,
			"source":8
		},
		{
			"sampler":0,
			"source":9
		},
		{
			"sampler":0,
			"source":8
		},
		{
			"sampler":0,
			"source":9
		},
		{
			"sampler":0,
			"source":6
		},
		{
			"sampler":0,
			"source":7
		},
		{
			"sampler":0,
			"source":6
		},
		{
			"sampler":0,
			"source":7
		},
		{
			"sampler":0,
			"source":10
		},
		{
			"sampler":0,
			"source":11
		},
		{
			"sampler":0,
			"source":10
		},
		{
			"sampler":0,
			"source":11
		},
		{
			"sampler":0,
			"source":12
		},
		{
			"sampler":0,
			"source":13
		},
		{
			"sampler":0,
			"source":12
		},
		{
			"sampler":0,
			"source":13
		},
		{
			"sampler":0,
			"source":12
		},
		{
			"sampler":0,
			"source":13
		},
		{
			"sampler":0,
			"source":12
		},
		{
			"sampler":0,
			"source":13
		},
		{
			"sampler":0,
			"source":12
		},
		{
			"sampler":0,
			"source":13
		},
		{
			"sampler":0,
			"source":2
		},
		{
			"sampler":0,
			"source":3
		},
		{
			"sampler":0,
			"source":2
		},
		{
			"sampler":0,
			"source":3
		},
		{
			"sampler":0,
			"source":8
		},
		{
			"sampler":0,
			"source":9
		},
		{
			"sampler":0,
			"source":8
		},
		{
			"sampler":0,
			"source":9
		}
	],
	"images":[
		{
			"mimeType":"image/png",
			"name":"Image_1",
			"uri":"Image_1.png"
		},
		{
			"mimeType":"image/png",
			"name":"Image_0",
			"uri":"Image_0.png"
		},
		{
			"mimeType":"image/png",
			"name":"Image_9",
			"uri":"Image_9.png"
		},
		{
			"mimeType":"image/png",
			"name":"Image_8",
			"uri":"Image_8.png"
		},
		{
			"mimeType":"image/png",
			"name":"Image_5",
			"uri":"Image_5.png"
		},
		{
			"mimeType":"image/png",
			"name":"Image_4",
			"uri":"Image_4.png"
		},
		{
			"mimeType":"image/png",
			"name":"Image_7",
			"uri":"Image_7.png"
		},
		{
			"mimeType":"image/png",
			"name":"Image_6",
			"uri":"Image_6.png"
		},
		{
			"mimeType":"image/png",
			"name":"Image_3",
			"uri":"Image_3.png"
		},
		{
			"mimeType":"image/png",
			"name":"Image_2",
			"uri":"Image_2.png"
		},
		{
			"mimeType":"image/png",
			"name":"Image_11",
			"uri":"Image_11.png"
		},
		{
			"mimeType":"image/png",
			"name":"Image_10",
			"uri":"Image_10.png"
		},
		{
			"mimeType":"image/png",
			"name":"Image_13",
			"uri":"Image_13.png"
		},
		{
			"mimeType":"image/png",
			"name":"Image_12",
			"uri":"Image_12.png"
		}
	],
	"skins":[
		{
			"inverseBindMatrices":8,
			"joints":[
				71,
				69,
				3,
				2,
				1,
				0,
				7,
				6,
				5,
				4,
				68,
				67,
				66,
				29,
				28,
				26,
				24,
				8,
				11,
				10,
				9,
				14,
				13,
				12,
				17,
				16,
				15,
				20,
				19,
				18,
				23,
				22,
				21,
				25,
				27,
				43,
				42,
				41,
				32,
				30,
				31,
				33,
				34,
				35,
				36,
				37,
				38,
				39,
				40,
				65,
				64,
				62,
				60,
				44,
				47,
				46,
				45,
				50,
				49,
				48,
				53,
				52,
				51,
				56,
				55,
				54,
				59,
				58,
				57,
				61,
				63,
				70
			],
			"name":"20_skeleton"
		}
	],
	"accessors":[
		{
			"bufferView":0,
			"componentType":5126,
			"count":732,
			"max":[
				0.09055382758378983,
				1.8602523803710938,
				0.14206983149051666
			],
			"min":[
				-0.09055382758378983,
				1.591789960861206,
				-0.1031879186630249
			],
			"type":"VEC3"
		},
		{
			"bufferView":1,
			"componentType":5126,
			"count":732,
			"type":"VEC3"
		},
		{
			"bufferView":2,
			"componentType":5126,
			"count":732,
			"type":"VEC2"
		},
		{
			"bufferView":3,
			"componentType":5126,
			"count":732,
			"type":"VEC4"
		},
		{
			"bufferView":4,
			"componentType":5123,
			"count":732,
			"normalized":true,
			"type":"VEC4"
		},
		{
			"bufferView":5,
			"componentType":5121,
			"count":732,
			"type":"VEC4"
		},
		{
			"bufferView":6,
			"componentType":5126,
			"count":732,
			"type":"VEC4"
		},
		{
			"bufferView":7,
			"componentType":5123,
			"count":3492,
			"type":"SCALAR"
		},
		{
			"bufferView":8,
			"componentType":5126,
			"count":72,
			"type":"MAT4"
		},
		{
			"bufferView":9,
			"componentType":5126,
			"count":763,
			"max":[
				0.11499803513288498,
				1.8623076677322388,
				0.14687299728393555
			],
			"min":[
				-0.11499803513288498,
				1.6050009727478027,
				-0.15177100896835327
			],
			"type":"VEC3"
		},
		{
			"bufferView":10,
			"componentType":5126,
			"count":763,
			"type":"VEC3"
		},
		{
			"bufferView":11,
			"componentType":5126,
			"count":763,
			"type":"VEC2"
		},
		{
			"bufferView":12,
			"componentType":5126,
			"count":763,
			"type":"VEC4"
		},
		{
			"bufferView":13,
			"componentType":5123,
			"count":763,
			"normalized":true,
			"type":"VEC4"
		},
		{
			"bufferView":14,
			"componentType":5121,
			"count":763,
			"type":"VEC4"
		},
		{
			"bufferView":15,
			"componentType":5126,
			"count":763,
			"type":"VEC4"
		},
		{
			"bufferView":16,
			"componentType":5123,
			"count":2694,
			"type":"SCALAR"
		},
		{
			"bufferView":17,
			"componentType":5126,
			"count":154,
			"max":[
				0.06583164632320404,
				1.8656980991363525,
				0.11538810282945633
			],
			"min":[
				-0.06583164632320404,
				1.749401330947876,
				-0.031081166118383408
			],
			"type":"VEC3"
		},
		{
			"bufferView":18,
			"componentType":5126,
			"count":154,
			"type":"VEC3"
		},
		{
			"bufferView":19,
			"componentType":5126,
			"count":154,
			"type":"VEC2"
		},
		{
			"bufferView":20,
			"componentType":5126,
			"count":154,
			"type":"VEC4"
		},
		{
			"bufferView":21,
			"componentType":5123,
			"count":154,
			"normalized":true,
			"type":"VEC4"
		},
		{
			"bufferView":22,
			"componentType":5121,
			"count":154,
			"type":"VEC4"
		},
		{
			"bufferView":23,
			"componentType":5126,
			"count":154,
			"type":"VEC4"
		},
		{
			"bufferView":24,
			"componentType":5123,
			"count":618,
			"type":"SCALAR"
		},
		{
			"bufferView":25,
			"componentType":5126,
			"count":120,
			"max":[
				0.06744030117988586,
				1.6781831979751587,
				0.09910564124584198
			],
			"min":[
				-0.06744030117988586,
				1.5953216552734375,
				0.014548925682902336
			],
			"type":"VEC3"
		},
		{
			"bufferView":26,
			"componentType":5126,
			"count":120,
			"type":"VEC3"
		},
		{
			"bufferView":27,
			"componentType":5126,
			"count":120,
			"type":"VEC2"
		},
		{
			"bufferView":28,
			"componentType":5126,
			"count":120,
			"type":"VEC4"
		},
		{
			"bufferView":29,
			"componentType":5123,
			"count":120,
			"normalized":true,
			"type":"VEC4"
		},
		{
			"bufferView":30,
			"componentType":5121,
			"count":120,
			"type":"VEC4"
		},
		{
			"bufferView":31,
			"componentType":5126,
			"count":120,
			"type":"VEC4"
		},
		{
			"bufferView":32,
			"componentType":5123,
			"count":300,
			"type":"SCALAR"
		},
		{
			"bufferView":33,
			"componentType":5126,
			"count":268,
			"max":[
				0.07167383283376694,
				1.854382872581482,
				0.13706614077091217
			],
			"min":[
				-0.07167383283376694,
				1.603392243385315,
				-0.03943885490298271
			],
			"type":"VEC3"
		},
		{
			"bufferView":34,
			"componentType":5126,
			"count":268,
			"type":"VEC3"
		},
		{
			"bufferView":35,
			"componentType":5126,
			"count":268,
			"type":"VEC2"
		},
		{
			"bufferView":36,
			"componentType":5126,
			"count":268,
			"type":"VEC4"
		},
		{
			"bufferView":37,
			"componentType":5123,
			"count":268,
			"normalized":true,
			"type":"VEC4"
		},
		{
			"bufferView":38,
			"componentType":5121,
			"count":268,
			"type":"VEC4"
		},
		{
			"bufferView":39,
			"componentType":5126,
			"count":268,
			"type":"VEC4"
		},
		{
			"bufferView":40,
			"componentType":5123,
			"count":1134,
			"type":"SCALAR"
		},
		{
			"bufferView":41,
			"componentType":5126,
			"count":22,
			"max":[
				0.009537979029119015,
				1.6021391153335571,
				0.10383588820695877
			],
			"min":[
				-0.009537979029119015,
				1.5926010608673096,
				0.08143782615661621
			],
			"type":"VEC3"
		},
		{
			"bufferView":42,
			"componentType":5126,
			"count":22,
			"type":"VEC3"
		},
		{
			"bufferView":43,
			"componentType":5126,
			"count":22,
			"type":"VEC2"
		},
		{
			"bufferView":44,
			"componentType":5126,
			"count":22,
			"type":"VEC4"
		},
		{
			"bufferView":45,
			"componentType":5123,
			"count":22,
			"normalized":true,
			"type":"VEC4"
		},
		{
			"bufferView":46,
			"componentType":5121,
			"count":22,
			"type":"VEC4"
		},
		{
			"bufferView":47,
			"componentType":5126,
			"count":22,
			"type":"VEC4"
		},
		{
			"bufferView":48,
			"componentType":5123,
			"count":30,
			"type":"SCALAR"
		},
		{
			"bufferView":49,
			"componentType":5126,
			"count":3833,
			"max":[
				0.26876845955848694,
				1.69241201877594,
				0.19414402544498444
			],
			"min":[
				-0.26876041293144226,
				0.9664581418037415,
				-0.18289001286029816
			],
			"type":"VEC3"
		},
		{
			"bufferView":50,
			"componentType":5126,
			"count":3833,
			"type":"VEC3"
		},
		{
			"bufferView":51,
			"componentType":5126,
			"count":3833,
			"type":"VEC2"
		},
		{
			"bufferView":52,
			"componentType":5126,
			"count":3833,
			"type":"VEC4"
		},
		{
			"bufferView":53,
			"componentType":5123,
			"count":3833,
			"normalized":true,
			"type":"VEC4"
		},
		{
			"bufferView":54,
			"componentType":5121,
			"count":3833,
			"type":"VEC4"
		},
		{
			"bufferView":55,
			"componentType":5126,
			"count":3833,
			"type":"VEC4"
		},
		{
			"bufferView":56,
			"componentType":5123,
			"count":15936,
			"type":"SCALAR"
		},
		{
			"bufferView":57,
			"componentType":5126,
			"count":442,
			"max":[
				0.38833436369895935,
				1.5316181182861328,
				0.16009409725666046
			],
			"min":[
				-0.3884183466434479,
				1.1939024925231934,
				-0.10954461246728897
			],
			"type":"VEC3"
		},
		{
			"bufferView":58,
			"componentType":5126,
			"count":442,
			"type":"VEC3"
		},
		{
			"bufferView":59,
			"componentType":5126,
			"count":442,
			"type":"VEC2"
		},
		{
			"bufferView":60,
			"componentType":5126,
			"count":442,
			"type":"VEC4"
		},
		{
			"bufferView":61,
			"componentType":5123,
			"count":442,
			"normalized":true,
			"type":"VEC4"
		},
		{
			"bufferView":62,
			"componentType":5121,
			"count":442,
			"type":"VEC4"
		},
		{
			"bufferView":63,
			"componentType":5126,
			"count":442,
			"type":"VEC4"
		},
		{
			"bufferView":64,
			"componentType":5123,
			"count":2160,
			"type":"SCALAR"
		},
		{
			"bufferView":65,
			"componentType":5126,
			"count":72,
			"max":[
				0.11887970566749573,
				1.4813945293426514,
				-0.13441485166549683
			],
			"min":[
				-0.11889468878507614,
				1.3681093454360962,
				-0.15634025633335114
			],
			"type":"VEC3"
		},
		{
			"bufferView":66,
			"componentType":5126,
			"count":72,
			"type":"VEC3"
		},
		{
			"bufferView":67,
			"componentType":5126,
			"count":72,
			"type":"VEC2"
		},
		{
			"bufferView":68,
			"componentType":5126,
			"count":72,
			"type":"VEC4"
		},
		{
			"bufferView":69,
			"componentType":5123,
			"count":72,
			"normalized":true,
			"type":"VEC4"
		},
		{
			"bufferView":70,
			"componentType":5121,
			"count":72,
			"type":"VEC4"
		},
		{
			"bufferView":71,
			"componentType":5126,
			"count":72,
			"type":"VEC4"
		},
		{
			"bufferView":72,
			"componentType":5123,
			"count":264,
			"type":"SCALAR"
		},
		{
			"bufferView":73,
			"componentType":5126,
			"count":244,
			"max":[
				0.06699556112289429,
				1.6977720260620117,
				0.05183517932891846
			],
			"min":[
				-0.06699556112289429,
				1.597910761833191,
				-0.08075739443302155
			],
			"type":"VEC3"
		},
		{
			"bufferView":74,
			"componentType":5126,
			"count":244,
			"type":"VEC3"
		},
		{
			"bufferView":75,
			"componentType":5126,
			"count":244,
			"type":"VEC2"
		},
		{
			"bufferView":76,
			"componentType":5126,
			"count":244,
			"type":"VEC4"
		},
		{
			"bufferView":77,
			"componentType":5123,
			"count":244,
			"normalized":true,
			"type":"VEC4"
		},
		{
			"bufferView":78,
			"componentType":5121,
			"count":244,
			"type":"VEC4"
		},
		{
			"bufferView":79,
			"componentType":5126,
			"count":244,
			"type":"VEC4"
		},
		{
			"bufferView":80,
			"componentType":5123,
			"count":972,
			"type":"SCALAR"
		},
		{
			"bufferView":81,
			"componentType":5126,
			"count":244,
			"max":[
				0.06713003665208817,
				1.6975972652435303,
				0.06845631450414658
			],
			"min":[
				-0.06713003665208817,
				1.589196801185608,
				-0.08469752967357635
			],
			"type":"VEC3"
		},
		{
			"bufferView":82,
			"componentType":5126,
			"count":244,
			"type":"VEC3"
		},
		{
			"bufferView":83,
			"componentType":5126,
			"count":244,
			"type":"VEC2"
		},
		{
			"bufferView":84,
			"componentType":5126,
			"count":244,
			"type":"VEC4"
		},
		{
			"bufferView":85,
			"componentType":5123,
			"count":244,
			"normalized":true,
			"type":"VEC4"
		},
		{
			"bufferView":86,
			"componentType":5121,
			"count":244,
			"type":"VEC4"
		},
		{
			"bufferView":87,
			"componentType":5126,
			"count":244,
			"type":"VEC4"
		},
		{
			"bufferView":88,
			"componentType":5123,
			"count":972,
			"type":"SCALAR"
		},
		{
			"bufferView":89,
			"componentType":5126,
			"count":3120,
			"max":[
				0.4379051625728607,
				1.1860535144805908,
				0.46760571002960205
			],
			"min":[
				-0.4379051625728607,
				1.0182149410247803,
				0.25466418266296387
			],
			"type":"VEC3"
		},
		{
			"bufferView":90,
			"componentType":5126,
			"count":3120,
			"type":"VEC3"
		},
		{
			"bufferView":91,
			"componentType":5126,
			"count":3120,
			"type":"VEC2"
		},
		{
			"bufferView":92,
			"componentType":5126,
			"count":3120,
			"type":"VEC4"
		},
		{
			"bufferView":93,
			"componentType":5123,
			"count":3120,
			"normalized":true,
			"type":"VEC4"
		},
		{
			"bufferView":94,
			"componentType":5121,
			"count":3120,
			"type":"VEC4"
		},
		{
			"bufferView":95,
			"componentType":5126,
			"count":3120,
			"type":"VEC4"
		},
		{
			"bufferView":96,
			"componentType":5123,
			"count":14424,
			"type":"SCALAR"
		},
		{
			"bufferView":97,
			"componentType":5126,
			"count":3180,
			"max":[
				0.4396398961544037,
				1.1862417459487915,
				0.4682915210723877
			],
			"min":[
				-0.4396398961544037,
				1.0179460048675537,
				0.25564584136009216
			],
			"type":"VEC3"
		},
		{
			"bufferView":98,
			"componentType":5126,
			"count":3180,
			"type":"VEC3"
		},
		{
			"bufferView":99,
			"componentType":5126,
			"count":3180,
			"type":"VEC2"
		},
		{
			"bufferView":100,
			"componentType":5126,
			"count":3180,
			"type":"VEC4"
		},
		{
			"bufferView":101,
			"componentType":5123,
			"count":3180,
			"normalized":true,
			"type":"VEC4"
		},
		{
			"bufferView":102,
			"componentType":5121,
			"count":3180,
			"type":"VEC4"
		},
		{
			"bufferView":103,
			"componentType":5126,
			"count":3180,
			"type":"VEC4"
		},
		{
			"bufferView":104,
			"componentType":5123,
			"count":14544,
			"type":"SCALAR"
		},
		{
			"bufferView":105,
			"componentType":5126,
			"count":596,
			"max":[
				0.44063499569892883,
				1.1603552103042603,
				0.462186336517334
			],
			"min":[
				-0.44063499569892883,
				1.0226929187774658,
				0.33580654859542847
			],
			"type":"VEC3"
		},
		{
			"bufferView":106,
			"componentType":5126,
			"count":596,
			"type":"VEC3"
		},
		{
			"bufferView":107,
			"componentType":5126,
			"count":596,
			"type":"VEC2"
		},
		{
			"bufferView":108,
			"componentType":5126,
			"count":596,
			"type":"VEC4"
		},
		{
			"bufferView":109,
			"componentType":5123,
			"count":596,
			"normalized":true,
			"type":"VEC4"
		},
		{
			"bufferView":110,
			"componentType":5121,
			"count":596,
			"type":"VEC4"
		},
		{
			"bufferView":111,
			"componentType":5126,
			"count":596,
			"type":"VEC4"
		},
		{
			"bufferView":112,
			"componentType":5123,
			"count":2382,
			"type":"SCALAR"
		},
		{
			"bufferView":113,
			"componentType":5126,
			"count":576,
			"max":[
				0.44063499569892883,
				1.1634615659713745,
				0.4638134837150574
			],
			"min":[
				-0.44063499569892883,
				1.0213885307312012,
				0.3370705842971802
			],
			"type":"VEC3"
		},
		{
			"bufferView":114,
			"componentType":5126,
			"count":576,
			"type":"VEC3"
		},
		{
			"bufferView":115,
			"componentType":5126,
			"count":576,
			"type":"VEC2"
		},
		{
			"bufferView":116,
			"componentType":5126,
			"count":576,
			"type":"VEC4"
		},
		{
			"bufferView":117,
			"componentType":5123,
			"count":576,
			"normalized":true,
			"type":"VEC4"
		},
		{
			"bufferView":118,
			"componentType":5121,
			"count":576,
			"type":"VEC4"
		},
		{
			"bufferView":119,
			"componentType":5126,
			"count":576,
			"type":"VEC4"
		},
		{
			"bufferView":120,
			"componentType":5123,
			"count":2262,
			"type":"SCALAR"
		},
		{
			"bufferView":121,
			"componentType":5126,
			"count":118,
			"max":[
				0.412395179271698,
				1.1527304649353027,
				0.402640700340271
			],
			"min":[
				-0.412395179271698,
				1.0626858472824097,
				0.3052537441253662
			],
			"type":"VEC3"
		},
		{
			"bufferView":122,
			"componentType":5126,
			"count":118,
			"type":"VEC3"
		},
		{
			"bufferView":123,
			"componentType":5126,
			"count":118,
			"type":"VEC2"
		},
		{
			"bufferView":124,
			"componentType":5126,
			"count":118,
			"type":"VEC4"
		},
		{
			"bufferView":125,
			"componentType":5123,
			"count":118,
			"normalized":true,
			"type":"VEC4"
		},
		{
			"bufferView":126,
			"componentType":5121,
			"count":118,
			"type":"VEC4"
		},
		{
			"bufferView":127,
			"componentType":5126,
			"count":118,
			"type":"VEC4"
		},
		{
			"bufferView":128,
			"componentType":5123,
			"count":474,
			"type":"SCALAR"
		},
		{
			"bufferView":129,
			"componentType":5126,
			"count":118,
			"max":[
				0.4131348133087158,
				1.1540080308914185,
				0.4032593071460724
			],
			"min":[
				-0.4131348133087158,
				1.0633716583251953,
				0.3020801544189453
			],
			"type":"VEC3"
		},
		{
			"bufferView":130,
			"componentType":5126,
			"count":118,
			"type":"VEC3"
		},
		{
			"bufferView":131,
			"componentType":5126,
			"count":118,
			"type":"VEC2"
		},
		{
			"bufferView":132,
			"componentType":5126,
			"count":118,
			"type":"VEC4"
		},
		{
			"bufferView":133,
			"componentType":5123,
			"count":118,
			"normalized":true,
			"type":"VEC4"
		},
		{
			"bufferView":134,
			"componentType":5121,
			"count":118,
			"type":"VEC4"
		},
		{
			"bufferView":135,
			"componentType":5126,
			"count":118,
			"type":"VEC4"
		},
		{
			"bufferView":136,
			"componentType":5123,
			"count":474,
			"type":"SCALAR"
		},
		{
			"bufferView":137,
			"componentType":5126,
			"count":1988,
			"max":[
				0.25256988406181335,
				1.1248279809951782,
				0.19866950809955597
			],
			"min":[
				-0.25256988406181335,
				0.0005300045013427734,
				-0.10893665254116058
			],
			"type":"VEC3"
		},
		{
			"bufferView":138,
			"componentType":5126,
			"count":1988,
			"type":"VEC3"
		},
		{
			"bufferView":139,
			"componentType":5126,
			"count":1988,
			"type":"VEC2"
		},
		{
			"bufferView":140,
			"componentType":5126,
			"count":1988,
			"type":"VEC4"
		},
		{
			"bufferView":141,
			"componentType":5123,
			"count":1988,
			"normalized":true,
			"type":"VEC4"
		},
		{
			"bufferView":142,
			"componentType":5121,
			"count":1988,
			"type":"VEC4"
		},
		{
			"bufferView":143,
			"componentType":5126,
			"count":1988,
			"type":"VEC4"
		},
		{
			"bufferView":144,
			"componentType":5123,
			"count":8982,
			"type":"SCALAR"
		},
		{
			"bufferView":145,
			"componentType":5126,
			"count":436,
			"max":[
				0.22218669950962067,
				0.4339922070503235,
				0.02321562170982361
			],
			"min":[
				-0.22218669950962067,
				0.12811878323554993,
				-0.11343149840831757
			],
			"type":"VEC3"
		},
		{
			"bufferView":146,
			"componentType":5126,
			"count":436,
			"type":"VEC3"
		},
		{
			"bufferView":147,
			"componentType":5126,
			"count":436,
			"type":"VEC2"
		},
		{
			"bufferView":148,
			"componentType":5126,
			"count":436,
			"type":"VEC4"
		},
		{
			"bufferView":149,
			"componentType":5123,
			"count":436,
			"normalized":true,
			"type":"VEC4"
		},
		{
			"bufferView":150,
			"componentType":5121,
			"count":436,
			"type":"VEC4"
		},
		{
			"bufferView":151,
			"componentType":5126,
			"count":436,
			"type":"VEC4"
		},
		{
			"bufferView":152,
			"componentType":5123,
			"count":1272,
			"type":"SCALAR"
		},
		{
			"bufferView":153,
			"componentType":5126,
			"count":230,
			"max":[
				0.3714967668056488,
				1.4522180557250977,
				0.09770762920379639
			],
			"min":[
				0.2909567356109619,
				1.3362191915512085,
				-0.036241404712200165
			],
			"type":"VEC3"
		},
		{
			"bufferView":154,
			"componentType":5126,
			"count":230,
			"type":"VEC3"
		},
		{
			"bufferView":155,
			"componentType":5126,
			"count":230,
			"type":"VEC2"
		},
		{
			"bufferView":156,
			"componentType":5126,
			"count":230,
			"type":"VEC4"
		},
		{
			"bufferView":157,
			"componentType":5123,
			"count":230,
			"normalized":true,
			"type":"VEC4"
		},
		{
			"bufferView":158,
			"componentType":5121,
			"count":230,
			"type":"VEC4"
		},
		{
			"bufferView":159,
			"componentType":5126,
			"count":230,
			"type":"VEC4"
		},
		{
			"bufferView":160,
			"componentType":5123,
			"count":906,
			"type":"SCALAR"
		},
		{
			"bufferView":161,
			"componentType":5126,
			"count":125,
			"max":[
				0.3437526226043701,
				1.4127777814865112,
				0.10471384227275848
			],
			"min":[
				0.20117321610450745,
				1.2736320495605469,
				-0.06542983651161194
			],
			"type":"VEC3"
		},
		{
			"bufferView":162,
			"componentType":5126,
			"count":125,
			"type":"VEC3"
		},
		{
			"bufferView":163,
			"componentType":5126,
			"count":125,
			"type":"VEC2"
		},
		{
			"bufferView":164,
			"componentType":5126,
			"count":125,
			"type":"VEC4"
		},
		{
			"bufferView":165,
			"componentType":5123,
			"count":125,
			"normalized":true,
			"type":"VEC4"
		},
		{
			"bufferView":166,
			"componentType":5121,
			"count":125,
			"type":"VEC4"
		},
		{
			"bufferView":167,
			"componentType":5126,
			"count":125,
			"type":"VEC4"
		},
		{
			"bufferView":168,
			"componentType":5123,
			"count":576,
			"type":"SCALAR"
		},
		{
			"bufferView":169,
			"componentType":5126,
			"count":49,
			"max":[
				0.34677475690841675,
				1.4278203248977661,
				0.049863241612911224
			],
			"min":[
				0.3165344297885895,
				1.3872710466384888,
				0.0008334331214427948
			],
			"type":"VEC3"
		},
		{
			"bufferView":170,
			"componentType":5126,
			"count":49,
			"type":"VEC3"
		},
		{
			"bufferView":171,
			"componentType":5126,
			"count":49,
			"type":"VEC2"
		},
		{
			"bufferView":172,
			"componentType":5126,
			"count":49,
			"type":"VEC4"
		},
		{
			"bufferView":173,
			"componentType":5123,
			"count":49,
			"normalized":true,
			"type":"VEC4"
		},
		{
			"bufferView":174,
			"componentType":5121,
			"count":49,
			"type":"VEC4"
		},
		{
			"bufferView":175,
			"componentType":5126,
			"count":49,
			"type":"VEC4"
		},
		{
			"bufferView":176,
			"componentType":5123,
			"count":234,
			"type":"SCALAR"
		},
		{
			"bufferView":177,
			"componentType":5126,
			"count":49,
			"max":[
				0.3465185761451721,
				1.4271663427352905,
				0.04953622817993164
			],
			"min":[
				0.31690776348114014,
				1.3874671459197998,
				0.0015310551971197128
			],
			"type":"VEC3"
		},
		{
			"bufferView":178,
			"componentType":5126,
			"count":49,
			"type":"VEC3"
		},
		{
			"bufferView":179,
			"componentType":5126,
			"count":49,
			"type":"VEC2"
		},
		{
			"bufferView":180,
			"componentType":5126,
			"count":49,
			"type":"VEC4"
		},
		{
			"bufferView":181,
			"componentType":5123,
			"count":49,
			"normalized":true,
			"type":"VEC4"
		},
		{
			"bufferView":182,
			"componentType":5121,
			"count":49,
			"type":"VEC4"
		},
		{
			"bufferView":183,
			"componentType":5126,
			"count":49,
			"type":"VEC4"
		},
		{
			"bufferView":184,
			"componentType":5126,
			"count":49,
			"max":[
				0.3466684818267822,
				1.4275450706481934,
				0.04977604001760483
			],
			"min":[
				0.3166924715042114,
				1.387352705001831,
				0.0011767931282520294
			],
			"type":"VEC3"
		},
		{
			"bufferView":185,
			"componentType":5126,
			"count":49,
			"type":"VEC3"
		},
		{
			"bufferView":186,
			"componentType":5126,
			"count":49,
			"type":"VEC2"
		},
		{
			"bufferView":187,
			"componentType":5126,
			"count":49,
			"type":"VEC4"
		},
		{
			"bufferView":188,
			"componentType":5123,
			"count":49,
			"normalized":true,
			"type":"VEC4"
		},
		{
			"bufferView":189,
			"componentType":5121,
			"count":49,
			"type":"VEC4"
		},
		{
			"bufferView":190,
			"componentType":5126,
			"count":49,
			"type":"VEC4"
		},
		{
			"bufferView":191,
			"componentType":5126,
			"count":226,
			"max":[
				0.26502725481987,
				1.1321392059326172,
				0.1836913824081421
			],
			"min":[
				-0.29773813486099243,
				0.18468999862670898,
				-0.18030515313148499
			],
			"type":"VEC3"
		},
		{
			"bufferView":192,
			"componentType":5126,
			"count":226,
			"type":"VEC3"
		},
		{
			"bufferView":193,
			"componentType":5126,
			"count":226,
			"type":"VEC2"
		},
		{
			"bufferView":194,
			"componentType":5126,
			"count":226,
			"type":"VEC4"
		},
		{
			"bufferView":195,
			"componentType":5123,
			"count":226,
			"normalized":true,
			"type":"VEC4"
		},
		{
			"bufferView":196,
			"componentType":5121,
			"count":226,
			"type":"VEC4"
		},
		{
			"bufferView":197,
			"componentType":5126,
			"count":226,
			"type":"VEC4"
		},
		{
			"bufferView":198,
			"componentType":5123,
			"count":1074,
			"type":"SCALAR"
		},
		{
			"bufferView":199,
			"componentType":5126,
			"count":160,
			"max":[
				0.26502725481987,
				1.1321392059326172,
				0.1836913824081421
			],
			"min":[
				-0.29773813486099243,
				0.18468999862670898,
				-0.18030515313148499
			],
			"type":"VEC3"
		},
		{
			"bufferView":200,
			"componentType":5126,
			"count":160,
			"type":"VEC3"
		},
		{
			"bufferView":201,
			"componentType":5126,
			"count":160,
			"type":"VEC2"
		},
		{
			"bufferView":202,
			"componentType":5126,
			"count":160,
			"type":"VEC4"
		},
		{
			"bufferView":203,
			"componentType":5123,
			"count":160,
			"normalized":true,
			"type":"VEC4"
		},
		{
			"bufferView":204,
			"componentType":5121,
			"count":160,
			"type":"VEC4"
		},
		{
			"bufferView":205,
			"componentType":5126,
			"count":160,
			"type":"VEC4"
		},
		{
			"bufferView":206,
			"componentType":5123,
			"count":702,
			"type":"SCALAR"
		},
		{
			"bufferView":207,
			"componentType":5126,
			"count":1064,
			"max":[
				0.45531898736953735,
				1.304418683052063,
				0.33258184790611267
			],
			"min":[
				-0.45531898736953735,
				1.085047960281372,
				0.07726305723190308
			],
			"type":"VEC3"
		},
		{
			"bufferView":208,
			"componentType":5126,
			"count":1064,
			"type":"VEC3"
		},
		{
			"bufferView":209,
			"componentType":5126,
			"count":1064,
			"type":"VEC2"
		},
		{
			"bufferView":210,
			"componentType":5126,
			"count":1064,
			"type":"VEC4"
		},
		{
			"bufferView":211,
			"componentType":5123,
			"count":1064,
			"normalized":true,
			"type":"VEC4"
		},
		{
			"bufferView":212,
			"componentType":5121,
			"count":1064,
			"type":"VEC4"
		},
		{
			"bufferView":213,
			"componentType":5126,
			"count":1064,
			"type":"VEC4"
		},
		{
			"bufferView":214,
			"componentType":5123,
			"count":4440,
			"type":"SCALAR"
		},
		{
			"bufferView":215,
			"componentType":5126,
			"count":324,
			"max":[
				0.4073789715766907,
				1.315688133239746,
				0.2082713097333908
			],
			"min":[
				-0.4073789715766907,
				1.1632249355316162,
				0.06859216094017029
			],
			"type":"VEC3"
		},
		{
			"bufferView":216,
			"componentType":5126,
			"count":324,
			"type":"VEC3"
		},
		{
			"bufferView":217,
			"componentType":5126,
			"count":324,
			"type":"VEC2"
		},
		{
			"bufferView":218,
			"componentType":5126,
			"count":324,
			"type":"VEC4"
		},
		{
			"bufferView":219,
			"componentType":5123,
			"count":324,
			"normalized":true,
			"type":"VEC4"
		},
		{
			"bufferView":220,
			"componentType":5121,
			"count":324,
			"type":"VEC4"
		},
		{
			"bufferView":221,
			"componentType":5126,
			"count":324,
			"type":"VEC4"
		},
		{
			"bufferView":222,
			"componentType":5123,
			"count":1536,
			"type":"SCALAR"
		}
	],
	"bufferViews":[
		{
			"buffer":0,
			"byteLength":8784,
			"byteOffset":0,
			"target":34962
		},
		{
			"buffer":0,
			"byteLength":8784,
			"byteOffset":8784,
			"target":34962
		},
		{
			"buffer":0,
			"byteLength":5856,
			"byteOffset":17568,
			"target":34962
		},
		{
			"buffer":0,
			"byteLength":11712,
			"byteOffset":23424,
			"target":34962
		},
		{
			"buffer":0,
			"byteLength":5856,
			"byteOffset":35136,
			"target":34962
		},
		{
			"buffer":0,
			"byteLength":2928,
			"byteOffset":40992,
			"target":34962
		},
		{
			"buffer":0,
			"byteLength":11712,
			"byteOffset":43920,
			"target":34962
		},
		{
			"buffer":0,
			"byteLength":6984,
			"byteOffset":55632,
			"target":34963
		},
		{
			"buffer":0,
			"byteLength":4608,
			"byteOffset":62616
		},
		{
			"buffer":0,
			"byteLength":9156,
			"byteOffset":67224,
			"target":34962
		},
		{
			"buffer":0,
			"byteLength":9156,
			"byteOffset":76380,
			"target":34962
		},
		{
			"buffer":0,
			"byteLength":6104,
			"byteOffset":85536,
			"target":34962
		},
		{
			"buffer":0,
			"byteLength":12208,
			"byteOffset":91640,
			"target":34962
		},
		{
			"buffer":0,
			"byteLength":6104,
			"byteOffset":103848,
			"target":34962
		},
		{
			"buffer":0,
			"byteLength":3052,
			"byteOffset":109952,
			"target":34962
		},
		{
			"buffer":0,
			"byteLength":12208,
			"byteOffset":113004,
			"target":34962
		},
		{
			"buffer":0,
			"byteLength":5388,
			"byteOffset":125212,
			"target":34963
		},
		{
			"buffer":0,
			"byteLength":1848,
			"byteOffset":130600,
			"target":34962
		},
		{
			"buffer":0,
			"byteLength":1848,
			"byteOffset":132448,
			"target":34962
		},
		{
			"buffer":0,
			"byteLength":1232,
			"byteOffset":134296,
			"target":34962
		},
		{
			"buffer":0,
			"byteLength":2464,
			"byteOffset":135528,
			"target":34962
		},
		{
			"buffer":0,
			"byteLength":1232,
			"byteOffset":137992,
			"target":34962
		},
		{
			"buffer":0,
			"byteLength":616,
			"byteOffset":139224,
			"target":34962
		},
		{
			"buffer":0,
			"byteLength":2464,
			"byteOffset":139840,
			"target":34962
		},
		{
			"buffer":0,
			"byteLength":1236,
			"byteOffset":142304,
			"target":34963
		},
		{
			"buffer":0,
			"byteLength":1440,
			"byteOffset":143540,
			"target":34962
		},
		{
			"buffer":0,
			"byteLength":1440,
			"byteOffset":144980,
			"target":34962
		},
		{
			"buffer":0,
			"byteLength":960,
			"byteOffset":146420,
			"target":34962
		},
		{
			"buffer":0,
			"byteLength":1920,
			"byteOffset":147380,
			"target":34962
		},
		{
			"buffer":0,
			"byteLength":960,
			"byteOffset":149300,
			"target":34962
		},
		{
			"buffer":0,
			"byteLength":480,
			"byteOffset":150260,
			"target":34962
		},
		{
			"buffer":0,
			"byteLength":1920,
			"byteOffset":150740,
			"target":34962
		},
		{
			"buffer":0,
			"byteLength":600,
			"byteOffset":152660,
			"target":34963
		},
		{
			"buffer":0,
			"byteLength":3216,
			"byteOffset":153260,
			"target":34962
		},
		{
			"buffer":0,
			"byteLength":3216,
			"byteOffset":156476,
			"target":34962
		},
		{
			"buffer":0,
			"byteLength":2144,
			"byteOffset":159692,
			"target":34962
		},
		{
			"buffer":0,
			"byteLength":4288,
			"byteOffset":161836,
			"target":34962
		},
		{
			"buffer":0,
			"byteLength":2144,
			"byteOffset":166124,
			"target":34962
		},
		{
			"buffer":0,
			"byteLength":1072,
			"byteOffset":168268,
			"target":34962
		},
		{
			"buffer":0,
			"byteLength":4288,
			"byteOffset":169340,
			"target":34962
		},
		{
			"buffer":0,
			"byteLength":2268,
			"byteOffset":173628,
			"target":34963
		},
		{
			"buffer":0,
			"byteLength":264,
			"byteOffset":175896,
			"target":34962
		},
		{
			"buffer":0,
			"byteLength":264,
			"byteOffset":176160,
			"target":34962
		},
		{
			"buffer":0,
			"byteLength":176,
			"byteOffset":176424,
			"target":34962
		},
		{
			"buffer":0,
			"byteLength":352,
			"byteOffset":176600,
			"target":34962
		},
		{
			"buffer":0,
			"byteLength":176,
			"byteOffset":176952,
			"target":34962
		},
		{
			"buffer":0,
			"byteLength":88,
			"byteOffset":177128,
			"target":34962
		},
		{
			"buffer":0,
			"byteLength":352,
			"byteOffset":177216,
			"target":34962
		},
		{
			"buffer":0,
			"byteLength":60,
			"byteOffset":177568,
			"target":34963
		},
		{
			"buffer":0,
			"byteLength":45996,
			"byteOffset":177628,
			"target":34962
		},
		{
			"buffer":0,
			"byteLength":45996,
			"byteOffset":223624,
			"target":34962
		},
		{
			"buffer":0,
			"byteLength":30664,
			"byteOffset":269620,
			"target":34962
		},
		{
			"buffer":0,
			"byteLength":61328,
			"byteOffset":300284,
			"target":34962
		},
		{
			"buffer":0,
			"byteLength":30664,
			"byteOffset":361612,
			"target":34962
		},
		{
			"buffer":0,
			"byteLength":15332,
			"byteOffset":392276,
			"target":34962
		},
		{
			"buffer":0,
			"byteLength":61328,
			"byteOffset":407608,
			"target":34962
		},
		{
			"buffer":0,
			"byteLength":31872,
			"byteOffset":468936,
			"target":34963
		},
		{
			"buffer":0,
			"byteLength":5304,
			"byteOffset":500808,
			"target":34962
		},
		{
			"buffer":0,
			"byteLength":5304,
			"byteOffset":506112,
			"target":34962
		},
		{
			"buffer":0,
			"byteLength":3536,
			"byteOffset":511416,
			"target":34962
		},
		{
			"buffer":0,
			"byteLength":7072,
			"byteOffset":514952,
			"target":34962
		},
		{
			"buffer":0,
			"byteLength":3536,
			"byteOffset":522024,
			"target":34962
		},
		{
			"buffer":0,
			"byteLength":1768,
			"byteOffset":525560,
			"target":34962
		},
		{
			"buffer":0,
			"byteLength":7072,
			"byteOffset":527328,
			"target":34962
		},
		{
			"buffer":0,
			"byteLength":4320,
			"byteOffset":534400,
			"target":34963
		},
		{
			"buffer":0,
			"byteLength":864,
			"byteOffset":538720,
			"target":34962
		},
		{
			"buffer":0,
			"byteLength":864,
			"byteOffset":539584,
			"target":34962
		},
		{
			"buffer":0,
			"byteLength":576,
			"byteOffset":540448,
			"target":34962
		},
		{
			"buffer":0,
			"byteLength":1152,
			"byteOffset":541024,
			"target":34962
		},
		{
			"buffer":0,
			"byteLength":576,
			"byteOffset":542176,
			"target":34962
		},
		{
			"buffer":0,
			"byteLength":288,
			"byteOffset":542752,
			"target":34962
		},
		{
			"buffer":0,
			"byteLength":1152,
			"byteOffset":543040,
			"target":34962
		},
		{
			"buffer":0,
			"byteLength":528,
			"byteOffset":544192,
			"target":34963
		},
		{
			"buffer":0,
			"byteLength":2928,
			"byteOffset":544720,
			"target":34962
		},
		{
			"buffer":0,
			"byteLength":2928,
			"byteOffset":547648,
			"target":34962
		},
		{
			"buffer":0,
			"byteLength":1952,
			"byteOffset":550576,
			"target":34962
		},
		{
			"buffer":0,
			"byteLength":3904,
			"byteOffset":552528,
			"target":34962
		},
		{
			"buffer":0,
			"byteLength":1952,
			"byteOffset":556432,
			"target":34962
		},
		{
			"buffer":0,
			"byteLength":976,
			"byteOffset":558384,
			"target":34962
		},
		{
			"buffer":0,
			"byteLength":3904,
			"byteOffset":559360,
			"target":34962
		},
		{
			"buffer":0,
			"byteLength":1944,
			"byteOffset":563264,
			"target":34963
		},
		{
			"buffer":0,
			"byteLength":2928,
			"byteOffset":565208,
			"target":34962
		},
		{
			"buffer":0,
			"byteLength":2928,
			"byteOffset":568136,
			"target":34962
		},
		{
			"buffer":0,
			"byteLength":1952,
			"byteOffset":571064,
			"target":34962
		},
		{
			"buffer":0,
			"byteLength":3904,
			"byteOffset":573016,
			"target":34962
		},
		{
			"buffer":0,
			"byteLength":1952,
			"byteOffset":576920,
			"target":34962
		},
		{
			"buffer":0,
			"byteLength":976,
			"byteOffset":578872,
			"target":34962
		},
		{
			"buffer":0,
			"byteLength":3904,
			"byteOffset":579848,
			"target":34962
		},
		{
			"buffer":0,
			"byteLength":1944,
			"byteOffset":583752,
			"target":34963
		},
		{
			"buffer":0,
			"byteLength":37440,
			"byteOffset":585696,
			"target":34962
		},
		{
			"buffer":0,
			"byteLength":37440,
			"byteOffset":623136,
			"target":34962
		},
		{
			"buffer":0,
			"byteLength":24960,
			"byteOffset":660576,
			"target":34962
		},
		{
			"buffer":0,
			"byteLength":49920,
			"byteOffset":685536,
			"target":34962
		},
		{
			"buffer":0,
			"byteLength":24960,
			"byteOffset":735456,
			"target":34962
		},
		{
			"buffer":0,
			"byteLength":12480,
			"byteOffset":760416,
			"target":34962
		},
		{
			"buffer":0,
			"byteLength":49920,
			"byteOffset":772896,
			"target":34962
		},
		{
			"buffer":0,
			"byteLength":28848,
			"byteOffset":822816,
			"target":34963
		},
		{
			"buffer":0,
			"byteLength":38160,
			"byteOffset":851664,
			"target":34962
		},
		{
			"buffer":0,
			"byteLength":38160,
			"byteOffset":889824,
			"target":34962
		},
		{
			"buffer":0,
			"byteLength":25440,
			"byteOffset":927984,
			"target":34962
		},
		{
			"buffer":0,
			"byteLength":50880,
			"byteOffset":953424,
			"target":34962
		},
		{
			"buffer":0,
			"byteLength":25440,
			"byteOffset":1004304,
			"target":34962
		},
		{
			"buffer":0,
			"byteLength":12720,
			"byteOffset":1029744,
			"target":34962
		},
		{
			"buffer":0,
			"byteLength":50880,
			"byteOffset":1042464,
			"target":34962
		},
		{
			"buffer":0,
			"byteLength":29088,
			"byteOffset":1093344,
			"target":34963
		},
		{
			"buffer":0,
			"byteLength":7152,
			"byteOffset":1122432,
			"target":34962
		},
		{
			"buffer":0,
			"byteLength":7152,
			"byteOffset":1129584,
			"target":34962
		},
		{
			"buffer":0,
			"byteLength":4768,
			"byteOffset":1136736,
			"target":34962
		},
		{
			"buffer":0,
			"byteLength":9536,
			"byteOffset":1141504,
			"target":34962
		},
		{
			"buffer":0,
			"byteLength":4768,
			"byteOffset":1151040,
			"target":34962
		},
		{
			"buffer":0,
			"byteLength":2384,
			"byteOffset":1155808,
			"target":34962
		},
		{
			"buffer":0,
			"byteLength":9536,
			"byteOffset":1158192,
			"target":34962
		},
		{
			"buffer":0,
			"byteLength":4764,
			"byteOffset":1167728,
			"target":34963
		},
		{
			"buffer":0,
			"byteLength":6912,
			"byteOffset":1172492,
			"target":34962
		},
		{
			"buffer":0,
			"byteLength":6912,
			"byteOffset":1179404,
			"target":34962
		},
		{
			"buffer":0,
			"byteLength":4608,
			"byteOffset":1186316,
			"target":34962
		},
		{
			"buffer":0,
			"byteLength":9216,
			"byteOffset":1190924,
			"target":34962
		},
		{
			"buffer":0,
			"byteLength":4608,
			"byteOffset":1200140,
			"target":34962
		},
		{
			"buffer":0,
			"byteLength":2304,
			"byteOffset":1204748,
			"target":34962
		},
		{
			"buffer":0,
			"byteLength":9216,
			"byteOffset":1207052,
			"target":34962
		},
		{
			"buffer":0,
			"byteLength":4524,
			"byteOffset":1216268,
			"target":34963
		},
		{
			"buffer":0,
			"byteLength":1416,
			"byteOffset":1220792,
			"target":34962
		},
		{
			"buffer":0,
			"byteLength":1416,
			"byteOffset":1222208,
			"target":34962
		},
		{
			"buffer":0,
			"byteLength":944,
			"byteOffset":1223624,
			"target":34962
		},
		{
			"buffer":0,
			"byteLength":1888,
			"byteOffset":1224568,
			"target":34962
		},
		{
			"buffer":0,
			"byteLength":944,
			"byteOffset":1226456,
			"target":34962
		},
		{
			"buffer":0,
			"byteLength":472,
			"byteOffset":1227400,
			"target":34962
		},
		{
			"buffer":0,
			"byteLength":1888,
			"byteOffset":1227872,
			"target":34962
		},
		{
			"buffer":0,
			"byteLength":948,
			"byteOffset":1229760,
			"target":34963
		},
		{
			"buffer":0,
			"byteLength":1416,
			"byteOffset":1230708,
			"target":34962
		},
		{
			"buffer":0,
			"byteLength":1416,
			"byteOffset":1232124,
			"target":34962
		},
		{
			"buffer":0,
			"byteLength":944,
			"byteOffset":1233540,
			"target":34962
		},
		{
			"buffer":0,
			"byteLength":1888,
			"byteOffset":1234484,
			"target":34962
		},
		{
			"buffer":0,
			"byteLength":944,
			"byteOffset":1236372,
			"target":34962
		},
		{
			"buffer":0,
			"byteLength":472,
			"byteOffset":1237316,
			"target":34962
		},
		{
			"buffer":0,
			"byteLength":1888,
			"byteOffset":1237788,
			"target":34962
		},
		{
			"buffer":0,
			"byteLength":948,
			"byteOffset":1239676,
			"target":34963
		},
		{
			"buffer":0,
			"byteLength":23856,
			"byteOffset":1240624,
			"target":34962
		},
		{
			"buffer":0,
			"byteLength":23856,
			"byteOffset":1264480,
			"target":34962
		},
		{
			"buffer":0,
			"byteLength":15904,
			"byteOffset":1288336,
			"target":34962
		},
		{
			"buffer":0,
			"byteLength":31808,
			"byteOffset":1304240,
			"target":34962
		},
		{
			"buffer":0,
			"byteLength":15904,
			"byteOffset":1336048,
			"target":34962
		},
		{
			"buffer":0,
			"byteLength":7952,
			"byteOffset":1351952,
			"target":34962
		},
		{
			"buffer":0,
			"byteLength":31808,
			"byteOffset":1359904,
			"target":34962
		},
		{
			"buffer":0,
			"byteLength":17964,
			"byteOffset":1391712,
			"target":34963
		},
		{
			"buffer":0,
			"byteLength":5232,
			"byteOffset":1409676,
			"target":34962
		},
		{
			"buffer":0,
			"byteLength":5232,
			"byteOffset":1414908,
			"target":34962
		},
		{
			"buffer":0,
			"byteLength":3488,
			"byteOffset":1420140,
			"target":34962
		},
		{
			"buffer":0,
			"byteLength":6976,
			"byteOffset":1423628,
			"target":34962
		},
		{
			"buffer":0,
			"byteLength":3488,
			"byteOffset":1430604,
			"target":34962
		},
		{
			"buffer":0,
			"byteLength":1744,
			"byteOffset":1434092,
			"target":34962
		},
		{
			"buffer":0,
			"byteLength":6976,
			"byteOffset":1435836,
			"target":34962
		},
		{
			"buffer":0,
			"byteLength":2544,
			"byteOffset":1442812,
			"target":34963
		},
		{
			"buffer":0,
			"byteLength":2760,
			"byteOffset":1445356,
			"target":34962
		},
		{
			"buffer":0,
			"byteLength":2760,
			"byteOffset":1448116,
			"target":34962
		},
		{
			"buffer":0,
			"byteLength":1840,
			"byteOffset":1450876,
			"target":34962
		},
		{
			"buffer":0,
			"byteLength":3680,
			"byteOffset":1452716,
			"target":34962
		},
		{
			"buffer":0,
			"byteLength":1840,
			"byteOffset":1456396,
			"target":34962
		},
		{
			"buffer":0,
			"byteLength":920,
			"byteOffset":1458236,
			"target":34962
		},
		{
			"buffer":0,
			"byteLength":3680,
			"byteOffset":1459156,
			"target":34962
		},
		{
			"buffer":0,
			"byteLength":1812,
			"byteOffset":1462836,
			"target":34963
		},
		{
			"buffer":0,
			"byteLength":1500,
			"byteOffset":1464648,
			"target":34962
		},
		{
			"buffer":0,
			"byteLength":1500,
			"byteOffset":1466148,
			"target":34962
		},
		{
			"buffer":0,
			"byteLength":1000,
			"byteOffset":1467648,
			"target":34962
		},
		{
			"buffer":0,
			"byteLength":2000,
			"byteOffset":1468648,
			"target":34962
		},
		{
			"buffer":0,
			"byteLength":1000,
			"byteOffset":1470648,
			"target":34962
		},
		{
			"buffer":0,
			"byteLength":500,
			"byteOffset":1471648,
			"target":34962
		},
		{
			"buffer":0,
			"byteLength":2000,
			"byteOffset":1472148,
			"target":34962
		},
		{
			"buffer":0,
			"byteLength":1152,
			"byteOffset":1474148,
			"target":34963
		},
		{
			"buffer":0,
			"byteLength":588,
			"byteOffset":1475300,
			"target":34962
		},
		{
			"buffer":0,
			"byteLength":588,
			"byteOffset":1475888,
			"target":34962
		},
		{
			"buffer":0,
			"byteLength":392,
			"byteOffset":1476476,
			"target":34962
		},
		{
			"buffer":0,
			"byteLength":784,
			"byteOffset":1476868,
			"target":34962
		},
		{
			"buffer":0,
			"byteLength":392,
			"byteOffset":1477652,
			"target":34962
		},
		{
			"buffer":0,
			"byteLength":196,
			"byteOffset":1478044,
			"target":34962
		},
		{
			"buffer":0,
			"byteLength":784,
			"byteOffset":1478240,
			"target":34962
		},
		{
			"buffer":0,
			"byteLength":468,
			"byteOffset":1479024,
			"target":34963
		},
		{
			"buffer":0,
			"byteLength":588,
			"byteOffset":1479492,
			"target":34962
		},
		{
			"buffer":0,
			"byteLength":588,
			"byteOffset":1480080,
			"target":34962
		},
		{
			"buffer":0,
			"byteLength":392,
			"byteOffset":1480668,
			"target":34962
		},
		{
			"buffer":0,
			"byteLength":784,
			"byteOffset":1481060,
			"target":34962
		},
		{
			"buffer":0,
			"byteLength":392,
			"byteOffset":1481844,
			"target":34962
		},
		{
			"buffer":0,
			"byteLength":196,
			"byteOffset":1482236,
			"target":34962
		},
		{
			"buffer":0,
			"byteLength":784,
			"byteOffset":1482432,
			"target":34962
		},
		{
			"buffer":0,
			"byteLength":588,
			"byteOffset":1483216,
			"target":34962
		},
		{
			"buffer":0,
			"byteLength":588,
			"byteOffset":1483804,
			"target":34962
		},
		{
			"buffer":0,
			"byteLength":392,
			"byteOffset":1484392,
			"target":34962
		},
		{
			"buffer":0,
			"byteLength":784,
			"byteOffset":1484784,
			"target":34962
		},
		{
			"buffer":0,
			"byteLength":392,
			"byteOffset":1485568,
			"target":34962
		},
		{
			"buffer":0,
			"byteLength":196,
			"byteOffset":1485960,
			"target":34962
		},
		{
			"buffer":0,
			"byteLength":784,
			"byteOffset":1486156,
			"target":34962
		},
		{
			"buffer":0,
			"byteLength":2712,
			"byteOffset":1486940,
			"target":34962
		},
		{
			"buffer":0,
			"byteLength":2712,
			"byteOffset":1489652,
			"target":34962
		},
		{
			"buffer":0,
			"byteLength":1808,
			"byteOffset":1492364,
			"target":34962
		},
		{
			"buffer":0,
			"byteLength":3616,
			"byteOffset":1494172,
			"target":34962
		},
		{
			"buffer":0,
			"byteLength":1808,
			"byteOffset":1497788,
			"target":34962
		},
		{
			"buffer":0,
			"byteLength":904,
			"byteOffset":1499596,
			"target":34962
		},
		{
			"buffer":0,
			"byteLength":3616,
			"byteOffset":1500500,
			"target":34962
		},
		{
			"buffer":0,
			"byteLength":2148,
			"byteOffset":1504116,
			"target":34963
		},
		{
			"buffer":0,
			"byteLength":1920,
			"byteOffset":1506264,
			"target":34962
		},
		{
			"buffer":0,
			"byteLength":1920,
			"byteOffset":1508184,
			"target":34962
		},
		{
			"buffer":0,
			"byteLength":1280,
			"byteOffset":1510104,
			"target":34962
		},
		{
			"buffer":0,
			"byteLength":2560,
			"byteOffset":1511384,
			"target":34962
		},
		{
			"buffer":0,
			"byteLength":1280,
			"byteOffset":1513944,
			"target":34962
		},
		{
			"buffer":0,
			"byteLength":640,
			"byteOffset":1515224,
			"target":34962
		},
		{
			"buffer":0,
			"byteLength":2560,
			"byteOffset":1515864,
			"target":34962
		},
		{
			"buffer":0,
			"byteLength":1404,
			"byteOffset":1518424,
			"target":34963
		},
		{
			"buffer":0,
			"byteLength":12768,
			"byteOffset":1519828,
			"target":34962
		},
		{
			"buffer":0,
			"byteLength":12768,
			"byteOffset":1532596,
			"target":34962
		},
		{
			"buffer":0,
			"byteLength":8512,
			"byteOffset":1545364,
			"target":34962
		},
		{
			"buffer":0,
			"byteLength":17024,
			"byteOffset":1553876,
			"target":34962
		},
		{
			"buffer":0,
			"byteLength":8512,
			"byteOffset":1570900,
			"target":34962
		},
		{
			"buffer":0,
			"byteLength":4256,
			"byteOffset":1579412,
			"target":34962
		},
		{
			"buffer":0,
			"byteLength":17024,
			"byteOffset":1583668,
			"target":34962
		},
		{
			"buffer":0,
			"byteLength":8880,
			"byteOffset":1600692,
			"target":34963
		},
		{
			"buffer":0,
			"byteLength":3888,
			"byteOffset":1609572,
			"target":34962
		},
		{
			"buffer":0,
			"byteLength":3888,
			"byteOffset":1613460,
			"target":34962
		},
		{
			"buffer":0,
			"byteLength":2592,
			"byteOffset":1617348,
			"target":34962
		},
		{
			"buffer":0,
			"byteLength":5184,
			"byteOffset":1619940,
			"target":34962
		},
		{
			"buffer":0,
			"byteLength":2592,
			"byteOffset":1625124,
			"target":34962
		},
		{
			"buffer":0,
			"byteLength":1296,
			"byteOffset":1627716,
			"target":34962
		},
		{
			"buffer":0,
			"byteLength":5184,
			"byteOffset":1629012,
			"target":34962
		},
		{
			"buffer":0,
			"byteLength":3072,
			"byteOffset":1634196,
			"target":34963
		}
	],
	"samplers":[
		{
			"magFilter":9729,
			"minFilter":9987
		}
	],
	"buffers":[
		{
			"byteLength":1637268,
			"uri":"eow.bin"
		}
	]
}
