{
	"asset":{
		"generator":"Khronos glTF Blender I/O v4.5.48",
		"version":"2.0"
	},
	"scene":0,
	"scenes":[
		{
			"name":"Scene",
			"nodes":[
				26
			]
		}
	],
	"nodes":[
		{
			"mesh":0,
			"name":"mesh_1027739283-0_0_0_transparents"
		},
		{
			"mesh":1,
			"name":"mesh_1027739283-0_0_1_transparents"
		},
		{
			"mesh":2,
			"name":"mesh_1027739283-0_0_2_transparents"
		},
		{
			"mesh":3,
			"name":"mesh_1027739283-0_0_3_transparents"
		},
		{
			"mesh":4,
			"name":"mesh_1027739283-0_0_4_redacted14"
		},
		{
			"mesh":5,
			"name":"mesh_1027739283-0_0_5_redacted16"
		},
		{
			"children":[
				0,
				1,
				2,
				3,
				4,
				5
			],
			"name":"pattern_1725428778_0_hud17"
		},
		{
			"mesh":6,
			"name":"mesh_3380040586-0_0_0_gbuffer"
		},
		{
			"mesh":7,
			"name":"mesh_3380040586-0_0_1_gbuffer"
		},
		{
			"mesh":8,
			"name":"mesh_3380040586-0_0_2_gbuffer"
		},
		{
			"mesh":9,
			"name":"mesh_3380040586-0_0_3_transparents"
		},
		{
			"mesh":10,
			"name":"mesh_3380040586-0_0_4_transparents"
		},
		{
			"mesh":11,
			"name":"mesh_3380040586-0_0_5_transparents"
		},
		{
			"children":[
				7,
				8,
				9,
				10,
				11,
				12
			],
			"name":"pattern_1831173891_0_frame"
		},
		{
			"mesh":12,
			"name":"mesh_52469891-0_0_0_gbuffer"
		},
		{
			"mesh":13,
			"name":"mesh_52469891-0_0_1_gbuffer"
		},
		{
			"mesh":14,
			"name":"mesh_52469891-0_0_2_gbuffer"
		},
		{
			"mesh":15,
			"name":"mesh_52469891-0_0_3_transparents"
		},
		{
			"mesh":16,
			"name":"mesh_52469891-0_0_4_transparents"
		},
		{
			"mesh":17,
			"name":"mesh_52469891-0_0_5_transparents"
		},
		{
			"children":[
				14,
				15,
				16,
				17,
				18,
				19
			],
			"name":"pattern_3631410374_0_scope"
		},
		{
			"mesh":18,
			"name":"mesh_1397541642-0_0_0_gbuffer"
		},
		{
			"mesh":19,
			"name":"mesh_1397541642-0_0_1_transparents"
		},
		{
			"mesh":20,
			"name":"mesh_1397541642-0_0_2_transparents"
		},
		{
			"children":[
				21,
				22,
				23
			],
			"name":"pattern_4045334439_0_barrel"
		},
		{
			"children":[
				6,
				13,
				20,
				24
			],
			"name":"item_3_3838841051",
			"scale":[
				150,
				150,
				150
			]
		},
		{
			"children":[
				25
			],
			"name":"content",
			"scale":[
				0.06687378883361816,
				0.06687378883361816,
				0.06687378883361816
			]
		}
	],
	"materials":[
		{
			"alphaMode":"BLEND",
			"doubleSided":true,
			"name":"mat_3838841051_2",
			"normalTexture":{
				"index":0
			},
			"pbrMetallicRoughness":{
				"baseColorTexture":{
					"index":1
				},
				"metallicFactor":0
			}
		},
		{
			"alphaMode":"BLEND",
			"doubleSided":true,
			"name":"mat_3838841051_2.001",
			"normalTexture":{
				"index":2
			},
			"pbrMetallicRoughness":{
				"baseColorTexture":{
					"index":3
				},
				"metallicFactor":0
			}
		},
		{
			"alphaMode":"BLEND",
			"doubleSided":true,
			"name":"mat_3838841051_2.002",
			"normalTexture":{
				"index":4
			},
			"pbrMetallicRoughness":{
				"baseColorTexture":{
					"index":5
				},
				"metallicFactor":0
			}
		},
		{
			"alphaMode":"BLEND",
			"doubleSided":true,
			"name":"mat_3838841051_2.003",
			"normalTexture":{
				"index":6
			},
			"pbrMetallicRoughness":{
				"baseColorTexture":{
					"index":7
				},
				"metallicFactor":0
			}
		},
		{
			"alphaMode":"BLEND",
			"doubleSided":true,
			"name":"mat_3838841051_2.004",
			"normalTexture":{
				"index":8
			},
			"pbrMetallicRoughness":{
				"baseColorTexture":{
					"index":9
				},
				"metallicFactor":0
			}
		},
		{
			"alphaMode":"BLEND",
			"doubleSided":true,
			"name":"mat_3838841051_2.005",
			"normalTexture":{
				"index":10
			},
			"pbrMetallicRoughness":{
				"baseColorTexture":{
					"index":11
				},
				"metallicFactor":0
			}
		},
		{
			"alphaMode":"BLEND",
			"doubleSided":true,
			"name":"mat_3838841051_0",
			"normalTexture":{
				"index":12
			},
			"pbrMetallicRoughness":{
				"baseColorTexture":{
					"index":13
				},
				"metallicFactor":0
			}
		},
		{
			"alphaMode":"BLEND",
			"doubleSided":true,
			"name":"mat_3838841051_0.001",
			"normalTexture":{
				"index":14
			},
			"pbrMetallicRoughness":{
				"baseColorTexture":{
					"index":15
				},
				"metallicFactor":0
			}
		},
		{
			"alphaMode":"BLEND",
			"doubleSided":true,
			"name":"mat_3838841051_0.002",
			"normalTexture":{
				"index":16
			},
			"pbrMetallicRoughness":{
				"baseColorTexture":{
					"index":17
				},
				"metallicFactor":0
			}
		},
		{
			"alphaMode":"BLEND",
			"doubleSided":true,
			"name":"mat_3838841051_0.003",
			"normalTexture":{
				"index":18
			},
			"pbrMetallicRoughness":{
				"baseColorTexture":{
					"index":19
				},
				"metallicFactor":0
			}
		},
		{
			"alphaMode":"BLEND",
			"doubleSided":true,
			"name":"mat_3838841051_0.004",
			"normalTexture":{
				"index":20
			},
			"pbrMetallicRoughness":{
				"baseColorTexture":{
					"index":21
				},
				"metallicFactor":0
			}
		},
		{
			"alphaMode":"BLEND",
			"doubleSided":true,
			"name":"mat_3838841051_0.005",
			"normalTexture":{
				"index":22
			},
			"pbrMetallicRoughness":{
				"baseColorTexture":{
					"index":23
				},
				"metallicFactor":0
			}
		},
		{
			"alphaMode":"BLEND",
			"doubleSided":true,
			"name":"mat_3838841051_1.003",
			"normalTexture":{
				"index":24
			},
			"pbrMetallicRoughness":{
				"baseColorTexture":{
					"index":25
				},
				"metallicFactor":0
			}
		},
		{
			"alphaMode":"BLEND",
			"doubleSided":true,
			"name":"mat_3838841051_1.004",
			"normalTexture":{
				"index":26
			},
			"pbrMetallicRoughness":{
				"baseColorTexture":{
					"index":27
				},
				"metallicFactor":0
			}
		},
		{
			"alphaMode":"BLEND",
			"doubleSided":true,
			"name":"mat_3838841051_1.005",
			"normalTexture":{
				"index":28
			},
			"pbrMetallicRoughness":{
				"baseColorTexture":{
					"index":29
				},
				"metallicFactor":0
			}
		},
		{
			"alphaMode":"BLEND",
			"doubleSided":true,
			"name":"mat_3838841051_1.006",
			"normalTexture":{
				"index":30
			},
			"pbrMetallicRoughness":{
				"baseColorTexture":{
					"index":31
				},
				"metallicFactor":0
			}
		},
		{
			"alphaMode":"BLEND",
			"doubleSided":true,
			"name":"mat_3838841051_1.007",
			"normalTexture":{
				"index":32
			},
			"pbrMetallicRoughness":{
				"baseColorTexture":{
					"index":33
				},
				"metallicFactor":0
			}
		},
		{
			"alphaMode":"BLEND",
			"doubleSided":true,
			"name":"mat_3838841051_1.008",
			"normalTexture":{
				"index":34
			},
			"pbrMetallicRoughness":{
				"baseColorTexture":{
					"index":35
				},
				"metallicFactor":0
			}
		},
		{
			"alphaMode":"BLEND",
			"doubleSided":true,
			"name":"mat_3838841051_1",
			"normalTexture":{
				"index":36
			},
			"pbrMetallicRoughness":{
				"baseColorTexture":{
					"index":37
				},
				"metallicFactor":0
			}
		},
		{
			"alphaMode":"BLEND",
			"doubleSided":true,
			"name":"mat_3838841051_1.001",
			"normalTexture":{
				"index":38
			},
			"pbrMetallicRoughness":{
				"baseColorTexture":{
					"index":39
				},
				"metallicFactor":0
			}
		},
		{
			"alphaMode":"BLEND",
			"doubleSided":true,
			"name":"mat_3838841051_1.002",
			"normalTexture":{
				"index":40
			},
			"pbrMetallicRoughness":{
				"baseColorTexture":{
					"index":41
				},
				"metallicFactor":0
			}
		}
	],
	"meshes":[
		{
			"name":"Mesh_15",
			"primitives":[
				{
					"attributes":{
						"POSITION":0,
						"NORMAL":1,
						"TEXCOORD_0":2,
						"TANGENT":3,
						"COLOR_0":4
					},
					"indices":5,
					"material":0
				}
			]
		},
		{
			"name":"Mesh_16",
			"primitives":[
				{
					"attributes":{
						"POSITION":6,
						"NORMAL":7,
						"TEXCOORD_0":8,
						"TANGENT":9,
						"COLOR_0":10
					},
					"indices":11,
					"material":1
				}
			]
		},
		{
			"name":"Mesh_17",
			"primitives":[
				{
					"attributes":{
						"POSITION":12,
						"NORMAL":13,
						"TEXCOORD_0":14,
						"TANGENT":15,
						"COLOR_0":16
					},
					"indices":17,
					"material":2
				}
			]
		},
		{
			"name":"Mesh_18",
			"primitives":[
				{
					"attributes":{
						"POSITION":18,
						"NORMAL":19,
						"TEXCOORD_0":20,
						"TANGENT":21,
						"COLOR_0":22
					},
					"indices":23,
					"material":3
				}
			]
		},
		{
			"name":"Mesh_19",
			"primitives":[
				{
					"attributes":{
						"POSITION":24,
						"NORMAL":25,
						"TEXCOORD_0":26,
						"TANGENT":27,
						"COLOR_0":28
					},
					"indices":29,
					"material":4
				}
			]
		},
		{
			"name":"Mesh_20",
			"primitives":[
				{
					"attributes":{
						"POSITION":30,
						"NORMAL":31,
						"TEXCOORD_0":32,
						"TANGENT":33,
						"COLOR_0":34
					},
					"indices":35,
					"material":5
				}
			]
		},
		{
			"name":"Mesh_3.001",
			"primitives":[
				{
					"attributes":{
						"POSITION":36,
						"NORMAL":37,
						"TEXCOORD_0":38,
						"TANGENT":39,
						"COLOR_0":40
					},
					"indices":41,
					"material":6
				}
			]
		},
		{
			"name":"Mesh_4.001",
			"primitives":[
				{
					"attributes":{
						"POSITION":42,
						"NORMAL":43,
						"TEXCOORD_0":44,
						"TANGENT":45,
						"COLOR_0":46
					},
					"indices":47,
					"material":7
				}
			]
		},
		{
			"name":"Mesh_5.001",
			"primitives":[
				{
					"attributes":{
						"POSITION":48,
						"NORMAL":49,
						"TEXCOORD_0":50,
						"TANGENT":51,
						"COLOR_0":52
					},
					"indices":53,
					"material":8
				}
			]
		},
		{
			"name":"Mesh_6",
			"primitives":[
				{
					"attributes":{
						"POSITION":54,
						"NORMAL":55,
						"TEXCOORD_0":56,
						"TANGENT":57,
						"COLOR_0":58
					},
					"indices":59,
					"material":9
				}
			]
		},
		{
			"name":"Mesh_7",
			"primitives":[
				{
					"attributes":{
						"POSITION":60,
						"NORMAL":61,
						"TEXCOORD_0":62,
						"TANGENT":63,
						"COLOR_0":64
					},
					"indices":65,
					"material":10
				}
			]
		},
		{
			"name":"Mesh_8",
			"primitives":[
				{
					"attributes":{
						"POSITION":66,
						"NORMAL":67,
						"TEXCOORD_0":68,
						"TANGENT":69,
						"COLOR_0":70
					},
					"indices":71,
					"material":11
				}
			]
		},
		{
			"name":"Mesh_9",
			"primitives":[
				{
					"attributes":{
						"POSITION":72,
						"NORMAL":73,
						"TEXCOORD_0":74,
						"TANGENT":75,
						"COLOR_0":76
					},
					"indices":77,
					"material":12
				}
			]
		},
		{
			"name":"Mesh_10",
			"primitives":[
				{
					"attributes":{
						"POSITION":78,
						"NORMAL":79,
						"TEXCOORD_0":80,
						"TANGENT":81,
						"COLOR_0":82
					},
					"indices":83,
					"material":13
				}
			]
		},
		{
			"name":"Mesh_11",
			"primitives":[
				{
					"attributes":{
						"POSITION":84,
						"NORMAL":85,
						"TEXCOORD_0":86,
						"TANGENT":87,
						"COLOR_0":88
					},
					"indices":89,
					"material":14
				}
			]
		},
		{
			"name":"Mesh_12",
			"primitives":[
				{
					"attributes":{
						"POSITION":90,
						"NORMAL":91,
						"TEXCOORD_0":92,
						"TANGENT":93,
						"COLOR_0":94
					},
					"indices":95,
					"material":15
				}
			]
		},
		{
			"name":"Mesh_13",
			"primitives":[
				{
					"attributes":{
						"POSITION":96,
						"NORMAL":97,
						"TEXCOORD_0":98,
						"TANGENT":99,
						"COLOR_0":100
					},
					"indices":101,
					"material":16
				}
			]
		},
		{
			"name":"Mesh_14",
			"primitives":[
				{
					"attributes":{
						"POSITION":102,
						"NORMAL":103,
						"TEXCOORD_0":104,
						"TANGENT":105,
						"COLOR_0":106
					},
					"indices":107,
					"material":17
				}
			]
		},
		{
			"name":"Mesh_0.001",
			"primitives":[
				{
					"attributes":{
						"POSITION":108,
						"NORMAL":109,
						"TEXCOORD_0":110,
						"TANGENT":111,
						"COLOR_0":112
					},
					"indices":113,
					"material":18
				}
			]
		},
		{
			"name":"Mesh_1.001",
			"primitives":[
				{
					"attributes":{
						"POSITION":114,
						"NORMAL":115,
						"TEXCOORD_0":116,
						"TANGENT":117,
						"COLOR_0":118
					},
					"indices":119,
					"material":19
				}
			]
		},
		{
			"name":"Mesh_2.001",
			"primitives":[
				{
					"attributes":{
						"POSITION":120,
						"NORMAL":121,
						"TEXCOORD_0":122,
						"TANGENT":123,
						"COLOR_0":124
					},
					"indices":119,
					"material":20
				}
			]
		}
	],
	"textures":[
		{
			"sampler":0,
			"source":0
		},
		{
			"sampler":0,
			"source":1
		},
		{
			"sampler":0,
			"source":0
		},
		{
			"sampler":0,
			"source":1
		},
		{
			"sampler":0,
			"source":0
		},
		{
			"sampler":0,
			"source":1
		},
		{
			"sampler":0,
			"source":0
		},
		{
			"sampler":0,
			"source":1
		},
		{
			"sampler":0,
			"source":0
		},
		{
			"sampler":0,
			"source":1
		},
		{
			"sampler":0,
			"source":0
		},
		{
			"sampler":0,
			"source":1
		},
		{
			"sampler":0,
			"source":2
		},
		{
			"sampler":0,
			"source":3
		},
		{
			"sampler":0,
			"source":2
		},
		{
			"sampler":0,
			"source":3
		},
		{
			"sampler":0,
			"source":2
		},
		{
			"sampler":0,
			"source":3
		},
		{
			"sampler":0,
			"source":2
		},
		{
			"sampler":0,
			"source":3
		},
		{
			"sampler":0,
			"source":2
		},
		{
			"sampler":0,
			"source":3
		},
		{
			"sampler":0,
			"source":2
		},
		{
			"sampler":0,
			"source":3
		},
		{
			"sampler":0,
			"source":4
		},
		{
			"sampler":0,
			"source":5
		},
		{
			"sampler":0,
			"source":4
		},
		{
			"sampler":0,
			"source":5
		},
		{
			"sampler":0,
			"source":4
		},
		{
			"sampler":0,
			"source":5
		},
		{
			"sampler":0,
			"source":4
		},
		{
			"sampler":0,
			"source":5
		},
		{
			"sampler":0,
			"source":4
		},
		{
			"sampler":0,
			"source":5
		},
		{
			"sampler":0,
			"source":4
		},
		{
			"sampler":0,
			"source":5
		},
		{
			"sampler":0,
			"source":4
		},
		{
			"sampler":0,
			"source":5
		},
		{
			"sampler":0,
			"source":4
		},
		{
			"sampler":0,
			"source":5
		},
		{
			"sampler":0,
			"source":4
		},
		{
			"sampler":0,
			"source":5
		}
	],
	"images":[
		{
			"mimeType":"image/png",
			"name":"Image_5",
			"uri":"Image_5.png"
		},
		{
			"mimeType":"image/png",
			"name":"Image_4",
			"uri":"Image_4.png"
		},
		{
			"mimeType":"image/png",
			"name":"Image_3",
			"uri":"Image_3.png"
		},
		{
			"mimeType":"image/png",
			"name":"Image_2",
			"uri":"Image_2.png"
		},
		{
			"mimeType":"image/png",
			"name":"Image_1",
			"uri":"Image_1.png"
		},
		{
			"mimeType":"image/png",
			"name":"Image_0",
			"uri":"Image_0.png"
		}
	],
	"accessors":[
		{
			"bufferView":0,
			"componentType":5126,
			"count":12,
			"max":[
				0.0009080875315703452,
				0.22540786862373352,
				-0.004697861615568399
			],
			"min":[
				-0.0008965992019511759,
				0.22480881214141846,
				-0.004697861615568399
			],
			"type":"VEC3"
		},
		{
			"bufferView":1,
			"componentType":5126,
			"count":12,
			"type":"VEC3"
		},
		{
			"bufferView":2,
			"componentType":5126,
			"count":12,
			"type":"VEC2"
		},
		{
			"bufferView":3,
			"componentType":5126,
			"count":12,
			"type":"VEC4"
		},
		{
			"bufferView":4,
			"componentType":5123,
			"count":12,
			"normalized":true,
			"type":"VEC4"
		},
		{
			"bufferView":5,
			"componentType":5123,
			"count":18,
			"type":"SCALAR"
		},
		{
			"bufferView":6,
			"componentType":5126,
			"count":436,
			"max":[
				0.006494379602372646,
				0.2138122022151947,
				0.006493442691862583
			],
			"min":[
				-0.006494123488664627,
				-1.996755599975586e-06,
				-0.006491316016763449
			],
			"type":"VEC3"
		},
		{
			"bufferView":7,
			"componentType":5126,
			"count":436,
			"type":"VEC3"
		},
		{
			"bufferView":8,
			"componentType":5126,
			"count":436,
			"type":"VEC2"
		},
		{
			"bufferView":9,
			"componentType":5126,
			"count":436,
			"type":"VEC4"
		},
		{
			"bufferView":10,
			"componentType":5123,
			"count":436,
			"normalized":true,
			"type":"VEC4"
		},
		{
			"bufferView":11,
			"componentType":5123,
			"count":582,
			"type":"SCALAR"
		},
		{
			"bufferView":12,
			"componentType":5126,
			"count":314,
			"max":[
				0.002353334566578269,
				0.22099724411964417,
				-0.004637955222278833
			],
			"min":[
				-0.002338102087378502,
				0.21887055039405823,
				-0.004637955222278833
			],
			"type":"VEC3"
		},
		{
			"bufferView":13,
			"componentType":5126,
			"count":314,
			"type":"VEC3"
		},
		{
			"bufferView":14,
			"componentType":5126,
			"count":314,
			"type":"VEC2"
		},
		{
			"bufferView":15,
			"componentType":5126,
			"count":314,
			"type":"VEC4"
		},
		{
			"bufferView":16,
			"componentType":5123,
			"count":314,
			"normalized":true,
			"type":"VEC4"
		},
		{
			"bufferView":17,
			"componentType":5123,
			"count":360,
			"type":"SCALAR"
		},
		{
			"bufferView":18,
			"componentType":5126,
			"count":2565,
			"max":[
				0.026739070191979408,
				0.24536800384521484,
				-0.004694117698818445
			],
			"min":[
				-0.02673506923019886,
				0.19189760088920593,
				-0.004694117698818445
			],
			"type":"VEC3"
		},
		{
			"bufferView":19,
			"componentType":5126,
			"count":2565,
			"type":"VEC3"
		},
		{
			"bufferView":20,
			"componentType":5126,
			"count":2565,
			"type":"VEC2"
		},
		{
			"bufferView":21,
			"componentType":5126,
			"count":2565,
			"type":"VEC4"
		},
		{
			"bufferView":22,
			"componentType":5123,
			"count":2565,
			"normalized":true,
			"type":"VEC4"
		},
		{
			"bufferView":23,
			"componentType":5123,
			"count":3726,
			"type":"SCALAR"
		},
		{
			"bufferView":24,
			"componentType":5126,
			"count":98,
			"max":[
				0.019198324531316757,
				0.2378309965133667,
				0.02195683680474758
			],
			"min":[
				-0.019190579652786255,
				0.1994420886039734,
				-0.005031092558056116
			],
			"type":"VEC3"
		},
		{
			"bufferView":25,
			"componentType":5126,
			"count":98,
			"type":"VEC3"
		},
		{
			"bufferView":26,
			"componentType":5126,
			"count":98,
			"type":"VEC2"
		},
		{
			"bufferView":27,
			"componentType":5126,
			"count":98,
			"type":"VEC4"
		},
		{
			"bufferView":28,
			"componentType":5123,
			"count":98,
			"normalized":true,
			"type":"VEC4"
		},
		{
			"bufferView":29,
			"componentType":5123,
			"count":288,
			"type":"SCALAR"
		},
		{
			"bufferView":30,
			"componentType":5126,
			"count":4,
			"max":[
				0.008826992474496365,
				-1.996755599975586e-06,
				0.00872121937572956
			],
			"min":[
				-0.008830482140183449,
				-1.996755599975586e-06,
				-0.008722838014364243
			],
			"type":"VEC3"
		},
		{
			"bufferView":31,
			"componentType":5126,
			"count":4,
			"type":"VEC3"
		},
		{
			"bufferView":32,
			"componentType":5126,
			"count":4,
			"type":"VEC2"
		},
		{
			"bufferView":33,
			"componentType":5126,
			"count":4,
			"type":"VEC4"
		},
		{
			"bufferView":34,
			"componentType":5123,
			"count":4,
			"normalized":true,
			"type":"VEC4"
		},
		{
			"bufferView":35,
			"componentType":5123,
			"count":6,
			"type":"SCALAR"
		},
		{
			"bufferView":36,
			"componentType":5126,
			"count":300,
			"max":[
				0.018187031149864197,
				0.15557080507278442,
				1.1359260082244873
			],
			"min":[
				-0.018198387697339058,
				0.07316086441278458,
				0.37808457016944885
			],
			"type":"VEC3"
		},
		{
			"bufferView":37,
			"componentType":5126,
			"count":300,
			"type":"VEC3"
		},
		{
			"bufferView":38,
			"componentType":5126,
			"count":300,
			"type":"VEC2"
		},
		{
			"bufferView":39,
			"componentType":5126,
			"count":300,
			"type":"VEC4"
		},
		{
			"bufferView":40,
			"componentType":5123,
			"count":300,
			"normalized":true,
			"type":"VEC4"
		},
		{
			"bufferView":41,
			"componentType":5123,
			"count":672,
			"type":"SCALAR"
		},
		{
			"bufferView":42,
			"componentType":5126,
			"count":13818,
			"max":[
				0.04549780488014221,
				0.19328051805496216,
				1.1248105764389038
			],
			"min":[
				-0.029943320900201797,
				-0.04656800627708435,
				-0.2867960035800934
			],
			"type":"VEC3"
		},
		{
			"bufferView":43,
			"componentType":5126,
			"count":13818,
			"type":"VEC3"
		},
		{
			"bufferView":44,
			"componentType":5126,
			"count":13818,
			"type":"VEC2"
		},
		{
			"bufferView":45,
			"componentType":5126,
			"count":13818,
			"type":"VEC4"
		},
		{
			"bufferView":46,
			"componentType":5123,
			"count":13818,
			"normalized":true,
			"type":"VEC4"
		},
		{
			"bufferView":47,
			"componentType":5123,
			"count":35358,
			"type":"SCALAR"
		},
		{
			"bufferView":48,
			"componentType":5126,
			"count":1757,
			"max":[
				0.03522913157939911,
				0.19571200013160706,
				1.0598118305206299
			],
			"min":[
				-0.025340870022773743,
				0.024769995361566544,
				-0.2335204780101776
			],
			"type":"VEC3"
		},
		{
			"bufferView":49,
			"componentType":5126,
			"count":1757,
			"type":"VEC3"
		},
		{
			"bufferView":50,
			"componentType":5126,
			"count":1757,
			"type":"VEC2"
		},
		{
			"bufferView":51,
			"componentType":5126,
			"count":1757,
			"type":"VEC4"
		},
		{
			"bufferView":52,
			"componentType":5123,
			"count":1757,
			"normalized":true,
			"type":"VEC4"
		},
		{
			"bufferView":53,
			"componentType":5123,
			"count":3096,
			"type":"SCALAR"
		},
		{
			"bufferView":54,
			"componentType":5126,
			"count":272,
			"max":[
				0.016537096351385117,
				0.15392085909843445,
				1.1342543363571167
			],
			"min":[
				-0.016548452898859978,
				0.07535354793071747,
				0.37808457016944885
			],
			"type":"VEC3"
		},
		{
			"bufferView":55,
			"componentType":5126,
			"count":272,
			"type":"VEC3"
		},
		{
			"bufferView":56,
			"componentType":5126,
			"count":272,
			"type":"VEC2"
		},
		{
			"bufferView":57,
			"componentType":5126,
			"count":272,
			"type":"VEC4"
		},
		{
			"bufferView":58,
			"componentType":5123,
			"count":272,
			"normalized":true,
			"type":"VEC4"
		},
		{
			"bufferView":59,
			"componentType":5123,
			"count":672,
			"type":"SCALAR"
		},
		{
			"bufferView":60,
			"componentType":5126,
			"count":1152,
			"max":[
				0.046431321650743484,
				0.15452873706817627,
				1.1182760000228882
			],
			"min":[
				-0.02979135513305664,
				0.05236299708485603,
				0.10106909275054932
			],
			"type":"VEC3"
		},
		{
			"bufferView":61,
			"componentType":5126,
			"count":1152,
			"type":"VEC3"
		},
		{
			"bufferView":62,
			"componentType":5126,
			"count":1152,
			"type":"VEC2"
		},
		{
			"bufferView":63,
			"componentType":5126,
			"count":1152,
			"type":"VEC4"
		},
		{
			"bufferView":64,
			"componentType":5123,
			"count":1152,
			"normalized":true,
			"type":"VEC4"
		},
		{
			"bufferView":65,
			"componentType":5123,
			"count":3438,
			"type":"SCALAR"
		},
		{
			"bufferView":66,
			"componentType":5126,
			"count":300,
			"max":[
				0.018187031149864197,
				0.15557080507278442,
				1.1359260082244873
			],
			"min":[
				-0.018198387697339058,
				0.07316086441278458,
				0.37808457016944885
			],
			"type":"VEC3"
		},
		{
			"bufferView":67,
			"componentType":5126,
			"count":300,
			"type":"VEC3"
		},
		{
			"bufferView":68,
			"componentType":5126,
			"count":300,
			"type":"VEC2"
		},
		{
			"bufferView":69,
			"componentType":5126,
			"count":300,
			"type":"VEC4"
		},
		{
			"bufferView":70,
			"componentType":5123,
			"count":300,
			"normalized":true,
			"type":"VEC4"
		},
		{
			"bufferView":71,
			"componentType":5123,
			"count":672,
			"type":"SCALAR"
		},
		{
			"bufferView":72,
			"componentType":5126,
			"count":146,
			"max":[
				0.024754032492637634,
				0.2451338768005371,
				0.3383308947086334
			],
			"min":[
				-0.024752091616392136,
				0.19562192261219025,
				-0.008894369006156921
			],
			"type":"VEC3"
		},
		{
			"bufferView":73,
			"componentType":5126,
			"count":146,
			"type":"VEC3"
		},
		{
			"bufferView":74,
			"componentType":5126,
			"count":146,
			"type":"VEC2"
		},
		{
			"bufferView":75,
			"componentType":5126,
			"count":146,
			"type":"VEC4"
		},
		{
			"bufferView":76,
			"componentType":5123,
			"count":146,
			"normalized":true,
			"type":"VEC4"
		},
		{
			"bufferView":77,
			"componentType":5123,
			"count":648,
			"type":"SCALAR"
		},
		{
			"bufferView":78,
			"componentType":5126,
			"count":2735,
			"max":[
				0.04644503816962242,
				0.2634420394897461,
				0.3461172580718994
			],
			"min":[
				-0.04596482962369919,
				0.16535133123397827,
				-0.020605996251106262
			],
			"type":"VEC3"
		},
		{
			"bufferView":79,
			"componentType":5126,
			"count":2735,
			"type":"VEC3"
		},
		{
			"bufferView":80,
			"componentType":5126,
			"count":2735,
			"type":"VEC2"
		},
		{
			"bufferView":81,
			"componentType":5126,
			"count":2735,
			"type":"VEC4"
		},
		{
			"bufferView":82,
			"componentType":5123,
			"count":2735,
			"normalized":true,
			"type":"VEC4"
		},
		{
			"bufferView":83,
			"componentType":5123,
			"count":7125,
			"type":"SCALAR"
		},
		{
			"bufferView":84,
			"componentType":5126,
			"count":1883,
			"max":[
				0.05014283210039139,
				0.2614823281764984,
				0.3616200089454651
			],
			"min":[
				-0.03432902693748474,
				0.15878397226333618,
				0.019294023513793945
			],
			"type":"VEC3"
		},
		{
			"bufferView":85,
			"componentType":5126,
			"count":1883,
			"type":"VEC3"
		},
		{
			"bufferView":86,
			"componentType":5126,
			"count":1883,
			"type":"VEC2"
		},
		{
			"bufferView":87,
			"componentType":5126,
			"count":1883,
			"type":"VEC4"
		},
		{
			"bufferView":88,
			"componentType":5123,
			"count":1883,
			"normalized":true,
			"type":"VEC4"
		},
		{
			"bufferView":89,
			"componentType":5123,
			"count":5619,
			"type":"SCALAR"
		},
		{
			"bufferView":90,
			"componentType":5126,
			"count":56,
			"max":[
				0.03301865980029106,
				0.2519812285900116,
				0.21009789407253265
			],
			"min":[
				-0.03301671892404556,
				0.18903705477714539,
				0.18467409908771515
			],
			"type":"VEC3"
		},
		{
			"bufferView":91,
			"componentType":5126,
			"count":56,
			"type":"VEC3"
		},
		{
			"bufferView":92,
			"componentType":5126,
			"count":56,
			"type":"VEC2"
		},
		{
			"bufferView":93,
			"componentType":5126,
			"count":56,
			"type":"VEC4"
		},
		{
			"bufferView":94,
			"componentType":5123,
			"count":56,
			"normalized":true,
			"type":"VEC4"
		},
		{
			"bufferView":95,
			"componentType":5123,
			"count":84,
			"type":"SCALAR"
		},
		{
			"bufferView":96,
			"componentType":5126,
			"count":52,
			"max":[
				0.031228087842464447,
				0.2496015727519989,
				0.20960213243961334
			],
			"min":[
				-0.031226148828864098,
				0.19008107483386993,
				0.18418417870998383
			],
			"type":"VEC3"
		},
		{
			"bufferView":97,
			"componentType":5126,
			"count":52,
			"type":"VEC3"
		},
		{
			"bufferView":98,
			"componentType":5126,
			"count":52,
			"type":"VEC2"
		},
		{
			"bufferView":99,
			"componentType":5126,
			"count":52,
			"type":"VEC4"
		},
		{
			"bufferView":100,
			"componentType":5123,
			"count":52,
			"normalized":true,
			"type":"VEC4"
		},
		{
			"bufferView":101,
			"componentType":5123,
			"count":84,
			"type":"SCALAR"
		},
		{
			"bufferView":102,
			"componentType":5126,
			"count":132,
			"max":[
				0.03236542269587517,
				0.23748166859149933,
				0.16862310469150543
			],
			"min":[
				-0.03236347809433937,
				0.16535133123397827,
				0.08679335564374924
			],
			"type":"VEC3"
		},
		{
			"bufferView":103,
			"componentType":5126,
			"count":132,
			"type":"VEC3"
		},
		{
			"bufferView":104,
			"componentType":5126,
			"count":132,
			"type":"VEC2"
		},
		{
			"bufferView":105,
			"componentType":5126,
			"count":132,
			"type":"VEC4"
		},
		{
			"bufferView":106,
			"componentType":5123,
			"count":132,
			"normalized":true,
			"type":"VEC4"
		},
		{
			"bufferView":107,
			"componentType":5123,
			"count":477,
			"type":"SCALAR"
		},
		{
			"bufferView":108,
			"componentType":5126,
			"count":2368,
			"max":[
				0.030173679813742638,
				0.11229082942008972,
				1.0581949949264526
			],
			"min":[
				-0.08678367733955383,
				-0.07943882048130035,
				-0.18486103415489197
			],
			"type":"VEC3"
		},
		{
			"bufferView":109,
			"componentType":5126,
			"count":2368,
			"type":"VEC3"
		},
		{
			"bufferView":110,
			"componentType":5126,
			"count":2368,
			"type":"VEC2"
		},
		{
			"bufferView":111,
			"componentType":5126,
			"count":2368,
			"type":"VEC4"
		},
		{
			"bufferView":112,
			"componentType":5123,
			"count":2368,
			"normalized":true,
			"type":"VEC4"
		},
		{
			"bufferView":113,
			"componentType":5123,
			"count":6858,
			"type":"SCALAR"
		},
		{
			"bufferView":114,
			"componentType":5126,
			"count":52,
			"max":[
				0.013064449653029442,
				-0.030482131987810135,
				0.22596924006938934
			],
			"min":[
				-0.013054640032351017,
				-0.07522790133953094,
				0.12687984108924866
			],
			"type":"VEC3"
		},
		{
			"bufferView":115,
			"componentType":5126,
			"count":52,
			"type":"VEC3"
		},
		{
			"bufferView":116,
			"componentType":5126,
			"count":52,
			"type":"VEC2"
		},
		{
			"bufferView":117,
			"componentType":5126,
			"count":52,
			"type":"VEC4"
		},
		{
			"bufferView":118,
			"componentType":5123,
			"count":52,
			"normalized":true,
			"type":"VEC4"
		},
		{
			"bufferView":119,
			"componentType":5123,
			"count":144,
			"type":"SCALAR"
		},
		{
			"bufferView":120,
			"componentType":5126,
			"count":52,
			"max":[
				0.012191912159323692,
				-0.030482131987810135,
				0.2250967025756836
			],
			"min":[
				-0.01218210719525814,
				-0.07522790133953094,
				0.12803691625595093
			],
			"type":"VEC3"
		},
		{
			"bufferView":121,
			"componentType":5126,
			"count":52,
			"type":"VEC3"
		},
		{
			"bufferView":122,
			"componentType":5126,
			"count":52,
			"type":"VEC2"
		},
		{
			"bufferView":123,
			"componentType":5126,
			"count":52,
			"type":"VEC4"
		},
		{
			"bufferView":124,
			"componentType":5123,
			"count":52,
			"normalized":true,
			"type":"VEC4"
		}
	],
	"bufferViews":[
		{
			"buffer":0,
			"byteLength":144,
			"byteOffset":0,
			"target":34962
		},
		{
			"buffer":0,
			"byteLength":144,
			"byteOffset":144,
			"target":34962
		},
		{
			"buffer":0,
			"byteLength":96,
			"byteOffset":288,
			"target":34962
		},
		{
			"buffer":0,
			"byteLength":192,
			"byteOffset":384,
			"target":34962
		},
		{
			"buffer":0,
			"byteLength":96,
			"byteOffset":576,
			"target":34962
		},
		{
			"buffer":0,
			"byteLength":36,
			"byteOffset":672,
			"target":34963
		},
		{
			"buffer":0,
			"byteLength":5232,
			"byteOffset":708,
			"target":34962
		},
		{
			"buffer":0,
			"byteLength":5232,
			"byteOffset":5940,
			"target":34962
		},
		{
			"buffer":0,
			"byteLength":3488,
			"byteOffset":11172,
			"target":34962
		},
		{
			"buffer":0,
			"byteLength":6976,
			"byteOffset":14660,
			"target":34962
		},
		{
			"buffer":0,
			"byteLength":3488,
			"byteOffset":21636,
			"target":34962
		},
		{
			"buffer":0,
			"byteLength":1164,
			"byteOffset":25124,
			"target":34963
		},
		{
			"buffer":0,
			"byteLength":3768,
			"byteOffset":26288,
			"target":34962
		},
		{
			"buffer":0,
			"byteLength":3768,
			"byteOffset":30056,
			"target":34962
		},
		{
			"buffer":0,
			"byteLength":2512,
			"byteOffset":33824,
			"target":34962
		},
		{
			"buffer":0,
			"byteLength":5024,
			"byteOffset":36336,
			"target":34962
		},
		{
			"buffer":0,
			"byteLength":2512,
			"byteOffset":41360,
			"target":34962
		},
		{
			"buffer":0,
			"byteLength":720,
			"byteOffset":43872,
			"target":34963
		},
		{
			"buffer":0,
			"byteLength":30780,
			"byteOffset":44592,
			"target":34962
		},
		{
			"buffer":0,
			"byteLength":30780,
			"byteOffset":75372,
			"target":34962
		},
		{
			"buffer":0,
			"byteLength":20520,
			"byteOffset":106152,
			"target":34962
		},
		{
			"buffer":0,
			"byteLength":41040,
			"byteOffset":126672,
			"target":34962
		},
		{
			"buffer":0,
			"byteLength":20520,
			"byteOffset":167712,
			"target":34962
		},
		{
			"buffer":0,
			"byteLength":7452,
			"byteOffset":188232,
			"target":34963
		},
		{
			"buffer":0,
			"byteLength":1176,
			"byteOffset":195684,
			"target":34962
		},
		{
			"buffer":0,
			"byteLength":1176,
			"byteOffset":196860,
			"target":34962
		},
		{
			"buffer":0,
			"byteLength":784,
			"byteOffset":198036,
			"target":34962
		},
		{
			"buffer":0,
			"byteLength":1568,
			"byteOffset":198820,
			"target":34962
		},
		{
			"buffer":0,
			"byteLength":784,
			"byteOffset":200388,
			"target":34962
		},
		{
			"buffer":0,
			"byteLength":576,
			"byteOffset":201172,
			"target":34963
		},
		{
			"buffer":0,
			"byteLength":48,
			"byteOffset":201748,
			"target":34962
		},
		{
			"buffer":0,
			"byteLength":48,
			"byteOffset":201796,
			"target":34962
		},
		{
			"buffer":0,
			"byteLength":32,
			"byteOffset":201844,
			"target":34962
		},
		{
			"buffer":0,
			"byteLength":64,
			"byteOffset":201876,
			"target":34962
		},
		{
			"buffer":0,
			"byteLength":32,
			"byteOffset":201940,
			"target":34962
		},
		{
			"buffer":0,
			"byteLength":12,
			"byteOffset":201972,
			"target":34963
		},
		{
			"buffer":0,
			"byteLength":3600,
			"byteOffset":201984,
			"target":34962
		},
		{
			"buffer":0,
			"byteLength":3600,
			"byteOffset":205584,
			"target":34962
		},
		{
			"buffer":0,
			"byteLength":2400,
			"byteOffset":209184,
			"target":34962
		},
		{
			"buffer":0,
			"byteLength":4800,
			"byteOffset":211584,
			"target":34962
		},
		{
			"buffer":0,
			"byteLength":2400,
			"byteOffset":216384,
			"target":34962
		},
		{
			"buffer":0,
			"byteLength":1344,
			"byteOffset":218784,
			"target":34963
		},
		{
			"buffer":0,
			"byteLength":165816,
			"byteOffset":220128,
			"target":34962
		},
		{
			"buffer":0,
			"byteLength":165816,
			"byteOffset":385944,
			"target":34962
		},
		{
			"buffer":0,
			"byteLength":110544,
			"byteOffset":551760,
			"target":34962
		},
		{
			"buffer":0,
			"byteLength":221088,
			"byteOffset":662304,
			"target":34962
		},
		{
			"buffer":0,
			"byteLength":110544,
			"byteOffset":883392,
			"target":34962
		},
		{
			"buffer":0,
			"byteLength":70716,
			"byteOffset":993936,
			"target":34963
		},
		{
			"buffer":0,
			"byteLength":21084,
			"byteOffset":1064652,
			"target":34962
		},
		{
			"buffer":0,
			"byteLength":21084,
			"byteOffset":1085736,
			"target":34962
		},
		{
			"buffer":0,
			"byteLength":14056,
			"byteOffset":1106820,
			"target":34962
		},
		{
			"buffer":0,
			"byteLength":28112,
			"byteOffset":1120876,
			"target":34962
		},
		{
			"buffer":0,
			"byteLength":14056,
			"byteOffset":1148988,
			"target":34962
		},
		{
			"buffer":0,
			"byteLength":6192,
			"byteOffset":1163044,
			"target":34963
		},
		{
			"buffer":0,
			"byteLength":3264,
			"byteOffset":1169236,
			"target":34962
		},
		{
			"buffer":0,
			"byteLength":3264,
			"byteOffset":1172500,
			"target":34962
		},
		{
			"buffer":0,
			"byteLength":2176,
			"byteOffset":1175764,
			"target":34962
		},
		{
			"buffer":0,
			"byteLength":4352,
			"byteOffset":1177940,
			"target":34962
		},
		{
			"buffer":0,
			"byteLength":2176,
			"byteOffset":1182292,
			"target":34962
		},
		{
			"buffer":0,
			"byteLength":1344,
			"byteOffset":1184468,
			"target":34963
		},
		{
			"buffer":0,
			"byteLength":13824,
			"byteOffset":1185812,
			"target":34962
		},
		{
			"buffer":0,
			"byteLength":13824,
			"byteOffset":1199636,
			"target":34962
		},
		{
			"buffer":0,
			"byteLength":9216,
			"byteOffset":1213460,
			"target":34962
		},
		{
			"buffer":0,
			"byteLength":18432,
			"byteOffset":1222676,
			"target":34962
		},
		{
			"buffer":0,
			"byteLength":9216,
			"byteOffset":1241108,
			"target":34962
		},
		{
			"buffer":0,
			"byteLength":6876,
			"byteOffset":1250324,
			"target":34963
		},
		{
			"buffer":0,
			"byteLength":3600,
			"byteOffset":1257200,
			"target":34962
		},
		{
			"buffer":0,
			"byteLength":3600,
			"byteOffset":1260800,
			"target":34962
		},
		{
			"buffer":0,
			"byteLength":2400,
			"byteOffset":1264400,
			"target":34962
		},
		{
			"buffer":0,
			"byteLength":4800,
			"byteOffset":1266800,
			"target":34962
		},
		{
			"buffer":0,
			"byteLength":2400,
			"byteOffset":1271600,
			"target":34962
		},
		{
			"buffer":0,
			"byteLength":1344,
			"byteOffset":1274000,
			"target":34963
		},
		{
			"buffer":0,
			"byteLength":1752,
			"byteOffset":1275344,
			"target":34962
		},
		{
			"buffer":0,
			"byteLength":1752,
			"byteOffset":1277096,
			"target":34962
		},
		{
			"buffer":0,
			"byteLength":1168,
			"byteOffset":1278848,
			"target":34962
		},
		{
			"buffer":0,
			"byteLength":2336,
			"byteOffset":1280016,
			"target":34962
		},
		{
			"buffer":0,
			"byteLength":1168,
			"byteOffset":1282352,
			"target":34962
		},
		{
			"buffer":0,
			"byteLength":1296,
			"byteOffset":1283520,
			"target":34963
		},
		{
			"buffer":0,
			"byteLength":32820,
			"byteOffset":1284816,
			"target":34962
		},
		{
			"buffer":0,
			"byteLength":32820,
			"byteOffset":1317636,
			"target":34962
		},
		{
			"buffer":0,
			"byteLength":21880,
			"byteOffset":1350456,
			"target":34962
		},
		{
			"buffer":0,
			"byteLength":43760,
			"byteOffset":1372336,
			"target":34962
		},
		{
			"buffer":0,
			"byteLength":21880,
			"byteOffset":1416096,
			"target":34962
		},
		{
			"buffer":0,
			"byteLength":14250,
			"byteOffset":1437976,
			"target":34963
		},
		{
			"buffer":0,
			"byteLength":22596,
			"byteOffset":1452228,
			"target":34962
		},
		{
			"buffer":0,
			"byteLength":22596,
			"byteOffset":1474824,
			"target":34962
		},
		{
			"buffer":0,
			"byteLength":15064,
			"byteOffset":1497420,
			"target":34962
		},
		{
			"buffer":0,
			"byteLength":30128,
			"byteOffset":1512484,
			"target":34962
		},
		{
			"buffer":0,
			"byteLength":15064,
			"byteOffset":1542612,
			"target":34962
		},
		{
			"buffer":0,
			"byteLength":11238,
			"byteOffset":1557676,
			"target":34963
		},
		{
			"buffer":0,
			"byteLength":672,
			"byteOffset":1568916,
			"target":34962
		},
		{
			"buffer":0,
			"byteLength":672,
			"byteOffset":1569588,
			"target":34962
		},
		{
			"buffer":0,
			"byteLength":448,
			"byteOffset":1570260,
			"target":34962
		},
		{
			"buffer":0,
			"byteLength":896,
			"byteOffset":1570708,
			"target":34962
		},
		{
			"buffer":0,
			"byteLength":448,
			"byteOffset":1571604,
			"target":34962
		},
		{
			"buffer":0,
			"byteLength":168,
			"byteOffset":1572052,
			"target":34963
		},
		{
			"buffer":0,
			"byteLength":624,
			"byteOffset":1572220,
			"target":34962
		},
		{
			"buffer":0,
			"byteLength":624,
			"byteOffset":1572844,
			"target":34962
		},
		{
			"buffer":0,
			"byteLength":416,
			"byteOffset":1573468,
			"target":34962
		},
		{
			"buffer":0,
			"byteLength":832,
			"byteOffset":1573884,
			"target":34962
		},
		{
			"buffer":0,
			"byteLength":416,
			"byteOffset":1574716,
			"target":34962
		},
		{
			"buffer":0,
			"byteLength":168,
			"byteOffset":1575132,
			"target":34963
		},
		{
			"buffer":0,
			"byteLength":1584,
			"byteOffset":1575300,
			"target":34962
		},
		{
			"buffer":0,
			"byteLength":1584,
			"byteOffset":1576884,
			"target":34962
		},
		{
			"buffer":0,
			"byteLength":1056,
			"byteOffset":1578468,
			"target":34962
		},
		{
			"buffer":0,
			"byteLength":2112,
			"byteOffset":1579524,
			"target":34962
		},
		{
			"buffer":0,
			"byteLength":1056,
			"byteOffset":1581636,
			"target":34962
		},
		{
			"buffer":0,
			"byteLength":954,
			"byteOffset":1582692,
			"target":34963
		},
		{
			"buffer":0,
			"byteLength":28416,
			"byteOffset":1583648,
			"target":34962
		},
		{
			"buffer":0,
			"byteLength":28416,
			"byteOffset":1612064,
			"target":34962
		},
		{
			"buffer":0,
			"byteLength":18944,
			"byteOffset":1640480,
			"target":34962
		},
		{
			"buffer":0,
			"byteLength":37888,
			"byteOffset":1659424,
			"target":34962
		},
		{
			"buffer":0,
			"byteLength":18944,
			"byteOffset":1697312,
			"target":34962
		},
		{
			"buffer":0,
			"byteLength":13716,
			"byteOffset":1716256,
			"target":34963
		},
		{
			"buffer":0,
			"byteLength":624,
			"byteOffset":1729972,
			"target":34962
		},
		{
			"buffer":0,
			"byteLength":624,
			"byteOffset":1730596,
			"target":34962
		},
		{
			"buffer":0,
			"byteLength":416,
			"byteOffset":1731220,
			"target":34962
		},
		{
			"buffer":0,
			"byteLength":832,
			"byteOffset":1731636,
			"target":34962
		},
		{
			"buffer":0,
			"byteLength":416,
			"byteOffset":1732468,
			"target":34962
		},
		{
			"buffer":0,
			"byteLength":288,
			"byteOffset":1732884,
			"target":34963
		},
		{
			"buffer":0,
			"byteLength":624,
			"byteOffset":1733172,
			"target":34962
		},
		{
			"buffer":0,
			"byteLength":624,
			"byteOffset":1733796,
			"target":34962
		},
		{
			"buffer":0,
			"byteLength":416,
			"byteOffset":1734420,
			"target":34962
		},
		{
			"buffer":0,
			"byteLength":832,
			"byteOffset":1734836,
			"target":34962
		},
		{
			"buffer":0,
			"byteLength":416,
			"byteOffset":1735668,
			"target":34962
		}
	],
	"samplers":[
		{
			"magFilter":9729,
			"minFilter":9987
		}
	],
	"buffers":[
		{
			"byteLength":1736084,
			"uri":"borealis.bin"
		}
	]
}
