{
	"asset":{
		"generator":"Khronos glTF Blender I/O v4.5.48",
		"version":"2.0"
	},
	"scene":0,
	"scenes":[
		{
			"name":"Scene",
			"nodes":[
				11
			]
		}
	],
	"nodes":[
		{
			"mesh":0,
			"name":"mesh_2266124357-0_0_0_gbuffer"
		},
		{
			"children":[
				0
			],
			"name":"pattern_221899584_0_scope"
		},
		{
			"mesh":1,
			"name":"mesh_174804713-0_0_0_transparents"
		},
		{
			"mesh":2,
			"name":"mesh_174804713-0_0_1_redacted16"
		},
		{
			"children":[
				2,
				3
			],
			"name":"pattern_2680567696_0_hud17"
		},
		{
			"mesh":3,
			"name":"mesh_17475906-0_0_0_gbuffer"
		},
		{
			"mesh":4,
			"name":"mesh_17475906-0_0_1_transparents"
		},
		{
			"children":[
				5,
				6
			],
			"name":"pattern_3119890591_0_barrel"
		},
		{
			"mesh":5,
			"name":"mesh_1216040046-0_0_0_gbuffer"
		},
		{
			"children":[
				8
			],
			"name":"pattern_3696596575_0_frame"
		},
		{
			"children":[
				1,
				4,
				7,
				9
			],
			"name":"item_2_3055790362",
			"scale":[
				150,
				150,
				150
			]
		},
		{
			"children":[
				10
			],
			"name":"content",
			"scale":[
				0.10224461555480957,
				0.10224461555480957,
				0.10224461555480957
			]
		}
	],
	"materials":[
		{
			"alphaMode":"BLEND",
			"doubleSided":true,
			"name":"mat_3055790362_1.002",
			"normalTexture":{
				"index":0
			},
			"pbrMetallicRoughness":{
				"baseColorTexture":{
					"index":1
				},
				"metallicFactor":0
			}
		},
		{
			"alphaMode":"BLEND",
			"doubleSided":true,
			"name":"mat_3055790362_2",
			"pbrMetallicRoughness":{
				"metallicFactor":0
			}
		},
		{
			"alphaMode":"BLEND",
			"doubleSided":true,
			"name":"mat_3055790362_2.001",
			"pbrMetallicRoughness":{
				"metallicFactor":0
			}
		},
		{
			"alphaMode":"BLEND",
			"doubleSided":true,
			"name":"mat_3055790362_1",
			"normalTexture":{
				"index":2
			},
			"pbrMetallicRoughness":{
				"baseColorTexture":{
					"index":3
				},
				"metallicFactor":0
			}
		},
		{
			"alphaMode":"BLEND",
			"doubleSided":true,
			"name":"mat_3055790362_1.001",
			"normalTexture":{
				"index":4
			},
			"pbrMetallicRoughness":{
				"baseColorTexture":{
					"index":5
				},
				"metallicFactor":0
			}
		},
		{
			"alphaMode":"BLEND",
			"doubleSided":true,
			"name":"mat_3055790362_0",
			"normalTexture":{
				"index":6
			},
			"pbrMetallicRoughness":{
				"baseColorTexture":{
					"index":7
				},
				"metallicFactor":0
			}
		}
	],
	"meshes":[
		{
			"name":"Mesh_5",
			"primitives":[
				{
					"attributes":{
						"POSITION":0,
						"NORMAL":1,
						"TEXCOORD_0":2,
						"TANGENT":3,
						"COLOR_0":4
					},
					"indices":5,
					"material":0
				}
			]
		},
		{
			"name":"Mesh_3",
			"primitives":[
				{
					"attributes":{
						"POSITION":6,
						"NORMAL":7,
						"TEXCOORD_0":8,
						"TANGENT":9,
						"COLOR_0":10
					},
					"indices":11,
					"material":1
				}
			]
		},
		{
			"name":"Mesh_4",
			"primitives":[
				{
					"attributes":{
						"POSITION":12,
						"NORMAL":13,
						"TEXCOORD_0":14,
						"TANGENT":15,
						"COLOR_0":16
					},
					"indices":17,
					"material":2
				}
			]
		},
		{
			"name":"Mesh_1",
			"primitives":[
				{
					"attributes":{
						"POSITION":18,
						"NORMAL":19,
						"TEXCOORD_0":20,
						"TANGENT":21,
						"COLOR_0":22
					},
					"indices":23,
					"material":3
				}
			]
		},
		{
			"name":"Mesh_2",
			"primitives":[
				{
					"attributes":{
						"POSITION":24,
						"NORMAL":25,
						"TEXCOORD_0":26,
						"TANGENT":27,
						"COLOR_0":28
					},
					"indices":29,
					"material":4
				}
			]
		},
		{
			"name":"Mesh_0",
			"primitives":[
				{
					"attributes":{
						"POSITION":30,
						"NORMAL":31,
						"TEXCOORD_0":32,
						"TANGENT":33,
						"COLOR_0":34
					},
					"indices":35,
					"material":5
				}
			]
		}
	],
	"textures":[
		{
			"sampler":0,
			"source":0
		},
		{
			"sampler":0,
			"source":1
		},
		{
			"sampler":0,
			"source":0
		},
		{
			"sampler":0,
			"source":1
		},
		{
			"sampler":0,
			"source":0
		},
		{
			"sampler":0,
			"source":1
		},
		{
			"sampler":0,
			"source":2
		},
		{
			"sampler":0,
			"source":3
		}
	],
	"images":[
		{
			"mimeType":"image/png",
			"name":"Image_3",
			"uri":"Image_3.png"
		},
		{
			"mimeType":"image/png",
			"name":"Image_2",
			"uri":"Image_2.png"
		},
		{
			"mimeType":"image/png",
			"name":"Image_1",
			"uri":"Image_1.png"
		},
		{
			"mimeType":"image/png",
			"name":"Image_0",
			"uri":"Image_0.png"
		}
	],
	"accessors":[
		{
			"bufferView":0,
			"componentType":5126,
			"count":445,
			"max":[
				0.008211280219256878,
				0.16307666897773743,
				0.0894399955868721
			],
			"min":[
				-0.008211280219256878,
				0.1585613191127777,
				0.061117999255657196
			],
			"type":"VEC3"
		},
		{
			"bufferView":1,
			"componentType":5126,
			"count":445,
			"type":"VEC3"
		},
		{
			"bufferView":2,
			"componentType":5126,
			"count":445,
			"type":"VEC2"
		},
		{
			"bufferView":3,
			"componentType":5126,
			"count":445,
			"type":"VEC4"
		},
		{
			"bufferView":4,
			"componentType":5123,
			"count":445,
			"normalized":true,
			"type":"VEC4"
		},
		{
			"bufferView":5,
			"componentType":5123,
			"count":996,
			"type":"SCALAR"
		},
		{
			"bufferView":6,
			"componentType":5126,
			"count":24,
			"max":[
				0.011699394322931767,
				0.1726820021867752,
				0.0707431435585022
			],
			"min":[
				-0.011699394322931767,
				0.16306161880493164,
				0.06645599752664566
			],
			"type":"VEC3"
		},
		{
			"bufferView":7,
			"componentType":5126,
			"count":24,
			"type":"VEC3"
		},
		{
			"bufferView":8,
			"componentType":5126,
			"count":24,
			"type":"VEC2"
		},
		{
			"bufferView":9,
			"componentType":5126,
			"count":24,
			"type":"VEC4"
		},
		{
			"bufferView":10,
			"componentType":5123,
			"count":24,
			"normalized":true,
			"type":"VEC4"
		},
		{
			"bufferView":11,
			"componentType":5123,
			"count":48,
			"type":"SCALAR"
		},
		{
			"bufferView":12,
			"componentType":5126,
			"count":4,
			"max":[
				0.008829880505800247,
				0,
				0.008720546960830688
			],
			"min":[
				-0.008829880505800247,
				0,
				-0.008723145350813866
			],
			"type":"VEC3"
		},
		{
			"bufferView":13,
			"componentType":5126,
			"count":4,
			"type":"VEC3"
		},
		{
			"bufferView":14,
			"componentType":5126,
			"count":4,
			"type":"VEC2"
		},
		{
			"bufferView":15,
			"componentType":5126,
			"count":4,
			"type":"VEC4"
		},
		{
			"bufferView":16,
			"componentType":5123,
			"count":4,
			"normalized":true,
			"type":"VEC4"
		},
		{
			"bufferView":17,
			"componentType":5123,
			"count":6,
			"type":"SCALAR"
		},
		{
			"bufferView":18,
			"componentType":5126,
			"count":5924,
			"max":[
				0.020948683843016624,
				0.14773961901664734,
				0.335534006357193
			],
			"min":[
				-0.021664684638381004,
				0.11822637915611267,
				0.19742199778556824
			],
			"type":"VEC3"
		},
		{
			"bufferView":19,
			"componentType":5126,
			"count":5924,
			"type":"VEC3"
		},
		{
			"bufferView":20,
			"componentType":5126,
			"count":5924,
			"type":"VEC2"
		},
		{
			"bufferView":21,
			"componentType":5126,
			"count":5924,
			"type":"VEC4"
		},
		{
			"bufferView":22,
			"componentType":5123,
			"count":5924,
			"normalized":true,
			"type":"VEC4"
		},
		{
			"bufferView":23,
			"componentType":5123,
			"count":17448,
			"type":"SCALAR"
		},
		{
			"bufferView":24,
			"componentType":5126,
			"count":756,
			"max":[
				0.02020895667374134,
				0.1431853473186493,
				0.3268216550350189
			],
			"min":[
				-0.020539287477731705,
				0.12353935092687607,
				0.2061343491077423
			],
			"type":"VEC3"
		},
		{
			"bufferView":25,
			"componentType":5126,
			"count":756,
			"type":"VEC3"
		},
		{
			"bufferView":26,
			"componentType":5126,
			"count":756,
			"type":"VEC2"
		},
		{
			"bufferView":27,
			"componentType":5126,
			"count":756,
			"type":"VEC4"
		},
		{
			"bufferView":28,
			"componentType":5123,
			"count":756,
			"normalized":true,
			"type":"VEC4"
		},
		{
			"bufferView":29,
			"componentType":5123,
			"count":4128,
			"type":"SCALAR"
		},
		{
			"bufferView":30,
			"componentType":5126,
			"count":8113,
			"max":[
				0.03179944306612015,
				0.16034826636314392,
				0.38687899708747864
			],
			"min":[
				-0.03179944306612015,
				-0.034010253846645355,
				-0.045385003089904785
			],
			"type":"VEC3"
		},
		{
			"bufferView":31,
			"componentType":5126,
			"count":8113,
			"type":"VEC3"
		},
		{
			"bufferView":32,
			"componentType":5126,
			"count":8113,
			"type":"VEC2"
		},
		{
			"bufferView":33,
			"componentType":5126,
			"count":8113,
			"type":"VEC4"
		},
		{
			"bufferView":34,
			"componentType":5123,
			"count":8113,
			"normalized":true,
			"type":"VEC4"
		},
		{
			"bufferView":35,
			"componentType":5123,
			"count":24468,
			"type":"SCALAR"
		}
	],
	"bufferViews":[
		{
			"buffer":0,
			"byteLength":5340,
			"byteOffset":0,
			"target":34962
		},
		{
			"buffer":0,
			"byteLength":5340,
			"byteOffset":5340,
			"target":34962
		},
		{
			"buffer":0,
			"byteLength":3560,
			"byteOffset":10680,
			"target":34962
		},
		{
			"buffer":0,
			"byteLength":7120,
			"byteOffset":14240,
			"target":34962
		},
		{
			"buffer":0,
			"byteLength":3560,
			"byteOffset":21360,
			"target":34962
		},
		{
			"buffer":0,
			"byteLength":1992,
			"byteOffset":24920,
			"target":34963
		},
		{
			"buffer":0,
			"byteLength":288,
			"byteOffset":26912,
			"target":34962
		},
		{
			"buffer":0,
			"byteLength":288,
			"byteOffset":27200,
			"target":34962
		},
		{
			"buffer":0,
			"byteLength":192,
			"byteOffset":27488,
			"target":34962
		},
		{
			"buffer":0,
			"byteLength":384,
			"byteOffset":27680,
			"target":34962
		},
		{
			"buffer":0,
			"byteLength":192,
			"byteOffset":28064,
			"target":34962
		},
		{
			"buffer":0,
			"byteLength":96,
			"byteOffset":28256,
			"target":34963
		},
		{
			"buffer":0,
			"byteLength":48,
			"byteOffset":28352,
			"target":34962
		},
		{
			"buffer":0,
			"byteLength":48,
			"byteOffset":28400,
			"target":34962
		},
		{
			"buffer":0,
			"byteLength":32,
			"byteOffset":28448,
			"target":34962
		},
		{
			"buffer":0,
			"byteLength":64,
			"byteOffset":28480,
			"target":34962
		},
		{
			"buffer":0,
			"byteLength":32,
			"byteOffset":28544,
			"target":34962
		},
		{
			"buffer":0,
			"byteLength":12,
			"byteOffset":28576,
			"target":34963
		},
		{
			"buffer":0,
			"byteLength":71088,
			"byteOffset":28588,
			"target":34962
		},
		{
			"buffer":0,
			"byteLength":71088,
			"byteOffset":99676,
			"target":34962
		},
		{
			"buffer":0,
			"byteLength":47392,
			"byteOffset":170764,
			"target":34962
		},
		{
			"buffer":0,
			"byteLength":94784,
			"byteOffset":218156,
			"target":34962
		},
		{
			"buffer":0,
			"byteLength":47392,
			"byteOffset":312940,
			"target":34962
		},
		{
			"buffer":0,
			"byteLength":34896,
			"byteOffset":360332,
			"target":34963
		},
		{
			"buffer":0,
			"byteLength":9072,
			"byteOffset":395228,
			"target":34962
		},
		{
			"buffer":0,
			"byteLength":9072,
			"byteOffset":404300,
			"target":34962
		},
		{
			"buffer":0,
			"byteLength":6048,
			"byteOffset":413372,
			"target":34962
		},
		{
			"buffer":0,
			"byteLength":12096,
			"byteOffset":419420,
			"target":34962
		},
		{
			"buffer":0,
			"byteLength":6048,
			"byteOffset":431516,
			"target":34962
		},
		{
			"buffer":0,
			"byteLength":8256,
			"byteOffset":437564,
			"target":34963
		},
		{
			"buffer":0,
			"byteLength":97356,
			"byteOffset":445820,
			"target":34962
		},
		{
			"buffer":0,
			"byteLength":97356,
			"byteOffset":543176,
			"target":34962
		},
		{
			"buffer":0,
			"byteLength":64904,
			"byteOffset":640532,
			"target":34962
		},
		{
			"buffer":0,
			"byteLength":129808,
			"byteOffset":705436,
			"target":34962
		},
		{
			"buffer":0,
			"byteLength":64904,
			"byteOffset":835244,
			"target":34962
		},
		{
			"buffer":0,
			"byteLength":48936,
			"byteOffset":900148,
			"target":34963
		}
	],
	"samplers":[
		{
			"magFilter":9729,
			"minFilter":9987
		}
	],
	"buffers":[
		{
			"byteLength":949084,
			"uri":"menagerie.bin"
		}
	]
}
